{"glyphs":{"0":{"ha":818,"x_min":68,"x_max":751,"o":"m 603 422 q 588 566 603 506 q 547 665 572 626 q 485 723 521 704 q 408 742 450 742 q 332 723 367 742 q 271 665 297 704 q 230 565 244 625 q 215 422 215 504 q 266 183 215 265 q 408 101 317 101 q 552 183 501 101 q 603 422 603 265 m 408 -19 q 270 8 333 -19 q 163 90 207 35 q 93 228 118 146 q 68 422 68 311 q 95 622 68 539 q 169 759 122 706 q 278 838 217 813 q 408 863 339 863 q 540 837 478 863 q 649 757 603 811 q 724 619 696 703 q 751 422 751 536 q 726 228 751 311 q 656 90 701 146 q 548 8 611 35 q 408 -19 485 -19 z "},"1":{"ha":510,"x_min":19,"x_max":381,"o":"m 381 0 q 351 -8 369 -4 q 313 -11 333 -11 q 253 4 272 -11 q 233 57 233 19 l 233 704 l 67 632 q 33 657 47 640 q 19 701 19 674 q 35 747 19 729 q 83 778 50 764 l 267 854 l 300 854 q 358 833 336 854 q 381 775 381 811 l 381 0 z "},"2":{"ha":711,"x_min":51,"x_max":631,"o":"m 81 747 q 99 792 81 771 q 149 828 117 813 q 226 853 182 844 q 321 863 269 863 q 542 794 464 863 q 619 617 619 726 q 578 468 619 540 q 438 308 536 396 l 224 117 l 614 117 q 626 93 621 108 q 631 60 631 78 q 616 15 631 31 q 578 0 601 0 l 90 0 q 51 76 51 26 q 63 126 51 104 q 93 165 74 149 l 326 385 q 394 453 367 422 q 439 510 422 483 q 463 560 456 536 q 469 611 469 585 q 428 706 469 669 q 308 742 388 742 q 201 722 247 742 q 124 679 154 703 q 93 706 106 689 q 81 747 81 724 z "},"3":{"ha":707,"x_min":42,"x_max":635,"o":"m 307 864 q 529 803 447 864 q 611 629 611 743 q 599 558 611 589 q 567 503 586 526 q 524 465 547 481 q 481 444 501 450 q 536 418 508 435 q 585 375 564 401 q 621 314 607 349 q 635 235 635 279 q 611 126 635 174 q 544 47 588 79 q 442 -1 501 15 q 311 -17 382 -17 q 200 -7 250 -17 q 115 19 150 3 q 60 56 79 35 q 42 101 42 78 q 54 144 42 126 q 86 172 67 161 q 170 125 119 147 q 303 103 221 103 q 439 138 389 103 q 489 243 489 174 q 444 342 489 306 q 307 379 399 379 l 188 379 q 176 405 181 389 q 171 439 171 421 q 176 474 171 458 q 188 499 181 489 l 300 499 q 427 531 389 499 q 465 621 465 564 q 421 711 465 679 q 296 743 376 743 q 183 725 231 743 q 103 685 135 707 q 74 711 86 694 q 61 751 61 728 q 80 795 61 775 q 131 831 99 815 q 209 855 164 846 q 307 864 254 864 z "},"4":{"ha":782,"x_min":39,"x_max":756,"o":"m 433 843 q 470 850 449 847 q 508 853 492 853 q 546 849 528 853 q 578 836 564 846 q 601 810 593 826 q 610 768 610 793 l 610 314 l 740 314 q 751 289 746 304 q 756 256 756 274 q 741 210 756 225 q 701 194 726 194 l 610 194 l 610 -1 q 583 -8 600 -4 q 546 -11 565 -11 q 487 2 507 -11 q 467 51 467 15 l 467 194 l 86 194 q 53 226 67 204 q 39 278 39 247 q 42 309 39 293 q 53 338 46 325 l 433 843 m 474 703 l 471 703 l 200 314 l 472 314 l 474 703 z "},"5":{"ha":742,"x_min":85,"x_max":679,"o":"m 629 844 q 640 821 635 836 q 644 788 644 806 q 590 724 644 724 l 260 724 l 240 507 q 303 528 264 518 q 388 538 342 538 q 506 519 451 538 q 598 465 560 500 q 658 379 636 429 q 679 265 679 329 q 658 153 679 206 q 597 63 638 101 q 496 3 557 25 q 356 -19 435 -19 q 244 -9 294 -19 q 159 19 194 1 q 104 58 124 36 q 85 106 85 81 q 101 151 85 132 q 136 179 117 171 q 222 126 169 151 q 350 100 275 100 q 484 147 438 100 q 531 264 531 193 q 484 378 531 338 q 358 419 438 419 q 276 406 313 419 q 207 375 240 393 q 133 401 161 378 q 106 468 106 425 q 106 486 106 475 q 108 513 107 497 l 129 763 q 153 822 132 800 q 211 844 174 844 l 629 844 l 629 844 z "},"6":{"ha":767,"x_min":68,"x_max":706,"o":"m 643 769 q 633 731 643 749 q 607 704 622 713 q 535 731 575 719 q 456 742 496 742 q 288 673 354 742 q 214 463 221 604 q 296 515 242 488 q 425 542 350 542 q 539 524 488 542 q 627 471 590 506 q 685 384 664 436 q 706 264 706 332 q 685 149 706 201 q 624 60 664 97 q 528 1 585 22 q 400 -19 471 -19 q 266 6 326 -19 q 161 81 206 31 q 92 210 117 132 q 68 397 68 289 q 99 613 68 524 q 181 757 129 701 q 301 838 233 813 q 444 863 369 863 q 522 856 486 863 q 585 838 558 850 q 628 809 613 826 q 643 769 643 792 m 400 100 q 515 143 471 100 q 558 265 558 186 q 514 384 558 344 q 401 424 469 424 q 292 398 339 424 q 217 336 244 372 l 217 329 q 265 161 217 222 q 400 100 314 100 z "},"7":{"ha":646,"x_min":32,"x_max":621,"o":"m 582 844 q 610 815 599 833 q 621 774 621 797 q 606 707 621 739 l 274 -7 q 252 -8 263 -8 q 231 -8 242 -8 q 169 8 194 -8 q 144 57 144 24 q 153 97 144 75 q 176 147 163 119 l 460 724 l 47 724 q 37 747 42 732 q 32 782 32 763 q 47 828 32 813 q 86 844 61 844 l 582 844 z "},"8":{"ha":788,"x_min":71,"x_max":718,"o":"m 71 226 q 83 301 71 268 q 115 362 94 335 q 164 409 136 389 q 222 442 192 429 q 127 514 161 468 q 93 629 93 560 q 115 726 93 683 q 176 800 136 769 q 271 847 215 831 q 394 863 326 863 q 617 800 536 863 q 697 628 697 738 q 658 510 697 556 q 557 440 619 464 q 618 409 589 428 q 669 364 647 390 q 705 303 692 338 q 718 225 718 268 q 694 122 718 168 q 628 45 671 76 q 526 -3 585 14 q 394 -19 467 -19 q 262 -3 321 -19 q 160 45 203 14 q 94 122 117 76 q 71 226 71 168 m 572 232 q 520 340 572 297 q 378 393 468 382 q 259 334 301 375 q 217 231 217 293 q 264 131 217 167 q 394 96 311 96 q 524 131 475 96 q 572 232 572 165 m 236 625 q 249 567 236 592 q 286 527 263 543 q 341 501 310 511 q 408 488 372 492 q 517 540 481 507 q 553 625 553 572 q 511 715 553 683 q 394 747 469 747 q 279 714 322 747 q 236 625 236 681 z "},"9":{"ha":769,"x_min":64,"x_max":701,"o":"m 108 78 q 119 115 108 97 q 144 143 129 133 q 215 115 174 128 q 310 101 257 101 q 406 117 361 101 q 483 167 450 133 q 535 253 517 200 q 554 379 554 306 q 525 355 543 368 q 482 331 507 342 q 426 312 457 319 q 357 304 394 304 q 244 320 297 304 q 151 369 190 336 q 88 454 111 403 q 64 576 64 506 q 86 693 64 640 q 148 783 108 746 q 244 842 188 821 q 367 863 300 863 q 503 837 442 863 q 608 760 564 811 q 677 631 653 708 q 701 447 701 553 q 674 234 701 322 q 596 90 646 146 q 476 7 546 33 q 321 -19 406 -19 q 236 -13 275 -19 q 169 6 197 -7 q 124 36 140 18 q 108 78 108 54 m 382 421 q 488 450 440 421 q 553 515 535 479 q 505 680 553 617 q 367 743 457 743 q 253 700 297 743 q 210 581 210 657 q 260 459 210 497 q 382 421 310 421 z "},"\u0000":{"ha":0,"x_min":0,"x_max":0,"o":""},"\r":{"ha":310,"x_min":0,"x_max":0,"o":""}," ":{"ha":278,"x_min":0,"x_max":0,"o":""},"!":{"ha":365,"x_min":86,"x_max":272,"o":"m 256 799 q 254 695 256 760 q 251 557 253 631 q 245 409 249 483 q 236 276 242 335 q 210 265 226 269 q 179 261 194 261 q 137 270 153 261 q 118 303 121 279 q 110 410 114 340 q 105 558 107 479 q 101 715 103 636 q 100 850 100 793 q 182 872 138 872 q 236 854 217 872 q 256 799 256 836 m 86 75 q 111 141 86 115 q 179 167 136 167 q 248 141 224 167 q 272 75 272 115 q 248 8 272 35 q 179 -18 224 -18 q 111 8 136 -18 q 86 75 86 35 z "},"\"":{"ha":428,"x_min":40,"x_max":386,"o":"m 163 565 q 108 556 142 556 q 69 566 85 556 q 51 601 53 576 l 40 853 q 72 867 56 861 q 111 872 89 872 q 176 810 176 872 q 175 760 176 792 q 172 694 174 729 q 167 625 169 660 q 163 565 164 590 m 372 565 q 318 556 351 556 q 278 566 293 556 q 263 601 264 576 l 250 853 q 282 867 265 861 q 321 872 299 872 q 386 808 386 872 q 385 760 386 790 q 381 694 383 729 q 377 625 379 660 q 372 565 375 590 z "},"#":{"ha":944,"x_min":54,"x_max":896,"o":"m 713 535 l 668 324 l 842 324 q 851 299 847 313 q 856 269 856 286 q 799 213 856 213 l 644 213 l 599 -3 q 556 -7 578 -7 q 507 6 525 -7 q 489 51 489 19 q 494 97 489 71 q 503 140 499 122 l 518 213 l 335 213 l 289 -3 q 246 -7 268 -7 q 197 6 215 -7 q 179 51 179 19 q 185 96 179 69 q 194 140 190 122 l 210 213 l 68 213 q 58 236 63 222 q 54 265 54 250 q 110 324 54 324 l 233 324 l 278 535 l 108 535 q 99 559 103 546 q 94 588 94 572 q 110 632 94 618 q 150 646 125 646 l 301 646 l 346 850 q 368 852 357 851 q 389 853 379 853 q 438 840 419 853 q 456 794 456 826 q 450 751 456 775 q 440 707 444 726 l 426 646 l 610 646 l 654 850 q 676 852 665 851 q 699 853 688 853 q 747 840 728 853 q 765 794 765 826 q 760 751 765 775 q 750 707 754 726 l 736 646 l 883 646 q 892 622 888 636 q 896 592 896 608 q 840 535 896 535 l 713 535 m 358 324 l 542 324 l 586 535 l 403 535 l 358 324 z "},"$":{"ha":742,"x_min":71,"x_max":679,"o":"m 356 103 q 485 139 443 103 q 526 232 526 175 q 494 313 526 282 q 393 364 463 343 l 289 396 q 201 431 240 411 q 133 478 161 451 q 91 542 106 506 q 76 628 76 579 q 136 781 76 721 q 301 857 196 842 l 301 967 q 325 972 310 969 q 360 975 340 975 q 432 915 432 975 l 432 861 q 584 822 525 854 q 643 746 643 790 q 631 705 643 722 q 603 676 619 688 q 512 722 568 703 q 388 740 456 740 q 269 710 311 740 q 228 628 228 679 q 257 560 228 586 q 353 515 286 535 l 433 492 q 615 397 550 457 q 679 232 679 336 q 615 67 679 133 q 432 -14 551 1 l 432 -122 q 408 -128 424 -125 q 374 -131 393 -131 q 301 -71 301 -131 l 301 -17 q 134 30 197 -7 q 71 113 71 67 q 88 160 71 140 q 126 189 104 179 q 217 131 160 158 q 356 103 275 103 z "},"%":{"ha":1082,"x_min":64,"x_max":1018,"o":"m 471 653 q 455 567 471 606 q 412 503 439 529 q 348 463 385 476 q 268 449 311 449 q 187 463 224 449 q 122 503 150 476 q 79 567 94 529 q 64 653 64 606 q 79 738 64 700 q 122 801 94 775 q 187 842 150 828 q 268 856 224 856 q 348 842 311 856 q 412 801 385 828 q 455 738 439 775 q 471 653 471 700 m 182 653 q 206 574 182 601 q 268 547 231 547 q 330 574 306 547 q 354 653 354 601 q 330 730 354 703 q 268 757 306 757 q 206 730 231 757 q 182 653 182 703 m 765 856 q 825 837 801 850 q 849 800 849 824 q 822 735 849 772 l 321 -10 q 260 8 285 -7 q 236 46 236 24 q 243 76 236 61 q 263 110 250 90 l 765 856 m 1018 193 q 1003 108 1018 146 q 960 43 988 69 q 896 3 933 17 q 815 -11 858 -11 q 735 3 772 -11 q 670 43 697 17 q 627 108 643 69 q 611 193 611 146 q 627 278 611 240 q 670 342 643 315 q 735 382 697 368 q 815 396 772 396 q 896 382 858 396 q 960 342 933 368 q 1003 278 988 315 q 1018 193 1018 240 m 729 193 q 753 115 729 142 q 815 88 776 88 q 876 115 853 88 q 900 193 900 142 q 876 270 900 243 q 815 297 853 297 q 753 270 776 297 q 729 193 729 243 z "},"&":{"ha":899,"x_min":64,"x_max":861,"o":"m 785 -19 q 749 -10 765 -19 q 715 18 733 0 l 657 78 q 539 4 607 29 q 388 -21 471 -21 q 253 -1 313 -21 q 151 56 193 19 q 87 144 110 93 q 64 258 64 196 q 115 420 64 357 q 244 513 167 483 q 195 591 208 554 q 182 668 182 628 q 242 809 182 754 q 413 864 301 864 q 528 840 490 864 q 565 779 565 815 q 556 746 565 761 q 535 719 547 731 q 487 738 514 731 q 431 744 460 744 q 353 722 382 744 q 325 658 325 699 q 345 592 325 621 q 404 522 365 563 l 643 278 q 667 378 658 322 q 676 500 676 435 q 739 515 710 515 q 794 493 778 515 q 810 433 810 471 q 792 302 810 369 q 743 178 775 235 l 861 57 q 837 1 857 22 q 785 -19 817 -19 m 392 97 q 480 112 432 97 q 571 167 528 126 l 325 421 q 242 366 278 406 q 207 263 207 326 q 256 142 207 188 q 392 97 304 97 z "},"'":{"ha":224,"x_min":40,"x_max":183,"o":"m 168 567 q 142 559 157 563 q 111 556 126 556 q 69 567 85 556 q 51 603 53 579 l 40 851 q 73 866 56 860 q 114 872 90 872 q 183 807 183 872 q 182 758 183 789 q 178 694 181 728 q 174 626 176 660 q 168 567 171 592 z "},"(":{"ha":372,"x_min":71,"x_max":361,"o":"m 290 -169 q 235 -148 258 -169 q 190 -93 211 -126 q 103 109 135 -7 q 71 378 71 225 q 107 647 71 529 q 190 842 143 764 q 235 897 211 876 q 290 917 258 917 q 333 903 315 917 q 361 871 351 890 q 249 651 288 772 q 210 378 210 529 q 247 106 210 225 q 361 -122 283 -12 q 333 -155 351 -140 q 290 -169 315 -169 z "},")":{"ha":372,"x_min":11,"x_max":301,"o":"m 82 -169 q 39 -155 57 -169 q 11 -122 21 -140 q 126 106 89 -12 q 163 378 163 225 q 124 651 163 529 q 11 871 85 772 q 39 903 21 890 q 82 917 57 917 q 138 897 114 917 q 182 842 161 876 q 265 647 229 764 q 301 378 301 529 q 269 109 301 225 q 182 -93 238 -7 q 138 -148 161 -126 q 82 -169 114 -169 z "},"*":{"ha":435,"x_min":28,"x_max":406,"o":"m 79 801 q 113 792 90 801 l 171 764 l 169 885 q 190 896 176 890 q 221 901 204 901 q 256 891 242 901 q 271 857 271 881 q 269 819 271 849 q 264 761 267 789 l 365 814 q 393 792 381 807 q 406 756 406 776 q 394 726 406 735 q 363 707 382 717 l 296 676 l 376 575 q 356 540 372 554 q 318 525 339 525 q 285 538 297 525 q 260 569 274 551 l 221 625 l 154 528 q 142 525 147 525 q 132 525 138 525 q 84 539 100 525 q 68 574 68 553 q 89 618 68 594 l 142 678 l 33 713 q 28 749 28 729 q 42 787 28 772 q 79 801 56 801 z "},"+":{"ha":760,"x_min":63,"x_max":697,"o":"m 449 471 l 683 471 q 693 445 689 460 q 697 414 697 431 q 682 367 697 382 q 639 353 667 353 l 449 353 l 449 92 q 422 85 438 89 q 388 82 406 82 q 333 96 351 82 q 315 150 315 110 l 315 353 l 76 353 q 67 378 71 364 q 63 410 63 392 q 78 456 63 440 q 121 471 94 471 l 315 471 l 315 725 q 344 733 328 729 q 381 736 361 736 q 431 722 414 736 q 449 668 449 707 l 449 471 z "},",":{"ha":239,"x_min":-11,"x_max":211,"o":"m 125 -122 q 94 -155 110 -144 q 54 -165 78 -165 q -11 -139 15 -165 q 12 -70 0 -108 q 35 8 24 -32 q 56 85 46 47 q 71 154 65 124 q 104 167 86 161 q 143 172 122 172 q 192 158 172 172 q 211 110 211 144 q 202 51 211 85 q 180 -15 193 18 q 152 -76 167 -47 q 125 -122 138 -106 z "},"-":{"ha":526,"x_min":65,"x_max":461,"o":"m 81 300 q 69 326 74 311 q 65 358 65 340 q 81 404 65 389 q 125 419 97 419 l 447 419 q 456 394 451 408 q 461 363 461 379 q 446 316 461 332 q 403 300 431 300 l 81 300 z "},".":{"ha":233,"x_min":25,"x_max":208,"o":"m 25 74 q 49 140 25 114 q 117 167 74 167 q 185 140 161 167 q 208 74 208 114 q 185 7 208 33 q 117 -19 161 -19 q 49 7 74 -19 q 25 74 25 33 z "},"/":{"ha":438,"x_min":25,"x_max":415,"o":"m 143 -146 q 97 -150 119 -150 q 25 -85 25 -150 q 33 -37 25 -62 q 44 6 40 -11 l 296 979 q 319 982 308 982 q 342 982 331 982 q 395 967 375 982 q 415 918 415 953 q 409 873 415 896 q 397 828 403 850 l 143 -146 z "},":":{"ha":289,"x_min":53,"x_max":239,"o":"m 54 546 q 78 613 54 586 q 146 639 103 639 q 215 613 190 639 q 239 546 239 586 q 215 479 239 506 q 146 453 190 453 q 78 479 103 453 q 54 546 54 506 m 53 74 q 76 140 53 114 q 144 167 100 167 q 212 140 188 167 q 236 74 236 114 q 212 7 236 33 q 144 -19 188 -19 q 76 7 100 -19 q 53 74 53 33 z "},";":{"ha":306,"x_min":15,"x_max":244,"o":"m 61 546 q 85 613 61 586 q 153 639 108 639 q 220 613 196 639 q 244 546 244 586 q 220 479 244 506 q 153 453 196 453 q 85 479 108 453 q 61 546 61 506 m 151 -122 q 120 -155 136 -144 q 81 -165 104 -165 q 15 -139 42 -165 q 38 -70 26 -108 q 61 8 50 -32 q 82 85 72 47 q 97 154 92 124 q 131 167 113 161 q 169 172 149 172 q 218 158 199 172 q 238 110 238 144 q 228 51 238 85 q 206 -15 219 18 q 178 -76 193 -47 q 151 -122 164 -106 z "},"<":{"ha":664,"x_min":65,"x_max":619,"o":"m 618 201 q 619 186 619 193 q 619 172 619 179 q 603 123 619 143 q 553 103 588 103 q 521 110 538 103 q 483 128 504 117 l 86 340 q 71 372 76 354 q 65 408 65 389 q 75 458 65 440 q 101 485 85 476 l 551 714 q 602 685 588 703 q 617 644 617 667 q 600 597 617 614 q 554 563 583 579 l 206 408 l 618 201 z "},"=":{"ha":717,"x_min":64,"x_max":651,"o":"m 78 493 q 64 549 64 514 q 79 594 64 579 q 122 610 94 610 l 639 610 q 647 585 643 599 q 651 553 651 571 q 636 507 651 521 q 593 493 621 493 l 78 493 m 78 210 q 64 265 64 231 q 79 311 64 296 q 122 326 94 326 l 639 326 q 647 301 643 315 q 651 269 651 286 q 636 224 651 238 q 593 210 621 210 l 78 210 z "},">":{"ha":651,"x_min":43,"x_max":588,"o":"m 46 617 q 44 632 44 625 q 43 646 43 639 q 60 694 43 674 q 110 715 76 715 q 142 709 125 715 q 179 692 160 703 l 568 479 q 588 411 588 453 q 578 362 588 379 q 553 335 568 344 l 114 106 q 63 135 78 117 q 49 176 49 153 q 65 223 49 206 q 111 256 81 240 l 447 414 l 46 617 z "},"?":{"ha":653,"x_min":36,"x_max":600,"o":"m 168 282 q 141 315 153 294 q 129 360 129 335 q 190 424 129 408 l 290 449 q 407 507 367 468 q 447 608 447 546 q 405 705 447 664 q 272 746 363 746 q 162 729 217 746 q 75 688 107 713 q 47 719 57 701 q 36 760 36 736 q 55 806 36 785 q 106 841 74 826 q 185 864 139 856 q 285 872 231 872 q 415 853 357 872 q 515 799 474 833 q 578 715 556 764 q 600 610 600 667 q 526 420 600 492 q 306 314 453 349 l 168 282 m 144 75 q 169 142 144 115 q 238 168 194 168 q 306 142 281 168 q 331 75 331 115 q 306 8 331 35 q 238 -18 281 -18 q 169 8 194 -18 q 144 75 144 35 z "},"@":{"ha":1415,"x_min":74,"x_max":1336,"o":"m 956 128 q 987 114 969 119 q 1026 108 1004 108 q 1099 128 1068 108 q 1151 183 1131 147 q 1183 267 1172 218 q 1194 375 1194 317 q 1162 546 1194 468 q 1069 679 1129 624 q 924 765 1008 735 q 735 796 839 796 q 521 758 617 796 q 357 653 425 721 q 252 491 289 585 q 215 283 215 397 q 249 87 215 175 q 345 -64 283 -1 q 493 -160 407 -126 q 683 -193 579 -193 q 779 -187 739 -193 q 849 -174 819 -181 q 863 -199 857 -185 q 868 -226 868 -212 q 826 -287 868 -265 q 674 -310 785 -310 q 439 -270 549 -310 q 248 -155 329 -231 q 120 31 167 -79 q 74 283 74 142 q 122 542 74 426 q 256 739 169 657 q 465 865 343 821 q 733 910 586 910 q 982 872 871 910 q 1172 763 1093 833 q 1294 594 1251 693 q 1336 374 1336 494 q 1257 92 1336 192 q 1026 -7 1178 -7 q 940 6 983 -7 q 860 46 896 19 q 788 13 829 26 q 692 0 746 0 q 494 72 569 0 q 419 276 419 144 q 443 412 419 351 q 510 514 467 472 q 613 578 553 556 q 747 601 674 601 q 853 588 804 601 q 935 554 901 574 q 992 479 992 521 q 991 461 992 471 q 989 442 990 451 l 956 128 m 565 276 q 606 156 565 197 q 714 115 646 115 q 821 153 775 115 l 851 461 q 805 477 832 471 q 742 483 778 483 q 615 430 664 483 q 565 276 565 376 z "},"A":{"ha":836,"x_min":39,"x_max":800,"o":"m 585 211 l 246 211 l 178 -1 q 151 -10 165 -7 q 118 -12 138 -12 q 61 3 83 -12 q 39 49 39 18 q 43 78 39 64 q 54 111 47 93 q 105 262 72 169 q 174 457 138 354 q 249 659 211 560 q 314 829 286 758 q 357 845 328 838 q 417 853 386 853 q 489 842 457 853 q 532 803 521 831 q 599 623 563 724 q 671 415 635 522 q 740 206 707 308 q 800 19 774 103 q 767 -3 788 6 q 719 -12 747 -12 q 665 2 682 -12 q 638 51 649 17 l 585 211 m 415 724 q 385 639 401 686 q 350 540 368 592 q 314 434 332 488 q 279 331 296 381 l 553 331 q 516 442 535 386 q 480 550 497 499 q 447 647 463 601 q 422 724 432 692 l 415 724 z "},"B":{"ha":839,"x_min":114,"x_max":767,"o":"m 735 629 q 704 520 735 568 q 607 444 674 472 q 727 364 688 418 q 767 238 767 310 q 673 45 767 107 q 404 -17 579 -17 q 290 -11 350 -17 q 178 10 229 -6 q 114 83 114 28 l 114 778 q 127 815 114 801 q 164 835 140 828 q 269 856 211 850 q 393 861 326 861 q 645 804 556 861 q 735 629 735 747 m 615 242 q 568 342 615 306 q 432 379 521 379 l 260 379 l 260 115 q 329 105 289 108 q 410 101 369 101 q 562 135 508 101 q 615 242 615 169 m 260 492 l 425 492 q 544 526 504 492 q 585 621 585 561 q 393 743 585 743 q 319 740 353 743 q 260 733 286 738 l 260 492 z "},"C":{"ha":810,"x_min":68,"x_max":750,"o":"m 743 743 q 730 701 743 719 q 699 675 717 683 q 616 719 663 699 q 499 740 569 740 q 387 719 438 740 q 299 658 336 699 q 242 558 263 618 q 221 421 221 499 q 299 183 221 264 q 504 103 376 103 q 622 122 572 103 q 708 167 672 142 q 737 139 724 157 q 750 97 750 121 q 740 61 750 78 q 706 31 729 44 q 622 -4 675 11 q 489 -19 569 -19 q 324 8 400 -19 q 190 90 247 35 q 101 227 133 144 q 68 421 68 310 q 101 613 68 529 q 191 751 135 696 q 322 835 247 807 q 482 864 397 864 q 590 853 542 864 q 672 826 638 843 q 724 788 706 810 q 743 743 743 765 z "},"D":{"ha":911,"x_min":114,"x_max":843,"o":"m 690 428 q 667 569 690 510 q 601 665 643 628 q 504 721 560 703 q 385 739 449 739 q 263 729 311 739 l 263 117 q 324 108 290 110 q 393 106 358 106 q 614 187 538 106 q 690 428 690 268 m 843 429 q 811 233 843 317 q 720 93 779 149 q 578 10 661 38 q 393 -17 494 -17 q 289 -12 349 -17 q 178 8 229 -8 q 114 83 114 29 l 114 779 q 127 816 114 803 q 164 836 140 829 q 269 856 213 851 q 381 861 326 861 q 569 835 483 861 q 715 754 654 808 q 810 619 776 700 q 843 429 843 538 z "},"E":{"ha":744,"x_min":114,"x_max":678,"o":"m 194 -1 q 136 21 158 -1 q 114 79 114 43 l 114 764 q 136 822 114 800 q 194 843 158 843 l 654 843 q 666 819 661 835 q 671 786 671 804 q 656 739 671 756 q 617 722 642 722 l 261 722 l 261 492 l 613 492 q 624 468 619 483 q 629 435 629 453 q 615 388 629 403 q 575 372 600 372 l 261 372 l 261 119 l 661 119 q 672 96 667 111 q 678 63 678 81 q 663 15 678 31 q 624 -1 649 -1 l 194 -1 l 194 -1 z "},"F":{"ha":724,"x_min":114,"x_max":672,"o":"m 656 843 q 667 819 663 835 q 672 786 672 804 q 617 721 672 721 l 263 721 l 263 468 l 607 468 q 619 444 614 458 q 624 410 624 429 q 569 346 624 346 l 264 346 l 264 1 q 235 -5 254 -1 q 196 -8 217 -8 q 114 60 114 -8 l 114 764 q 136 822 114 800 q 194 843 158 843 l 656 843 z "},"G":{"ha":897,"x_min":68,"x_max":808,"o":"m 808 107 q 794 59 808 78 q 749 25 779 40 q 649 -7 713 6 q 518 -19 585 -19 q 337 6 419 -19 q 194 86 254 32 q 101 224 135 140 q 68 421 68 307 q 103 615 68 532 q 197 753 138 699 q 335 836 256 808 q 506 864 415 864 q 615 853 565 864 q 701 826 665 843 q 757 788 738 810 q 776 743 776 767 q 764 702 776 719 q 733 675 751 685 q 644 719 696 699 q 515 740 593 740 q 399 719 453 740 q 305 658 344 699 q 243 558 265 618 q 221 421 221 499 q 244 278 221 339 q 306 179 267 218 q 401 122 346 140 q 519 103 456 103 q 603 110 564 103 q 663 129 642 118 l 663 351 l 471 351 q 459 376 464 360 q 454 408 454 392 q 469 456 454 440 q 508 471 483 471 l 742 471 q 790 453 771 471 q 808 404 808 436 l 808 107 z "},"H":{"ha":915,"x_min":114,"x_max":801,"o":"m 651 843 q 681 849 661 846 q 721 853 700 853 q 781 838 761 853 q 801 783 801 822 l 801 3 q 772 -5 790 -1 q 732 -8 753 -8 q 670 8 689 -8 q 651 61 651 24 l 651 365 l 264 365 l 264 3 q 235 -5 253 -1 q 194 -8 217 -8 q 133 8 151 -8 q 114 61 114 24 l 114 843 q 144 849 125 846 q 183 853 163 853 q 244 838 224 853 q 264 783 264 822 l 264 486 l 651 486 l 651 843 l 651 843 z "},"I":{"ha":381,"x_min":115,"x_max":264,"o":"m 264 3 q 235 -5 254 -1 q 196 -8 217 -8 q 134 8 153 -8 q 115 61 115 24 l 115 843 q 145 849 126 846 q 185 853 164 853 q 244 838 225 853 q 264 783 264 822 l 264 3 l 264 3 z "},"J":{"ha":544,"x_min":33,"x_max":432,"o":"m 161 107 q 253 135 222 107 q 283 231 283 164 l 283 843 q 313 849 293 846 q 351 853 332 853 q 412 838 392 853 q 432 783 432 822 l 432 218 q 413 111 432 156 q 363 38 394 67 q 287 -3 331 10 q 192 -17 243 -17 q 74 4 114 -17 q 33 67 33 25 q 42 103 33 88 q 57 128 50 119 q 107 113 81 119 q 161 107 133 107 z "},"K":{"ha":804,"x_min":114,"x_max":760,"o":"m 264 381 l 264 1 q 235 -6 253 -1 q 194 -10 217 -10 q 133 6 151 -10 q 114 60 114 22 l 114 843 q 144 849 125 846 q 183 853 163 853 q 244 838 224 853 q 264 783 264 822 l 264 469 l 621 850 q 697 827 674 849 q 721 776 721 806 q 708 733 721 753 q 672 689 696 713 l 408 428 q 610 219 524 310 q 760 71 697 128 q 734 10 757 32 q 679 -11 711 -11 q 623 7 646 -11 q 576 49 600 25 l 264 381 z "},"L":{"ha":700,"x_min":114,"x_max":658,"o":"m 194 -1 q 136 21 158 -1 q 114 79 114 43 l 114 843 q 144 849 125 846 q 183 853 163 853 q 244 838 224 853 q 264 783 264 822 l 264 124 l 640 124 q 653 99 647 114 q 658 64 658 83 q 643 15 658 32 q 603 -1 628 -1 l 194 -1 l 194 -1 z "},"M":{"ha":1090,"x_min":100,"x_max":997,"o":"m 622 217 q 592 200 611 207 q 547 193 572 193 q 497 202 518 193 q 467 231 475 211 q 356 492 403 378 q 282 682 310 606 l 275 682 q 267 501 271 583 q 260 339 264 418 q 251 178 256 260 q 240 1 246 96 q 212 -6 229 -3 q 175 -10 194 -10 q 100 51 100 -10 q 102 115 100 69 q 108 224 104 161 q 116 364 111 288 q 126 519 121 440 q 138 673 132 597 q 149 813 143 749 q 185 836 160 824 q 249 849 211 849 q 319 833 293 849 q 361 785 346 817 q 407 680 383 736 q 454 566 431 624 q 500 451 478 508 q 543 344 522 394 l 550 344 q 603 482 576 414 q 656 613 631 550 q 705 731 682 675 q 747 831 728 786 q 785 843 763 838 q 831 849 807 849 q 899 835 876 849 q 929 794 922 821 q 942 712 935 769 q 956 579 949 654 q 969 420 963 504 q 982 258 976 336 q 992 113 988 179 q 997 10 996 47 q 965 -5 982 0 q 924 -10 947 -10 q 873 3 894 -10 q 849 50 851 15 q 838 236 843 144 q 829 410 833 328 q 822 561 825 492 q 815 679 818 631 l 810 679 q 738 499 783 608 q 622 217 693 389 z "},"N":{"ha":924,"x_min":114,"x_max":810,"o":"m 810 19 q 771 -1 794 7 q 715 -10 747 -10 q 648 5 676 -10 q 596 60 619 19 l 367 458 q 335 514 351 485 q 305 572 319 543 q 277 628 290 601 q 254 676 264 656 l 247 675 q 257 520 254 603 q 260 364 260 438 l 260 1 q 231 -5 250 -1 q 193 -8 213 -8 q 133 7 151 -8 q 114 58 114 22 l 114 819 q 153 844 128 835 q 208 853 179 853 q 276 839 247 853 q 329 785 306 825 l 560 385 q 590 329 575 358 q 620 271 606 300 q 648 215 635 242 q 671 167 661 188 l 676 168 q 664 377 665 274 q 663 579 663 481 l 663 843 q 692 849 674 846 q 731 853 710 853 q 791 838 772 853 q 810 786 810 822 l 810 19 l 810 19 z "},"O":{"ha":963,"x_min":68,"x_max":893,"o":"m 893 422 q 862 231 893 314 q 775 93 831 149 q 644 9 719 38 q 481 -19 569 -19 q 316 9 392 -19 q 185 93 240 38 q 99 231 131 149 q 68 422 68 314 q 100 613 68 531 q 188 751 132 694 q 319 835 243 807 q 481 864 394 864 q 643 835 568 864 q 774 751 718 807 q 861 613 829 694 q 893 422 893 531 m 742 422 q 671 659 742 578 q 481 740 600 740 q 292 658 364 740 q 221 422 221 576 q 292 185 221 267 q 481 103 363 103 q 671 185 600 103 q 742 422 742 267 z "},"P":{"ha":793,"x_min":114,"x_max":733,"o":"m 264 290 l 264 3 q 235 -5 253 -1 q 194 -8 217 -8 q 133 8 151 -8 q 114 61 114 24 l 114 778 q 127 815 114 801 q 164 835 140 828 q 267 856 207 850 q 379 861 326 861 q 647 785 560 861 q 733 578 733 708 q 647 369 733 447 q 388 290 560 290 l 264 290 m 378 411 q 528 453 474 411 q 583 578 583 494 q 531 700 583 661 q 382 739 479 739 q 319 736 350 739 q 263 729 288 733 l 263 411 l 378 411 z "},"Q":{"ha":964,"x_min":68,"x_max":933,"o":"m 893 422 q 828 160 893 263 q 654 13 763 57 q 735 -29 699 -11 q 806 -60 772 -47 q 869 -85 839 -74 q 932 -108 900 -97 q 933 -124 933 -118 q 933 -136 933 -131 q 911 -198 933 -176 q 849 -219 889 -219 q 728 -182 799 -219 q 572 -81 657 -144 l 489 -19 l 481 -19 q 316 9 392 -19 q 185 93 240 38 q 99 231 131 149 q 68 422 68 314 q 100 613 68 531 q 188 751 132 696 q 319 835 243 807 q 481 864 394 864 q 643 835 568 864 q 774 751 718 807 q 861 613 829 696 q 893 422 893 531 m 742 422 q 671 659 742 578 q 481 740 600 740 q 292 659 364 740 q 221 422 221 578 q 292 185 221 267 q 481 104 363 104 q 671 185 600 104 q 742 422 742 267 z "},"R":{"ha":825,"x_min":114,"x_max":772,"o":"m 264 3 q 235 -5 253 -1 q 194 -8 217 -8 q 133 8 151 -8 q 114 61 114 24 l 114 778 q 127 815 114 801 q 164 835 140 828 q 267 856 207 850 q 386 861 326 861 q 655 788 567 861 q 743 583 743 715 q 695 427 743 492 q 558 331 647 363 q 624 248 592 289 q 684 170 656 207 q 735 103 713 133 q 772 54 758 74 q 742 6 765 22 q 690 -11 718 -11 q 638 5 657 -11 q 599 49 618 21 l 419 307 l 264 307 l 264 3 m 397 426 q 540 465 488 426 q 593 583 593 504 q 540 700 593 661 q 382 739 486 739 q 319 736 350 739 q 263 729 288 733 l 263 426 l 397 426 z "},"S":{"ha":738,"x_min":69,"x_max":678,"o":"m 354 103 q 483 139 442 103 q 525 232 525 175 q 493 313 525 282 q 392 364 461 343 l 288 396 q 199 431 239 411 q 132 478 160 451 q 90 542 104 506 q 75 628 75 579 q 156 801 75 738 q 376 864 238 864 q 482 855 433 864 q 566 830 531 846 q 622 792 601 814 q 642 746 642 771 q 630 705 642 722 q 601 676 618 688 q 510 722 567 703 q 386 740 454 740 q 268 710 310 740 q 226 628 226 679 q 256 560 226 586 q 351 515 285 535 l 432 492 q 613 397 549 457 q 678 232 678 336 q 656 130 678 176 q 594 50 635 83 q 494 -1 554 17 q 357 -19 433 -19 q 240 -8 293 -19 q 149 21 188 3 q 90 63 111 39 q 69 113 69 86 q 86 160 69 140 q 125 189 103 179 q 216 131 158 158 q 354 103 274 103 z "},"T":{"ha":739,"x_min":32,"x_max":706,"o":"m 442 721 l 442 3 q 413 -5 432 -1 q 374 -8 394 -8 q 313 8 331 -8 q 294 61 294 24 l 294 721 l 49 721 q 37 746 42 731 q 32 781 32 761 q 47 827 32 811 q 86 843 61 843 l 690 843 q 701 819 696 835 q 706 786 706 804 q 651 721 706 721 l 442 721 z "},"U":{"ha":907,"x_min":113,"x_max":794,"o":"m 794 296 q 772 167 794 225 q 705 67 749 108 q 598 3 661 25 q 453 -19 535 -19 q 309 3 372 -19 q 202 67 246 25 q 135 167 158 108 q 113 296 113 225 l 113 843 q 142 849 122 846 q 182 853 161 853 q 242 838 222 853 q 261 783 261 822 l 261 304 q 316 154 261 206 q 453 103 371 103 q 529 116 494 103 q 590 154 564 129 q 631 217 617 179 q 646 304 646 254 l 646 843 q 675 849 656 846 q 715 853 694 853 q 775 838 756 853 q 794 783 794 822 l 794 296 l 794 296 z "},"V":{"ha":829,"x_min":38,"x_max":785,"o":"m 513 15 q 476 -1 501 7 q 421 -8 451 -8 q 360 1 386 -8 q 324 31 333 11 q 282 121 306 65 q 232 244 258 176 q 178 388 206 313 q 125 539 151 464 q 76 685 99 614 q 38 814 54 756 q 71 840 49 828 q 119 851 93 851 q 171 836 153 851 q 200 786 189 821 q 306 460 254 617 q 419 139 358 303 l 426 139 q 482 299 453 214 q 540 474 511 385 q 594 656 568 564 q 643 836 621 747 q 710 851 671 851 q 763 835 742 851 q 785 788 785 819 q 769 706 785 764 q 729 573 754 649 q 674 412 704 497 q 613 249 643 326 q 556 108 583 171 q 513 15 529 46 z "},"W":{"ha":1138,"x_min":49,"x_max":1082,"o":"m 493 635 q 526 647 506 642 q 569 651 546 651 q 661 607 646 651 q 703 475 683 536 q 742 356 724 414 q 777 243 760 299 q 811 128 794 188 l 818 128 q 852 306 836 219 q 884 478 868 392 q 914 652 900 564 q 942 836 928 740 q 1006 851 968 851 q 1060 837 1039 851 q 1082 790 1082 822 q 1074 708 1082 763 q 1055 583 1067 653 q 1026 433 1043 513 q 992 278 1010 354 q 955 134 974 201 q 919 21 936 67 q 877 2 904 10 q 818 -6 850 -6 q 750 6 778 -6 q 715 39 722 18 q 685 122 703 72 q 649 228 668 171 q 612 350 631 286 q 575 478 593 414 q 539 349 558 415 q 501 222 519 283 q 465 108 482 161 q 433 19 447 56 q 394 2 419 10 q 336 -6 368 -6 q 267 7 296 -6 q 231 39 239 19 q 203 119 218 67 q 170 240 188 172 q 135 384 153 307 q 101 538 117 461 q 71 688 85 615 q 49 818 57 760 q 83 841 61 831 q 129 851 104 851 q 207 786 194 851 q 242 603 225 688 q 274 440 258 518 q 304 285 289 361 q 338 128 319 208 l 343 128 q 377 242 361 189 q 410 353 393 296 q 448 478 428 411 q 493 635 468 546 z "},"X":{"ha":825,"x_min":57,"x_max":769,"o":"m 408 325 l 174 -7 q 159 -9 167 -8 q 143 -10 151 -10 q 79 8 101 -10 q 57 57 57 26 q 67 101 57 81 q 97 144 78 121 l 314 428 l 58 781 q 89 830 67 808 q 147 851 111 851 q 194 837 175 851 q 235 792 214 822 l 413 532 l 636 846 q 654 849 643 847 q 676 850 665 850 q 735 832 715 850 q 756 786 756 814 q 744 746 756 765 q 715 703 733 726 q 611 567 664 635 q 503 429 558 500 l 769 60 q 740 9 763 28 q 682 -10 718 -10 q 637 3 656 -10 q 597 49 618 17 l 408 325 z "},"Y":{"ha":774,"x_min":24,"x_max":742,"o":"m 742 789 q 672 634 742 758 q 468 304 603 510 l 468 3 q 438 -5 457 -1 q 400 -8 419 -8 q 339 8 357 -8 q 321 60 321 24 l 321 303 q 242 423 283 358 q 160 553 200 488 q 84 683 119 619 q 24 800 49 746 q 51 835 32 819 q 103 851 71 851 q 156 835 136 851 q 196 782 175 819 q 239 704 213 753 q 294 603 265 656 q 350 505 324 551 q 392 433 376 458 l 397 433 q 456 540 428 489 q 508 639 483 590 q 558 736 533 688 q 608 836 583 785 q 638 847 621 843 q 671 851 656 851 q 722 835 703 851 q 742 789 742 818 z "},"Z":{"ha":775,"x_min":64,"x_max":715,"o":"m 669 844 q 706 769 706 815 q 695 726 706 746 q 668 683 685 706 l 247 124 l 697 124 q 710 99 704 114 q 715 64 715 83 q 700 16 715 32 q 660 0 685 0 l 97 0 q 73 31 82 13 q 64 74 64 50 q 74 119 64 97 q 101 163 85 140 l 524 721 l 92 721 q 79 746 85 731 q 74 781 74 761 q 131 844 74 844 l 669 844 l 669 844 z "},"[":{"ha":386,"x_min":88,"x_max":374,"o":"m 361 907 q 370 883 367 897 q 374 853 374 869 q 318 796 374 796 l 221 796 l 221 -49 l 361 -49 q 370 -73 367 -60 q 374 -103 374 -86 q 318 -161 374 -161 l 157 -161 q 104 -141 121 -161 q 88 -90 88 -121 l 88 838 q 104 888 88 868 q 157 907 121 907 l 361 907 z "},"\\":{"ha":481,"x_min":38,"x_max":435,"o":"m 435 -54 q 399 -76 421 -67 q 358 -86 378 -86 q 318 -76 335 -86 q 294 -39 301 -65 l 38 893 q 72 917 50 908 q 113 925 93 925 q 153 915 136 925 q 176 879 169 906 l 435 -54 z "},"]":{"ha":392,"x_min":13,"x_max":299,"o":"m 25 -161 q 16 -137 19 -150 q 13 -107 13 -124 q 68 -49 13 -49 l 165 -49 l 165 796 l 25 796 q 16 819 19 806 q 13 849 13 833 q 68 907 13 907 l 228 907 q 281 888 264 907 q 299 838 299 868 l 299 -90 q 281 -141 299 -121 q 228 -161 264 -161 l 25 -161 z "},"^":{"ha":653,"x_min":68,"x_max":585,"o":"m 254 896 q 283 908 264 903 q 325 914 301 914 q 397 885 381 914 q 442 801 415 853 q 495 692 468 750 q 547 576 522 633 q 585 476 571 519 q 557 454 575 464 q 518 444 539 444 q 475 457 490 444 q 444 501 460 469 l 325 779 l 317 779 q 294 724 310 761 q 259 642 278 688 q 222 549 240 597 q 192 460 204 500 q 163 448 179 453 q 129 443 146 443 q 86 456 104 443 q 68 496 68 468 q 79 539 68 508 q 108 609 90 569 q 148 694 126 649 q 190 779 169 739 q 228 851 211 819 q 254 896 244 882 z "},"_":{"ha":663,"x_min":0,"x_max":663,"o":"m 13 -196 q 3 -172 7 -185 q 0 -140 0 -158 q 15 -94 0 -108 q 58 -79 31 -79 l 649 -79 q 658 -105 654 -90 q 663 -136 663 -119 q 647 -181 663 -167 q 604 -196 632 -196 l 13 -196 z "},"`":{"ha":419,"x_min":64,"x_max":318,"o":"m 67 885 q 64 907 64 899 q 83 956 64 938 q 129 974 101 974 q 193 942 167 974 l 318 786 q 298 740 315 756 q 257 724 281 724 q 225 731 238 724 q 199 750 213 738 l 67 885 z "},"a":{"ha":710,"x_min":54,"x_max":619,"o":"m 340 93 q 425 103 389 93 q 476 124 461 113 l 476 300 l 325 285 q 229 256 261 278 q 197 190 197 235 q 232 119 197 144 q 340 93 267 93 m 338 669 q 543 613 467 669 q 619 436 619 557 l 619 113 q 605 63 619 81 q 565 31 590 46 q 472 -6 529 10 q 340 -21 415 -21 q 130 32 206 -21 q 54 188 54 85 q 113 328 54 279 q 283 388 172 376 l 476 407 l 476 438 q 437 526 476 499 q 326 554 397 554 q 219 539 271 554 q 128 504 168 524 q 104 531 114 515 q 94 567 94 547 q 106 606 94 590 q 143 632 118 621 q 232 660 182 651 q 338 669 282 669 z "},"b":{"ha":778,"x_min":99,"x_max":715,"o":"m 406 669 q 528 648 471 669 q 626 584 585 626 q 692 477 668 542 q 715 326 715 413 q 691 174 715 239 q 622 66 667 108 q 516 2 578 24 q 379 -19 454 -19 q 247 -1 304 -19 q 153 40 189 17 q 111 79 124 60 q 99 129 99 99 l 99 901 q 126 908 108 904 q 165 913 144 913 q 224 897 206 913 q 243 846 243 882 l 243 626 q 314 656 274 643 q 406 669 354 669 m 382 553 q 303 538 338 553 q 243 504 268 524 l 243 135 q 297 110 263 121 q 378 99 332 99 q 515 154 463 99 q 568 326 568 210 q 516 499 568 444 q 382 553 464 553 z "},"c":{"ha":668,"x_min":61,"x_max":611,"o":"m 415 551 q 333 537 371 551 q 269 493 296 522 q 226 422 242 464 q 210 324 210 379 q 267 156 210 214 q 415 99 324 99 q 506 113 468 99 q 571 146 543 126 q 600 119 589 135 q 611 82 611 104 q 555 10 611 39 q 407 -19 499 -19 q 267 1 331 -19 q 158 65 204 22 q 87 173 113 108 q 61 324 61 238 q 88 475 61 410 q 162 583 115 540 q 271 648 208 626 q 403 669 333 669 q 485 661 449 669 q 549 638 522 653 q 590 605 575 624 q 604 565 604 586 q 594 530 604 546 q 568 506 583 514 q 503 538 539 524 q 415 551 468 551 z "},"d":{"ha":775,"x_min":61,"x_max":676,"o":"m 388 669 q 466 660 429 669 q 531 638 503 651 l 531 901 q 558 908 540 904 q 597 913 576 913 q 657 897 638 913 q 676 846 676 882 l 676 118 q 664 70 676 89 q 625 35 651 51 q 538 -3 593 14 q 413 -19 483 -19 q 268 1 333 -19 q 157 63 203 21 q 86 170 111 106 q 61 322 61 235 q 87 478 61 413 q 157 587 113 544 q 260 649 201 629 q 388 669 319 669 m 532 515 q 476 542 508 531 q 406 553 444 553 q 328 540 364 553 q 267 499 293 528 q 225 427 240 471 q 210 321 210 383 q 265 151 210 204 q 411 99 319 99 q 481 108 453 99 q 532 129 510 117 l 532 515 z "},"e":{"ha":732,"x_min":61,"x_max":679,"o":"m 208 251 q 284 134 228 172 q 428 96 340 96 q 535 114 486 96 q 613 153 583 132 q 651 90 651 131 q 633 47 651 67 q 584 12 615 26 q 510 -11 553 -3 q 419 -19 468 -19 q 273 3 339 -19 q 160 69 207 25 q 87 179 113 114 q 61 331 61 244 q 86 477 61 414 q 154 583 111 540 q 256 647 197 625 q 381 669 314 669 q 502 648 447 669 q 597 588 557 626 q 658 497 636 550 q 679 382 679 444 q 663 331 679 347 q 614 310 646 315 l 208 251 m 381 557 q 253 506 304 557 q 200 358 203 454 l 542 407 q 496 513 536 469 q 381 557 456 557 z "},"f":{"ha":567,"x_min":99,"x_max":542,"o":"m 239 610 l 501 610 q 512 587 507 601 q 517 553 517 572 q 464 494 517 494 l 243 494 l 243 3 q 216 -5 233 -1 q 178 -8 199 -8 q 118 7 138 -8 q 99 58 99 22 l 99 692 q 117 801 99 756 q 171 876 136 847 q 255 919 206 906 q 364 933 304 933 q 496 911 450 933 q 542 849 542 889 q 534 815 542 829 q 515 789 526 800 q 454 808 489 800 q 383 817 419 817 q 272 786 306 817 q 239 686 239 756 l 239 610 z "},"g":{"ha":757,"x_min":63,"x_max":663,"o":"m 521 61 q 456 33 494 44 q 365 22 418 22 q 249 40 304 22 q 153 95 194 57 q 87 194 111 133 q 63 344 63 256 q 87 485 63 425 q 155 587 111 546 q 259 649 199 628 q 393 669 319 669 q 519 652 461 669 q 613 611 576 635 q 649 576 636 596 q 663 529 663 557 l 663 -18 q 638 -137 663 -87 q 572 -219 614 -187 q 471 -265 529 -250 q 346 -279 413 -279 q 224 -265 275 -279 q 149 -237 172 -251 q 106 -168 106 -211 q 115 -128 106 -144 q 140 -103 125 -112 q 225 -143 172 -125 q 338 -161 278 -161 q 473 -126 425 -161 q 521 -11 521 -90 l 521 61 m 386 136 q 465 150 433 136 q 519 183 497 164 l 519 519 q 468 542 499 532 q 396 553 438 553 q 260 501 311 553 q 208 346 208 450 q 222 249 208 289 q 260 183 236 208 q 316 147 283 158 q 386 136 349 136 z "},"h":{"ha":778,"x_min":99,"x_max":682,"o":"m 538 406 q 497 517 538 482 q 389 553 456 553 q 308 538 344 553 q 243 503 271 524 l 243 3 q 216 -5 233 -1 q 178 -8 199 -8 q 118 7 138 -8 q 99 58 99 22 l 99 901 q 126 908 108 904 q 165 913 144 913 q 224 897 206 913 q 243 846 243 882 l 243 626 q 317 656 275 643 q 413 669 360 669 q 608 606 533 669 q 682 411 682 542 l 682 3 q 654 -5 672 -1 q 617 -8 636 -8 q 556 7 575 -8 q 538 58 538 22 l 538 406 l 538 406 z "},"i":{"ha":350,"x_min":86,"x_max":261,"o":"m 247 3 q 220 -5 238 -1 q 181 -8 203 -8 q 121 7 140 -8 q 101 58 101 22 l 101 646 q 130 653 113 649 q 169 657 147 657 q 228 642 210 657 q 247 589 247 626 l 247 3 m 86 850 q 111 910 86 886 q 175 935 136 935 q 238 910 214 935 q 261 850 261 886 q 238 790 261 814 q 175 765 214 765 q 111 790 136 765 q 86 850 86 814 z "},"j":{"ha":354,"x_min":3,"x_max":264,"o":"m 253 -49 q 236 -153 253 -111 q 194 -222 219 -196 q 140 -260 169 -249 q 86 -271 111 -271 q 25 -247 44 -271 q 3 -186 6 -222 q 47 -162 28 -175 q 80 -132 67 -150 q 100 -89 93 -114 q 107 -28 107 -64 l 107 646 q 135 653 117 649 q 174 657 153 657 q 233 642 214 657 q 253 589 253 626 l 253 -49 m 90 850 q 115 910 90 886 q 178 935 139 935 q 240 910 217 935 q 264 850 264 886 q 240 790 264 814 q 178 765 217 765 q 115 790 139 765 q 90 850 90 814 z "},"k":{"ha":703,"x_min":99,"x_max":661,"o":"m 243 3 q 216 -5 233 -1 q 178 -8 199 -8 q 118 7 138 -8 q 99 58 99 22 l 99 901 q 126 908 108 904 q 165 913 144 913 q 224 897 206 913 q 243 846 243 882 l 243 381 l 529 663 q 599 642 574 661 q 625 592 625 622 q 608 547 625 567 q 560 500 592 528 l 375 338 l 661 76 q 637 13 657 36 q 581 -10 617 -10 q 531 4 553 -10 q 485 46 510 18 l 243 301 l 243 3 l 243 3 z "},"l":{"ha":356,"x_min":106,"x_max":251,"o":"m 185 -8 q 125 7 144 -8 q 106 58 106 22 l 106 901 q 133 908 115 904 q 172 913 151 913 q 232 897 213 913 q 251 846 251 882 l 251 3 q 223 -5 240 -1 q 185 -8 206 -8 z "},"m":{"ha":1146,"x_min":96,"x_max":1050,"o":"m 904 435 q 870 524 904 496 q 778 553 836 553 q 703 538 739 553 q 639 499 668 524 q 643 475 642 488 q 644 450 644 463 l 644 3 q 617 -5 635 -1 q 579 -8 599 -8 q 519 7 539 -8 q 500 58 500 22 l 500 435 q 465 524 500 496 q 372 553 431 553 q 299 540 333 553 q 240 513 264 528 l 240 3 q 213 -5 231 -1 q 175 -8 196 -8 q 115 7 135 -8 q 96 58 96 22 l 96 517 q 108 568 96 549 q 150 607 121 588 q 251 651 190 633 q 375 669 313 669 q 492 651 440 669 q 578 599 544 633 q 670 649 617 629 q 794 669 724 669 q 896 656 849 669 q 977 615 943 643 q 1031 543 1011 586 q 1050 440 1050 500 l 1050 3 q 1022 -5 1039 -1 q 983 -8 1004 -8 q 924 7 943 -8 q 904 58 904 22 l 904 435 l 904 435 z "},"n":{"ha":776,"x_min":96,"x_max":681,"o":"m 535 421 q 497 521 535 489 q 393 553 458 553 q 306 540 344 553 q 240 513 268 528 l 240 3 q 213 -5 231 -1 q 175 -8 196 -8 q 115 7 135 -8 q 96 58 96 22 l 96 517 q 108 568 96 549 q 150 607 121 588 q 251 650 189 631 q 393 669 314 669 q 604 609 528 669 q 681 426 681 549 l 681 3 q 653 -5 671 -1 q 614 -8 635 -8 q 554 7 574 -8 q 535 58 535 22 l 535 421 l 535 421 z "},"o":{"ha":781,"x_min":61,"x_max":719,"o":"m 719 325 q 696 182 719 246 q 630 74 672 118 q 526 5 588 29 q 390 -19 465 -19 q 254 5 315 -19 q 151 74 193 29 q 85 182 108 118 q 61 325 61 246 q 85 468 61 404 q 151 576 108 532 q 256 645 194 621 q 390 669 317 669 q 525 645 464 669 q 629 576 586 621 q 696 467 672 531 q 719 325 719 404 m 390 553 q 258 493 307 553 q 210 325 210 433 q 257 158 210 217 q 390 99 304 99 q 524 158 476 99 q 571 325 571 217 q 523 492 571 432 q 390 553 475 553 z "},"p":{"ha":774,"x_min":96,"x_max":713,"o":"m 390 -19 q 307 -10 346 -19 q 240 13 268 -1 l 240 -249 q 213 -256 231 -253 q 175 -260 196 -260 q 115 -244 135 -260 q 96 -192 96 -229 l 96 526 q 107 576 96 557 q 149 613 118 594 q 244 652 188 635 q 371 669 300 669 q 506 649 443 669 q 614 588 568 629 q 686 481 660 546 q 713 328 713 417 q 688 176 713 240 q 622 67 664 111 q 520 2 579 24 q 390 -19 461 -19 m 368 99 q 511 153 458 99 q 564 328 564 208 q 549 432 564 389 q 508 502 533 475 q 447 541 482 529 q 371 553 411 553 q 295 542 326 553 q 240 518 264 532 l 240 136 q 296 109 264 119 q 368 99 328 99 z "},"q":{"ha":774,"x_min":61,"x_max":678,"o":"m 678 -253 q 650 -260 668 -257 q 611 -264 632 -264 q 551 -249 571 -264 q 532 -196 532 -233 l 532 14 q 468 -10 504 0 q 385 -19 432 -19 q 255 1 314 -19 q 153 63 196 21 q 85 170 110 106 q 61 322 61 235 q 87 475 61 410 q 158 583 113 540 q 267 648 204 626 q 406 669 331 669 q 534 652 476 669 q 628 613 592 635 q 665 578 651 597 q 678 529 678 558 l 678 -253 m 406 99 q 477 110 444 99 q 533 138 510 121 l 533 519 q 481 542 513 532 q 410 553 450 553 q 331 540 367 553 q 267 499 294 526 q 225 427 240 471 q 210 322 210 383 q 263 151 210 204 q 406 99 315 99 z "},"r":{"ha":542,"x_min":96,"x_max":517,"o":"m 240 3 q 213 -5 231 -1 q 175 -8 196 -8 q 115 7 135 -8 q 96 58 96 22 l 96 514 q 110 570 96 549 q 154 611 124 592 q 257 653 194 636 q 394 669 319 669 q 517 600 517 669 q 511 569 517 583 q 499 543 506 554 q 464 549 485 546 q 419 551 443 551 q 318 540 364 551 q 240 510 272 528 l 240 3 z "},"s":{"ha":638,"x_min":63,"x_max":581,"o":"m 581 179 q 511 33 581 86 q 310 -19 442 -19 q 210 -11 256 -19 q 131 13 164 -3 q 81 49 99 28 q 63 94 63 69 q 73 133 63 115 q 101 163 83 151 q 190 117 140 138 q 307 96 240 96 q 403 117 369 96 q 436 179 436 139 q 413 235 436 214 q 346 267 390 256 l 251 292 q 113 360 157 317 q 68 478 68 403 q 85 553 68 518 q 134 615 101 589 q 215 655 167 640 q 326 669 264 669 q 417 662 376 669 q 488 641 458 654 q 535 608 518 628 q 551 567 551 589 q 542 528 551 544 q 517 503 532 513 q 442 536 492 518 q 336 554 393 554 q 244 534 278 554 q 211 478 211 514 q 230 432 211 450 q 294 403 249 414 l 375 382 q 531 307 481 354 q 581 179 581 260 z "},"t":{"ha":526,"x_min":97,"x_max":474,"o":"m 242 190 q 271 119 242 140 q 353 99 300 99 q 403 106 376 99 q 449 122 429 113 q 466 97 458 111 q 474 64 474 83 q 437 4 474 28 q 325 -19 400 -19 q 159 27 221 -19 q 97 181 97 74 l 97 829 q 125 836 107 832 q 164 840 143 840 q 223 825 204 840 q 242 774 242 810 l 242 636 l 457 636 q 467 613 463 628 q 472 581 472 597 q 421 521 472 521 l 242 521 l 242 190 l 242 190 z "},"u":{"ha":776,"x_min":96,"x_max":681,"o":"m 96 649 q 124 655 106 651 q 163 658 142 658 q 222 643 203 658 q 240 590 240 628 l 240 247 q 283 133 240 167 q 400 99 325 99 q 482 108 449 99 q 535 129 515 118 l 535 649 q 563 655 546 651 q 601 658 581 658 q 661 643 642 658 q 681 590 681 628 l 681 122 q 671 72 681 92 q 632 35 661 53 q 537 -3 596 14 q 399 -19 478 -19 q 176 44 256 -19 q 96 244 96 107 l 96 649 z "},"v":{"ha":707,"x_min":38,"x_max":661,"o":"m 592 664 q 642 649 622 664 q 661 603 661 635 q 651 547 661 586 q 622 454 640 507 q 582 340 604 401 q 535 219 560 279 q 485 103 510 158 q 440 10 461 49 q 407 -3 429 3 q 357 -10 385 -10 q 268 28 289 -10 q 217 137 249 63 q 151 299 185 211 q 87 476 118 388 q 38 628 56 564 q 71 653 50 643 q 115 664 92 664 q 166 649 147 664 q 196 599 185 635 l 272 360 q 292 301 281 333 q 314 237 303 269 q 336 174 325 204 q 354 124 347 144 l 361 124 q 451 387 408 254 q 526 649 494 519 q 592 664 553 664 z "},"w":{"ha":1036,"x_min":49,"x_max":985,"o":"m 521 450 q 485 327 504 389 q 448 207 467 265 q 412 99 429 149 q 381 11 394 49 q 347 -4 367 1 q 299 -10 328 -10 q 242 0 267 -10 q 208 31 217 10 q 169 138 192 64 q 125 299 147 211 q 82 475 103 386 q 49 631 61 564 q 80 653 60 643 q 125 664 100 664 q 200 593 188 664 q 227 450 213 522 q 256 315 242 378 q 281 202 269 251 q 299 128 293 153 l 304 128 q 326 201 311 153 q 359 310 340 249 q 400 444 378 372 q 446 586 422 515 q 522 606 478 606 q 576 594 554 606 q 604 563 597 583 q 647 426 626 493 q 685 300 668 358 q 716 197 703 242 q 736 128 729 153 l 743 128 q 801 381 771 247 q 853 647 832 514 q 883 659 867 654 q 917 664 900 664 q 966 650 947 664 q 985 606 985 636 q 976 544 985 588 q 953 444 968 501 q 922 322 939 386 q 887 197 904 257 q 853 88 869 138 q 825 11 836 38 q 792 -3 814 3 q 742 -10 769 -10 q 656 25 668 -10 q 626 107 643 58 q 592 212 610 156 q 556 329 574 268 q 521 450 538 390 z "},"x":{"ha":685,"x_min":51,"x_max":642,"o":"m 92 132 q 174 233 132 183 q 256 332 215 282 q 153 460 203 399 q 51 585 104 521 q 78 640 58 619 q 129 661 99 661 q 175 646 158 661 q 211 606 192 631 q 277 515 243 563 q 347 419 311 467 q 438 537 394 481 q 526 660 481 593 q 544 661 533 661 q 606 643 583 661 q 628 597 628 625 q 619 559 628 576 q 588 514 610 542 q 510 422 550 468 q 433 331 471 376 l 642 63 q 617 10 638 29 q 564 -10 596 -10 q 515 7 533 -10 q 472 53 496 24 q 406 145 440 97 q 340 239 372 193 q 249 116 294 178 q 160 -8 203 54 l 138 -8 q 73 10 94 -8 q 51 54 51 28 q 60 88 51 72 q 92 132 68 104 z "},"y":{"ha":703,"x_min":38,"x_max":660,"o":"m 219 151 q 135 344 185 219 q 38 628 85 469 q 71 653 50 643 q 115 664 92 664 q 165 649 146 664 q 197 599 185 635 q 275 377 235 486 q 364 151 315 268 l 369 151 q 412 256 390 196 q 454 382 433 315 q 493 517 475 449 q 525 649 511 586 q 553 660 539 656 q 588 664 568 664 q 639 649 618 664 q 660 604 660 635 q 641 494 660 568 q 592 330 622 419 q 522 149 561 240 q 444 -14 483 57 q 319 -200 375 -136 q 213 -264 263 -264 q 151 -242 174 -264 q 122 -189 128 -221 q 171 -142 144 -169 q 224 -82 197 -114 q 274 -16 250 -50 q 314 50 297 18 q 268 77 290 57 q 219 151 246 97 z "},"z":{"ha":656,"x_min":58,"x_max":603,"o":"m 88 0 q 58 64 58 25 q 67 102 58 83 q 89 136 76 121 l 411 533 l 82 533 q 71 558 76 543 q 65 592 65 574 q 80 636 65 622 q 118 650 94 650 l 560 650 q 590 585 590 626 q 582 548 590 565 q 560 514 574 531 l 239 115 l 588 115 q 598 92 593 107 q 603 58 603 76 q 588 14 603 28 q 550 0 574 0 l 88 0 z "},"{":{"ha":411,"x_min":46,"x_max":371,"o":"m 199 379 q 267 311 243 356 q 290 196 290 267 l 290 22 q 310 -47 290 -26 q 367 -69 329 -67 q 371 -103 371 -89 q 301 -168 371 -168 q 198 -124 239 -168 q 157 7 157 -81 l 157 171 q 56 325 157 307 q 46 379 46 349 q 56 432 46 406 q 157 585 157 450 l 157 740 q 198 871 157 828 q 303 914 239 914 q 371 850 371 914 q 367 817 371 833 q 310 794 329 814 q 290 725 290 774 l 290 561 q 267 445 290 490 q 199 379 243 400 z "},"|":{"ha":360,"x_min":114,"x_max":246,"o":"m 246 -246 q 185 -256 219 -256 q 132 -242 150 -256 q 114 -189 114 -228 l 114 938 q 140 944 125 940 q 175 947 156 947 q 228 933 211 947 q 246 879 246 918 l 246 -246 z "},"}":{"ha":411,"x_min":40,"x_max":365,"o":"m 213 379 q 144 445 168 400 q 121 561 121 490 l 121 725 q 101 794 121 774 q 44 817 82 814 q 40 850 40 833 q 108 914 40 914 q 213 871 172 914 q 254 740 254 828 l 254 585 q 356 432 254 450 q 365 379 365 406 q 356 325 365 349 q 254 171 254 307 l 254 7 q 213 -124 254 -81 q 110 -168 172 -168 q 40 -103 40 -168 q 44 -69 40 -89 q 101 -47 82 -67 q 121 22 121 -26 l 121 196 q 144 311 121 267 q 213 379 168 356 z "},"~":{"ha":643,"x_min":32,"x_max":613,"o":"m 439 404 q 492 424 475 404 q 519 464 508 443 q 585 442 557 464 q 613 385 613 421 q 573 303 613 332 q 471 275 533 275 q 395 283 431 275 q 328 302 360 292 q 265 321 296 313 q 206 329 235 329 q 151 308 169 329 q 124 268 133 288 q 59 290 86 268 q 32 349 32 313 q 73 430 32 401 q 172 458 114 458 q 249 450 213 458 q 317 431 285 442 q 380 413 350 421 q 439 404 410 404 z "}," ":{"ha":278,"x_min":0,"x_max":0,"o":""},"¡":{"ha":365,"x_min":93,"x_max":279,"o":"m 110 -160 q 111 -56 110 -121 q 115 82 113 8 q 120 230 117 156 q 129 363 124 304 q 155 374 139 369 q 186 378 171 378 q 228 369 213 378 q 247 336 244 360 q 255 229 251 299 q 260 81 258 160 q 264 -76 263 3 q 265 -211 265 -154 q 183 -233 228 -233 q 129 -215 149 -233 q 110 -160 110 -197 m 279 564 q 254 498 279 524 q 186 472 229 472 q 117 498 142 472 q 93 564 93 524 q 117 631 93 604 q 186 657 142 657 q 254 631 229 657 q 279 564 279 604 z "},"¢":{"ha":667,"x_min":60,"x_max":610,"o":"m 415 551 q 267 493 326 551 q 208 324 208 435 q 265 156 208 214 q 414 99 322 99 q 506 113 468 99 q 571 146 543 126 q 599 119 589 135 q 610 82 610 104 q 563 15 610 42 q 436 -18 515 -12 l 436 -142 q 413 -147 428 -144 q 379 -150 397 -150 q 306 -89 306 -150 l 306 -8 q 126 98 193 15 q 60 324 60 181 q 78 451 60 394 q 130 549 97 507 q 208 618 163 590 q 306 658 253 646 l 306 794 q 330 800 314 797 q 364 803 346 803 q 436 742 436 803 l 436 668 q 558 632 513 661 q 604 565 604 603 q 593 530 604 546 q 567 506 582 514 q 503 538 539 524 q 415 551 468 551 z "},"£":{"ha":700,"x_min":68,"x_max":658,"o":"m 190 308 q 190 330 190 318 q 188 357 189 342 l 122 357 q 87 370 101 357 q 72 415 72 383 q 77 447 72 433 q 86 472 82 461 l 176 472 q 172 528 174 501 q 169 578 169 556 q 192 707 169 653 q 255 796 215 761 q 348 847 294 831 q 461 864 401 864 q 597 835 553 864 q 642 768 642 806 q 633 734 642 753 q 608 704 624 715 q 549 733 579 724 q 476 743 519 743 q 354 699 394 743 q 314 564 314 656 q 318 472 314 522 l 561 472 q 571 447 567 461 q 575 415 575 433 q 561 370 575 383 q 525 357 547 357 l 329 357 q 331 329 331 342 q 332 306 332 317 q 315 195 332 242 q 265 117 297 149 l 644 117 q 658 58 658 93 q 644 15 658 29 q 608 0 631 0 l 139 0 q 89 19 110 0 q 68 75 68 39 q 68 85 68 82 q 69 96 68 89 q 122 128 100 111 q 160 171 144 146 q 183 229 175 196 q 190 308 190 263 z "},"¤":{"ha":744,"x_min":82,"x_max":661,"o":"m 639 411 q 624 315 639 358 q 582 240 610 272 l 661 147 q 630 106 649 119 q 590 92 611 92 q 553 108 571 92 q 521 143 536 124 l 494 175 q 371 150 438 150 q 247 174 303 150 l 175 82 q 122 103 144 88 q 100 146 100 118 q 110 181 100 164 q 136 218 119 199 l 156 243 q 103 411 103 308 q 157 579 103 513 l 82 669 q 113 710 94 697 q 153 724 132 724 q 189 708 172 724 q 221 672 206 692 l 243 646 q 369 672 303 672 q 501 643 443 672 l 572 733 q 624 713 601 728 q 646 671 646 699 q 635 635 646 653 q 610 597 625 617 l 589 571 q 639 411 639 506 m 510 411 q 472 526 510 486 q 371 567 433 567 q 268 526 307 567 q 229 411 229 486 q 268 296 229 336 q 371 256 307 256 q 472 296 433 256 q 510 411 510 336 z "},"¥":{"ha":778,"x_min":50,"x_max":718,"o":"m 718 796 q 705 756 718 783 q 669 687 692 728 q 614 594 646 646 q 544 482 582 542 l 697 482 q 707 458 703 471 q 711 429 711 444 q 699 392 711 404 q 668 379 686 379 l 88 379 q 76 401 81 388 q 72 431 72 415 q 85 470 72 458 q 115 482 97 482 l 244 482 q 134 657 186 569 q 50 811 82 744 q 81 841 61 826 q 128 856 100 856 q 177 840 160 856 q 217 789 194 825 l 392 492 l 399 492 q 451 581 428 540 q 494 662 474 622 q 538 744 515 701 q 588 840 560 788 q 653 856 621 856 q 701 839 683 856 q 718 796 718 822 m 467 188 l 467 1 q 438 -5 457 -1 q 400 -8 419 -8 q 319 60 319 -8 l 319 188 l 88 188 q 76 210 81 196 q 72 240 72 225 q 85 280 72 269 q 114 290 97 290 l 696 290 q 704 267 700 282 q 708 239 708 253 q 697 200 708 213 q 667 188 685 188 l 467 188 z "},"¦":{"ha":407,"x_min":114,"x_max":246,"o":"m 246 432 q 185 422 219 422 q 132 436 150 422 q 114 489 114 450 l 114 938 q 175 947 140 947 q 228 933 211 947 q 246 881 246 919 l 246 432 m 246 -246 q 185 -256 219 -256 q 132 -242 150 -256 q 114 -189 114 -228 l 114 260 q 175 269 140 269 q 228 256 211 269 q 246 203 246 242 l 246 -246 z "},"§":{"ha":717,"x_min":81,"x_max":636,"o":"m 636 392 q 616 312 636 347 q 567 253 596 276 q 618 199 600 231 q 636 119 636 167 q 563 -21 636 29 q 346 -71 489 -71 q 240 -62 289 -71 q 156 -39 192 -54 q 101 -3 121 -24 q 81 43 81 18 q 91 83 81 67 q 119 110 101 99 q 218 63 164 82 q 343 43 272 43 q 493 121 493 43 q 469 169 493 153 q 389 197 444 186 l 275 221 q 135 281 188 239 q 82 408 82 324 q 101 487 82 454 q 156 542 121 519 q 106 597 124 564 q 88 678 88 629 q 158 815 88 767 q 351 864 228 864 q 447 857 403 864 q 523 836 490 850 q 574 803 556 822 q 593 763 593 785 q 583 725 593 740 q 560 700 574 710 q 472 734 526 718 q 358 750 418 750 q 265 731 299 750 q 231 675 231 713 q 253 628 231 643 q 318 604 275 613 l 424 585 q 578 521 521 567 q 636 392 636 475 m 314 328 q 386 312 361 317 q 423 304 411 307 q 438 301 435 301 q 449 299 442 300 q 485 335 472 314 q 497 386 497 357 q 389 474 497 453 l 275 496 q 271 497 272 496 q 267 497 269 497 q 221 413 221 467 q 314 328 221 347 z "},"¨":{"ha":519,"x_min":54,"x_max":474,"o":"m 217 851 q 194 794 217 818 q 135 771 171 771 q 76 794 99 771 q 54 851 54 818 q 76 907 54 883 q 135 931 99 931 q 194 907 171 931 q 217 851 217 883 m 474 851 q 451 794 474 818 q 392 771 428 771 q 333 794 356 771 q 310 851 310 818 q 333 907 310 883 q 392 931 356 931 q 451 907 428 931 q 474 851 474 883 z "},"©":{"ha":990,"x_min":68,"x_max":922,"o":"m 68 418 q 99 588 68 508 q 185 725 129 667 q 319 817 242 783 q 493 850 397 850 q 667 817 588 850 q 803 725 746 783 q 891 588 860 667 q 922 418 922 508 q 891 252 922 329 q 803 119 860 175 q 667 30 746 63 q 493 -3 588 -3 q 319 30 397 -3 q 185 119 242 63 q 99 252 129 175 q 68 418 68 329 m 493 761 q 358 735 418 761 q 257 665 299 710 q 193 556 215 619 q 171 418 171 493 q 193 283 171 344 q 257 178 215 222 q 358 110 299 135 q 493 86 418 86 q 628 110 568 86 q 729 178 688 135 q 793 283 771 222 q 815 418 815 344 q 793 556 815 493 q 729 665 771 619 q 628 735 688 710 q 493 761 568 761 m 531 565 q 480 557 504 565 q 437 531 456 549 q 407 487 418 514 q 396 424 396 460 q 435 318 396 354 q 533 282 474 282 q 590 291 568 282 q 628 311 611 300 q 657 260 657 290 q 622 210 657 233 q 519 188 586 188 q 426 203 469 188 q 351 249 383 218 q 301 323 319 279 q 282 425 282 367 q 303 531 282 486 q 357 604 324 575 q 431 647 390 633 q 513 661 472 661 q 612 640 574 661 q 650 583 650 618 q 642 558 650 571 q 622 538 633 544 q 582 556 604 547 q 531 565 560 565 z "},"ª":{"ha":490,"x_min":47,"x_max":424,"o":"m 238 500 q 287 506 264 500 q 321 518 310 511 l 321 618 l 235 610 q 150 558 150 601 q 238 500 150 500 m 233 863 q 370 828 317 863 q 424 706 424 793 l 424 494 q 413 468 424 479 q 388 447 403 457 q 238 417 329 417 q 99 450 150 417 q 47 553 47 483 q 88 647 47 615 q 207 686 128 679 l 321 697 l 321 707 q 297 763 321 747 q 224 778 272 778 q 152 768 188 778 q 93 743 117 758 q 76 763 83 750 q 68 790 68 775 q 76 818 68 808 q 101 836 85 828 q 161 855 125 847 q 233 863 197 863 z "},"«":{"ha":692,"x_min":46,"x_max":639,"o":"m 353 118 q 336 71 353 92 q 285 50 319 50 q 246 63 264 50 q 211 93 228 75 l 63 254 q 46 311 46 278 q 53 354 46 339 q 72 381 61 369 l 274 588 q 326 562 308 579 q 343 522 343 544 q 333 485 343 501 q 299 444 324 469 l 167 311 l 353 118 m 639 118 q 622 71 639 92 q 572 50 606 50 q 532 63 550 50 q 499 93 514 75 l 349 254 q 333 311 333 276 q 340 354 333 339 q 358 381 347 369 l 561 588 q 612 562 594 579 q 629 522 629 544 q 619 485 629 501 q 585 444 610 469 l 454 311 l 639 118 z "},"¬":{"ha":747,"x_min":63,"x_max":683,"o":"m 617 557 q 665 540 647 557 q 683 490 683 522 l 683 253 q 619 243 657 243 q 565 257 583 243 q 547 311 547 271 l 547 442 l 76 442 q 67 467 71 453 q 63 497 63 481 q 78 542 63 528 q 119 557 93 557 l 617 557 z "},"­":{"ha":526,"x_min":65,"x_max":461,"o":"m 81 300 q 69 326 74 311 q 65 358 65 340 q 81 404 65 389 q 125 419 97 419 l 447 419 q 456 394 451 408 q 461 363 461 379 q 446 316 461 332 q 403 300 431 300 l 81 300 z "},"®":{"ha":860,"x_min":72,"x_max":788,"o":"m 72 522 q 98 658 72 594 q 170 769 124 721 q 283 844 217 817 q 429 872 349 872 q 574 844 508 872 q 687 769 639 817 q 761 658 735 721 q 788 522 788 594 q 761 386 788 450 q 687 275 735 322 q 574 200 639 228 q 429 172 508 172 q 283 200 349 172 q 170 275 217 228 q 98 386 124 322 q 72 522 72 450 m 163 522 q 181 414 163 464 q 235 328 200 364 q 319 272 271 292 q 429 251 368 251 q 538 272 489 251 q 623 328 588 292 q 677 414 658 364 q 696 522 696 464 q 677 630 696 581 q 623 716 658 679 q 538 773 588 753 q 429 793 489 793 q 319 773 368 793 q 235 716 271 753 q 181 630 200 679 q 163 522 163 581 m 392 481 l 392 371 q 374 369 385 369 q 351 368 364 368 q 322 374 332 368 q 311 403 311 381 l 311 661 q 339 686 311 679 q 377 693 358 692 q 418 694 396 694 q 526 667 489 694 q 563 588 563 639 q 543 528 563 551 q 496 493 524 504 l 572 397 q 556 375 569 383 q 528 367 543 367 q 500 375 511 367 q 478 399 489 383 l 422 481 l 392 481 m 429 543 q 481 589 481 543 q 465 621 481 610 q 424 632 450 632 q 406 631 414 632 q 392 629 399 631 l 392 543 l 429 543 z "},"¯":{"ha":469,"x_min":35,"x_max":435,"o":"m 51 789 q 40 815 46 800 q 35 846 35 829 q 49 891 35 878 q 88 904 64 904 l 418 904 q 435 847 435 881 q 421 802 435 815 q 382 789 407 789 l 51 789 z "},"°":{"ha":500,"x_min":46,"x_max":456,"o":"m 456 674 q 440 594 456 629 q 396 535 424 560 q 331 498 368 511 q 251 485 293 485 q 169 499 207 485 q 103 538 131 513 q 61 597 76 563 q 46 674 46 632 q 62 752 46 717 q 106 812 78 788 q 171 849 133 836 q 250 863 208 863 q 329 849 292 863 q 395 812 367 836 q 440 753 424 788 q 456 674 456 718 m 250 767 q 188 743 215 767 q 161 674 161 719 q 188 603 161 628 q 250 579 214 579 q 313 603 286 579 q 339 674 339 628 q 312 743 339 719 q 250 767 285 767 z "},"±":{"ha":760,"x_min":86,"x_max":674,"o":"m 449 557 l 661 557 q 669 532 665 546 q 674 500 674 518 q 615 440 674 440 l 449 440 l 449 224 q 422 217 438 221 q 388 214 406 214 q 334 228 351 214 q 317 282 317 242 l 317 440 l 99 440 q 90 465 93 451 q 86 496 86 479 q 101 542 86 526 q 144 557 117 557 l 317 557 l 317 767 q 344 774 328 771 q 379 778 360 778 q 431 763 414 778 q 449 710 449 749 l 449 557 m 99 0 q 90 25 93 11 q 86 56 86 39 q 101 101 86 86 q 144 117 117 117 l 661 117 q 669 92 665 106 q 674 60 674 78 q 615 0 674 0 l 99 0 z "},"²":{"ha":385,"x_min":32,"x_max":344,"o":"m 172 969 q 291 933 247 969 q 335 829 335 896 q 310 747 335 786 q 231 664 286 708 l 146 594 l 335 594 q 344 556 344 578 q 304 515 344 515 l 54 515 q 32 565 32 535 q 38 599 32 586 q 53 621 43 613 l 168 724 q 221 780 204 756 q 238 828 238 804 q 217 874 238 858 q 165 889 197 889 q 114 879 138 889 q 72 856 90 869 q 54 873 61 863 q 47 901 47 883 q 83 951 47 932 q 172 969 119 969 z "},"³":{"ha":383,"x_min":22,"x_max":343,"o":"m 182 782 q 224 795 208 782 q 240 832 240 808 q 219 874 240 858 q 158 889 197 889 q 103 880 128 889 q 61 860 78 871 q 43 879 50 868 q 36 907 36 890 q 76 953 36 936 q 171 969 115 969 q 293 935 250 969 q 336 842 336 900 q 319 784 336 810 q 271 746 301 758 q 323 706 303 735 q 343 639 343 678 q 294 538 343 571 q 169 504 244 504 q 63 525 104 504 q 22 576 22 546 q 31 606 22 593 q 53 625 39 618 q 97 599 71 611 q 163 586 124 586 q 224 601 201 586 q 247 647 247 617 q 230 688 247 672 q 182 704 213 704 l 107 704 q 98 722 101 711 q 94 743 94 732 q 107 782 94 767 l 182 782 z "},"´":{"ha":414,"x_min":96,"x_max":344,"o":"m 256 979 q 321 958 297 978 q 344 914 344 938 q 335 876 344 890 q 301 840 325 861 l 174 721 q 117 740 138 721 q 96 781 96 758 q 102 806 96 794 q 119 828 108 817 l 256 979 z "},"µ":{"ha":778,"x_min":97,"x_max":683,"o":"m 243 247 q 286 133 243 167 q 401 99 329 99 q 484 108 450 99 q 538 129 518 118 l 538 649 q 565 655 547 651 q 604 658 582 658 q 664 643 644 658 q 683 590 683 628 l 683 122 q 674 72 683 92 q 635 35 664 53 q 549 -2 603 15 q 421 -19 496 -19 q 310 -3 358 -19 q 231 46 263 13 q 240 -53 236 1 q 243 -164 243 -107 l 243 -246 q 216 -254 233 -250 q 178 -258 199 -258 q 117 -243 138 -258 q 97 -192 97 -228 l 97 649 q 125 655 107 651 q 164 658 143 658 q 224 643 204 658 q 243 590 243 628 l 243 247 l 243 247 z "},"¶":{"ha":654,"x_min":21,"x_max":563,"o":"m 483 851 q 542 839 521 851 q 563 782 563 826 l 563 -96 q 535 -102 554 -99 q 497 -106 517 -106 q 438 -92 460 -106 q 417 -37 417 -78 l 417 728 l 325 728 l 325 365 q 306 336 325 347 q 244 325 286 325 q 164 340 204 325 q 92 387 124 356 q 40 466 60 418 q 21 581 21 514 q 44 700 21 649 q 108 785 68 751 q 201 835 149 818 q 311 851 254 851 l 483 851 z "},"·":{"ha":233,"x_min":25,"x_max":208,"o":"m 25 357 q 49 424 25 397 q 117 450 74 450 q 185 424 161 450 q 208 357 208 397 q 185 290 208 317 q 117 264 161 264 q 49 290 74 264 q 25 357 25 317 z "},"¸":{"ha":271,"x_min":-4,"x_max":239,"o":"m 160 32 q 221 -35 203 4 q 239 -118 239 -74 q 197 -227 239 -186 q 83 -268 154 -268 q 19 -251 43 -268 q -4 -201 -4 -233 q -3 -183 -4 -193 q 3 -165 -1 -174 l 22 -165 q 92 -144 71 -165 q 114 -87 114 -124 q 105 -42 114 -68 q 75 4 96 -17 l 160 32 z "},"¹":{"ha":297,"x_min":19,"x_max":226,"o":"m 132 857 l 56 824 q 31 843 42 831 q 19 875 19 856 q 56 921 19 906 l 157 964 l 175 964 q 226 910 226 964 l 226 518 q 206 513 218 515 q 182 510 194 510 q 145 519 158 510 q 132 556 132 528 l 132 857 z "},"º":{"ha":532,"x_min":54,"x_max":475,"o":"m 475 639 q 417 474 475 531 q 265 417 360 417 q 113 474 171 417 q 54 640 54 532 q 113 806 54 749 q 265 863 172 863 q 417 804 360 863 q 475 639 475 746 m 265 775 q 189 740 217 775 q 161 640 161 704 q 189 540 161 575 q 265 506 217 506 q 340 540 313 506 q 368 639 368 574 q 341 739 368 703 q 265 775 314 775 z "},"»":{"ha":692,"x_min":53,"x_max":646,"o":"m 339 518 q 356 566 339 544 q 406 588 372 588 q 446 575 428 588 q 479 544 464 563 l 629 383 q 646 326 646 360 q 638 283 646 299 q 619 256 631 267 l 417 50 q 366 76 383 58 q 349 115 349 93 q 358 151 349 136 q 393 193 368 167 l 524 326 l 339 518 m 53 518 q 69 566 53 544 q 119 588 86 588 q 160 575 142 588 q 193 544 178 563 l 343 383 q 354 358 350 372 q 358 326 358 343 q 351 283 358 299 q 332 256 344 267 l 129 50 q 79 76 96 58 q 63 115 63 93 q 72 151 63 136 q 107 193 81 167 l 238 326 l 53 518 z "},"¿":{"ha":653,"x_min":49,"x_max":613,"o":"m 481 357 q 508 324 496 344 q 519 279 519 304 q 458 215 519 231 l 358 190 q 242 132 282 171 q 201 31 201 93 q 244 -66 201 -25 q 376 -107 286 -107 q 487 -90 432 -107 q 574 -49 542 -74 q 602 -80 592 -62 q 613 -121 613 -97 q 594 -167 613 -146 q 542 -202 575 -187 q 464 -225 510 -217 q 364 -233 418 -233 q 233 -214 292 -233 q 134 -160 175 -194 q 71 -76 93 -125 q 49 29 49 -28 q 122 219 49 147 q 343 325 196 290 l 481 357 m 504 564 q 479 497 504 524 q 411 471 454 471 q 343 497 368 471 q 318 564 318 524 q 343 631 318 604 q 411 657 368 657 q 479 631 454 657 q 504 564 504 604 z "},"À":{"ha":836,"x_min":39,"x_max":800,"o":"m 585 211 l 246 211 l 178 -1 q 151 -10 165 -7 q 118 -12 138 -12 q 61 3 83 -12 q 39 49 39 18 q 43 78 39 64 q 54 111 47 93 q 105 262 72 169 q 174 457 138 354 q 249 659 211 560 q 314 829 286 758 q 357 845 328 838 q 417 853 386 853 q 489 842 457 853 q 532 803 521 831 q 599 623 563 724 q 671 415 635 522 q 740 206 707 308 q 800 19 774 103 q 767 -3 788 6 q 719 -12 747 -12 q 665 2 682 -12 q 638 51 649 17 l 585 211 m 415 724 q 385 639 401 686 q 350 540 368 592 q 314 434 332 488 q 279 331 296 381 l 553 331 q 516 442 535 386 q 480 550 497 499 q 447 647 463 601 q 422 724 432 692 l 415 724 m 231 1056 q 229 1067 229 1061 q 229 1076 229 1072 q 247 1125 229 1107 q 292 1143 264 1143 q 356 1111 328 1143 l 474 976 q 454 932 471 947 q 414 917 438 917 q 382 924 394 917 q 354 943 369 931 l 231 1056 z "},"Á":{"ha":836,"x_min":39,"x_max":800,"o":"m 585 211 l 246 211 l 178 -1 q 151 -10 165 -7 q 118 -12 138 -12 q 61 3 83 -12 q 39 49 39 18 q 43 78 39 64 q 54 111 47 93 q 105 262 72 169 q 174 457 138 354 q 249 659 211 560 q 314 829 286 758 q 357 845 328 838 q 417 853 386 853 q 489 842 457 853 q 532 803 521 831 q 599 623 563 724 q 671 415 635 522 q 740 206 707 308 q 800 19 774 103 q 767 -3 788 6 q 719 -12 747 -12 q 665 2 682 -12 q 638 51 649 17 l 585 211 m 415 724 q 385 639 401 686 q 350 540 368 592 q 314 434 332 488 q 279 331 296 381 l 553 331 q 516 442 535 386 q 480 550 497 499 q 447 647 463 601 q 422 724 432 692 l 415 724 m 526 1149 q 585 1129 564 1147 q 606 1086 606 1111 q 596 1049 606 1064 q 563 1015 586 1035 l 439 917 q 385 933 404 918 q 367 969 367 947 q 390 1018 367 996 l 526 1149 z "},"Â":{"ha":836,"x_min":39,"x_max":800,"o":"m 424 1036 q 365 977 397 1010 q 296 911 332 944 q 247 929 267 914 q 228 968 228 944 q 239 1003 228 989 q 272 1038 250 1018 l 343 1106 q 425 1143 385 1143 q 471 1133 451 1143 q 511 1101 490 1122 l 624 976 q 608 931 624 947 q 564 915 592 915 q 528 926 544 915 q 489 963 513 936 l 424 1036 m 585 211 l 246 211 l 178 -1 q 151 -10 165 -7 q 118 -12 138 -12 q 61 3 83 -12 q 39 49 39 18 q 43 78 39 64 q 54 111 47 93 q 105 262 72 169 q 174 457 138 354 q 249 659 211 560 q 314 829 286 758 q 357 845 328 838 q 417 853 386 853 q 489 842 457 853 q 532 803 521 831 q 599 623 563 724 q 671 415 635 522 q 740 206 707 308 q 800 19 774 103 q 767 -3 788 6 q 719 -12 747 -12 q 665 2 682 -12 q 638 51 649 17 l 585 211 m 415 724 q 385 639 401 686 q 350 540 368 592 q 314 434 332 488 q 279 331 296 381 l 553 331 q 516 442 535 386 q 480 550 497 499 q 447 647 463 601 q 422 724 432 692 l 415 724 z "},"Ã":{"ha":836,"x_min":39,"x_max":800,"o":"m 585 211 l 246 211 l 178 -1 q 151 -10 165 -7 q 118 -12 138 -12 q 61 3 83 -12 q 39 49 39 18 q 43 78 39 64 q 54 111 47 93 q 105 262 72 169 q 174 457 138 354 q 249 659 211 560 q 314 829 286 758 q 357 845 328 838 q 417 853 386 853 q 489 842 457 853 q 532 803 521 831 q 599 623 563 724 q 671 415 635 522 q 740 206 707 308 q 800 19 774 103 q 767 -3 788 6 q 719 -12 747 -12 q 665 2 682 -12 q 638 51 649 17 l 585 211 m 415 724 q 385 639 401 686 q 350 540 368 592 q 314 434 332 488 q 279 331 296 381 l 553 331 q 516 442 535 386 q 480 550 497 499 q 447 647 463 601 q 422 724 432 692 l 415 724 m 321 1114 q 375 1107 350 1114 q 423 1091 400 1100 q 466 1075 446 1082 q 504 1068 486 1068 q 544 1084 531 1068 q 563 1119 557 1100 l 571 1119 q 624 1103 601 1119 q 646 1051 646 1086 q 615 981 646 1006 q 536 956 585 956 q 478 963 506 956 q 428 978 451 969 q 385 994 406 988 q 349 1001 365 1001 q 310 985 322 1001 q 292 949 297 969 l 283 949 q 230 966 253 949 q 207 1018 207 983 q 242 1089 207 1064 q 321 1114 276 1114 z "},"Ä":{"ha":836,"x_min":39,"x_max":800,"o":"m 585 211 l 246 211 l 178 -1 q 151 -10 165 -7 q 118 -12 138 -12 q 61 3 83 -12 q 39 49 39 18 q 43 78 39 64 q 54 111 47 93 q 105 262 72 169 q 174 457 138 354 q 249 659 211 560 q 314 829 286 758 q 357 845 328 838 q 417 853 386 853 q 489 842 457 853 q 532 803 521 831 q 599 623 563 724 q 671 415 635 522 q 740 206 707 308 q 800 19 774 103 q 767 -3 788 6 q 719 -12 747 -12 q 665 2 682 -12 q 638 51 649 17 l 585 211 m 415 724 q 385 639 401 686 q 350 540 368 592 q 314 434 332 488 q 279 331 296 381 l 553 331 q 516 442 535 386 q 480 550 497 499 q 447 647 463 601 q 422 724 432 692 l 415 724 m 372 1029 q 349 972 372 996 q 290 949 326 949 q 232 972 254 949 q 210 1029 210 996 q 232 1085 210 1061 q 290 1108 254 1108 q 349 1085 326 1108 q 372 1029 372 1061 m 629 1029 q 606 972 629 996 q 547 949 583 949 q 488 972 511 949 q 465 1029 465 996 q 488 1085 465 1061 q 547 1108 511 1108 q 606 1085 583 1108 q 629 1029 629 1061 z "},"Å":{"ha":836,"x_min":39,"x_max":800,"o":"m 585 211 l 246 211 l 178 -1 q 151 -10 165 -7 q 118 -12 138 -12 q 61 3 83 -12 q 39 49 39 18 q 43 78 39 64 q 54 111 47 93 q 105 262 72 169 q 174 457 138 354 q 249 659 211 560 q 314 829 286 758 q 357 845 328 838 q 417 853 386 853 q 489 842 457 853 q 532 803 521 831 q 599 623 563 724 q 671 415 635 522 q 740 206 707 308 q 800 19 774 103 q 767 -3 788 6 q 719 -12 747 -12 q 665 2 682 -12 q 638 51 649 17 l 585 211 m 415 724 q 385 639 401 686 q 350 540 368 592 q 314 434 332 488 q 279 331 296 381 l 553 331 q 516 442 535 386 q 480 550 497 499 q 447 647 463 601 q 422 724 432 692 l 415 724 m 265 1038 q 307 1133 265 1094 q 422 1171 349 1171 q 539 1133 497 1171 q 581 1038 581 1094 q 539 943 581 981 q 422 906 497 906 q 307 943 349 906 q 265 1038 265 981 m 364 1038 q 381 998 364 1013 q 422 983 397 983 q 466 998 449 983 q 483 1038 483 1013 q 466 1077 483 1063 q 422 1092 449 1092 q 381 1077 397 1092 q 364 1038 364 1063 z "},"Æ":{"ha":1185,"x_min":50,"x_max":1118,"o":"m 635 -1 q 578 21 599 -1 q 557 79 557 43 l 557 211 l 285 211 l 178 -3 q 155 -9 165 -6 q 125 -12 144 -12 q 68 3 86 -12 q 50 46 50 18 q 71 113 50 72 q 110 190 85 140 q 169 301 136 239 q 239 433 201 363 q 314 573 276 503 q 388 708 351 643 q 453 826 424 774 q 489 843 465 836 q 544 850 513 850 q 591 844 567 850 q 632 828 615 839 q 686 843 654 843 l 1094 843 q 1106 819 1101 835 q 1111 786 1111 804 q 1097 739 1111 756 q 1057 722 1082 722 l 701 722 l 701 492 l 1053 492 q 1065 468 1060 483 q 1069 435 1069 453 q 1055 388 1069 403 q 1015 372 1040 372 l 701 372 l 701 119 l 1101 119 q 1113 96 1107 111 q 1118 63 1118 81 q 1103 15 1118 31 q 1064 -1 1089 -1 l 635 -1 m 346 331 l 557 331 l 557 719 l 549 719 l 346 331 z "},"Ç":{"ha":810,"x_min":68,"x_max":750,"o":"m 743 743 q 730 701 743 719 q 699 675 717 683 q 616 719 663 699 q 499 740 569 740 q 387 719 438 740 q 299 658 336 699 q 242 558 263 618 q 221 421 221 499 q 299 183 221 264 q 504 103 376 103 q 622 122 572 103 q 708 167 672 142 q 737 139 724 157 q 750 97 750 121 q 740 61 750 78 q 706 31 729 44 q 644 3 682 15 q 553 -15 606 -10 q 582 -118 582 -61 q 540 -227 582 -186 q 426 -268 497 -268 q 363 -251 386 -268 q 339 -201 339 -233 q 340 -183 339 -193 q 346 -165 342 -174 l 365 -165 q 435 -144 414 -165 q 457 -87 457 -124 q 451 -53 457 -72 q 435 -17 446 -35 q 289 21 356 -10 q 173 106 222 51 q 96 240 124 161 q 68 421 68 318 q 101 613 68 529 q 191 751 135 696 q 322 835 247 807 q 482 864 397 864 q 590 853 542 864 q 672 826 638 843 q 724 788 706 810 q 743 743 743 765 z "},"È":{"ha":756,"x_min":126,"x_max":690,"o":"m 207 -1 q 149 21 171 -1 q 126 79 126 43 l 126 764 q 149 822 126 800 q 207 843 171 843 l 667 843 q 678 819 674 835 q 683 786 683 804 q 669 739 683 756 q 629 722 654 722 l 274 722 l 274 492 l 625 492 q 637 468 632 483 q 642 435 642 453 q 627 388 642 403 q 588 372 613 372 l 274 372 l 274 119 l 674 119 q 685 96 679 111 q 690 63 690 81 q 676 15 690 31 q 636 -1 661 -1 l 207 -1 m 247 1056 q 246 1067 246 1061 q 246 1076 246 1072 q 263 1125 246 1107 q 308 1143 281 1143 q 372 1111 344 1143 l 490 976 q 471 932 488 947 q 431 917 454 917 q 399 924 411 917 q 371 943 386 931 l 247 1056 z "},"É":{"ha":756,"x_min":126,"x_max":690,"o":"m 207 -1 q 149 21 171 -1 q 126 79 126 43 l 126 764 q 149 822 126 800 q 207 843 171 843 l 667 843 q 678 819 674 835 q 683 786 683 804 q 669 739 683 756 q 629 722 654 722 l 274 722 l 274 492 l 625 492 q 637 468 632 483 q 642 435 642 453 q 627 388 642 403 q 588 372 613 372 l 274 372 l 274 119 l 674 119 q 685 96 679 111 q 690 63 690 81 q 676 15 690 31 q 636 -1 661 -1 l 207 -1 m 517 1149 q 575 1129 554 1147 q 596 1086 596 1111 q 586 1049 596 1064 q 553 1015 576 1035 l 429 917 q 376 933 394 918 q 357 969 357 947 q 381 1018 357 996 l 517 1149 z "},"Ê":{"ha":756,"x_min":126,"x_max":690,"o":"m 207 -1 q 149 21 171 -1 q 126 79 126 43 l 126 764 q 149 822 126 800 q 207 843 171 843 l 667 843 q 678 819 674 835 q 683 786 683 804 q 669 739 683 756 q 629 722 654 722 l 274 722 l 274 492 l 625 492 q 637 468 632 483 q 642 435 642 453 q 627 388 642 403 q 588 372 613 372 l 274 372 l 274 119 l 674 119 q 685 96 679 111 q 690 63 690 81 q 676 15 690 31 q 636 -1 661 -1 l 207 -1 m 410 1036 q 351 977 383 1010 q 282 911 318 944 q 233 929 253 914 q 214 968 214 944 q 225 1003 214 989 q 258 1038 236 1018 l 329 1106 q 411 1143 371 1143 q 457 1133 438 1143 q 497 1101 476 1122 l 610 976 q 594 931 610 947 q 550 915 578 915 q 515 926 531 915 q 475 963 499 936 l 410 1036 z "},"Ë":{"ha":756,"x_min":126,"x_max":690,"o":"m 207 -1 q 149 21 171 -1 q 126 79 126 43 l 126 764 q 149 822 126 800 q 207 843 171 843 l 667 843 q 678 819 674 835 q 683 786 683 804 q 669 739 683 756 q 629 722 654 722 l 274 722 l 274 492 l 625 492 q 637 468 632 483 q 642 435 642 453 q 627 388 642 403 q 588 372 613 372 l 274 372 l 274 119 l 674 119 q 685 96 679 111 q 690 63 690 81 q 676 15 690 31 q 636 -1 661 -1 l 207 -1 m 367 1021 q 344 964 367 988 q 285 940 321 940 q 226 964 249 940 q 204 1021 204 988 q 226 1076 204 1053 q 285 1100 249 1100 q 344 1076 321 1100 q 367 1021 367 1053 m 624 1021 q 601 964 624 988 q 542 940 578 940 q 483 964 506 940 q 460 1021 460 988 q 483 1076 460 1053 q 542 1100 506 1100 q 601 1076 578 1100 q 624 1021 624 1053 z "},"Ì":{"ha":381,"x_min":-6,"x_max":264,"o":"m 264 3 q 235 -5 254 -1 q 196 -8 217 -8 q 134 8 153 -8 q 115 61 115 24 l 115 843 q 145 849 126 846 q 185 853 164 853 q 244 838 225 853 q 264 783 264 822 l 264 3 m -4 1056 q -6 1067 -6 1061 q -6 1076 -6 1072 q 12 1125 -6 1107 q 57 1143 29 1143 q 121 1111 93 1143 l 239 976 q 219 932 236 947 q 179 917 203 917 q 147 924 160 917 q 119 943 135 931 l -4 1056 z "},"Í":{"ha":381,"x_min":115,"x_max":368,"o":"m 264 3 q 235 -5 254 -1 q 196 -8 217 -8 q 134 8 153 -8 q 115 61 115 24 l 115 843 q 145 849 126 846 q 185 853 164 853 q 244 838 225 853 q 264 783 264 822 l 264 3 m 289 1149 q 347 1129 326 1147 q 368 1086 368 1111 q 358 1049 368 1064 q 325 1015 349 1035 l 201 917 q 148 933 167 918 q 129 969 129 947 q 153 1018 129 996 l 289 1149 z "},"Î":{"ha":381,"x_min":-6,"x_max":390,"o":"m 264 3 q 235 -5 254 -1 q 196 -8 217 -8 q 134 8 153 -8 q 115 61 115 24 l 115 843 q 145 849 126 846 q 185 853 164 853 q 244 838 225 853 q 264 783 264 822 l 264 3 m 190 1036 q 131 977 164 1010 q 63 911 99 944 q 14 929 33 914 q -6 968 -6 944 q 6 1003 -6 989 q 39 1038 17 1018 l 110 1106 q 192 1143 151 1143 q 238 1133 218 1143 q 278 1101 257 1122 l 390 976 q 374 931 390 947 q 331 915 358 915 q 295 926 311 915 q 256 963 279 936 l 190 1036 z "},"Ï":{"ha":381,"x_min":-21,"x_max":399,"o":"m 264 3 q 235 -5 254 -1 q 196 -8 217 -8 q 134 8 153 -8 q 115 61 115 24 l 115 843 q 145 849 126 846 q 185 853 164 853 q 244 838 225 853 q 264 783 264 822 l 264 3 m 142 1021 q 119 964 142 988 q 60 940 96 940 q 1 964 24 940 q -21 1021 -21 988 q 1 1076 -21 1053 q 60 1100 24 1100 q 119 1076 96 1100 q 142 1021 142 1053 m 399 1021 q 376 964 399 988 q 317 940 353 940 q 258 964 281 940 q 235 1021 235 988 q 258 1076 235 1053 q 317 1100 281 1100 q 376 1076 353 1100 q 399 1021 399 1053 z "},"Ð":{"ha":954,"x_min":18,"x_max":885,"o":"m 885 429 q 853 233 885 317 q 762 93 821 149 q 619 10 703 38 q 435 -17 536 -17 q 331 -12 390 -17 q 219 8 271 -8 q 156 83 156 29 l 156 363 l 35 363 q 23 387 28 372 q 18 421 18 401 q 33 467 18 451 q 72 483 47 483 l 156 483 l 156 779 q 169 816 156 803 q 206 836 182 829 q 311 856 254 851 q 422 861 368 861 q 610 835 525 861 q 757 754 696 808 q 851 619 818 700 q 885 429 885 538 m 732 428 q 708 569 732 510 q 643 665 685 628 q 546 721 601 703 q 426 739 490 739 q 304 729 353 739 l 304 483 l 496 483 q 507 459 501 474 q 513 426 513 444 q 498 378 513 394 q 458 363 483 363 l 304 363 l 304 117 q 366 108 332 110 q 435 106 400 106 q 656 187 579 106 q 732 428 732 268 z "},"Ñ":{"ha":924,"x_min":114,"x_max":810,"o":"m 810 19 q 771 -1 794 7 q 715 -10 747 -10 q 648 5 676 -10 q 596 60 619 19 l 367 458 q 335 514 351 485 q 305 572 319 543 q 277 628 290 601 q 254 676 264 656 l 247 675 q 257 520 254 603 q 260 364 260 438 l 260 1 q 231 -5 250 -1 q 193 -8 213 -8 q 133 7 151 -8 q 114 58 114 22 l 114 819 q 153 844 128 835 q 208 853 179 853 q 276 839 247 853 q 329 785 306 825 l 560 385 q 590 329 575 358 q 620 271 606 300 q 648 215 635 242 q 671 167 661 188 l 676 168 q 664 377 665 274 q 663 579 663 481 l 663 843 q 692 849 674 846 q 731 853 710 853 q 791 838 772 853 q 810 786 810 822 l 810 19 m 347 1114 q 401 1107 376 1114 q 449 1091 426 1100 q 492 1075 472 1082 q 531 1068 513 1068 q 570 1084 557 1068 q 589 1119 583 1100 l 597 1119 q 650 1103 628 1119 q 672 1051 672 1086 q 642 981 672 1006 q 563 956 611 956 q 505 963 532 956 q 455 978 478 969 q 412 994 432 988 q 375 1001 392 1001 q 336 985 349 1001 q 318 949 324 969 l 310 949 q 256 966 279 949 q 233 1018 233 983 q 268 1089 233 1064 q 347 1114 303 1114 z "},"Ò":{"ha":963,"x_min":68,"x_max":893,"o":"m 893 422 q 862 231 893 314 q 775 93 831 149 q 644 9 719 38 q 481 -19 569 -19 q 316 9 392 -19 q 185 93 240 38 q 99 231 131 149 q 68 422 68 314 q 100 613 68 531 q 188 751 132 694 q 319 835 243 807 q 481 864 394 864 q 643 835 568 864 q 774 751 718 807 q 861 613 829 694 q 893 422 893 531 m 742 422 q 671 659 742 578 q 481 740 600 740 q 292 658 364 740 q 221 422 221 576 q 292 185 221 267 q 481 103 363 103 q 671 185 600 103 q 742 422 742 267 m 297 1056 q 296 1067 296 1061 q 296 1076 296 1072 q 313 1125 296 1107 q 358 1143 331 1143 q 422 1111 394 1143 l 540 976 q 521 932 538 947 q 481 917 504 917 q 449 924 461 917 q 421 943 436 931 l 297 1056 z "},"Ó":{"ha":963,"x_min":68,"x_max":893,"o":"m 893 422 q 862 231 893 314 q 775 93 831 149 q 644 9 719 38 q 481 -19 569 -19 q 316 9 392 -19 q 185 93 240 38 q 99 231 131 149 q 68 422 68 314 q 100 613 68 531 q 188 751 132 694 q 319 835 243 807 q 481 864 394 864 q 643 835 568 864 q 774 751 718 807 q 861 613 829 694 q 893 422 893 531 m 742 422 q 671 659 742 578 q 481 740 600 740 q 292 658 364 740 q 221 422 221 576 q 292 185 221 267 q 481 103 363 103 q 671 185 600 103 q 742 422 742 267 m 590 1149 q 649 1129 628 1147 q 669 1086 669 1111 q 660 1049 669 1064 q 626 1015 650 1035 l 503 917 q 449 933 468 918 q 431 969 431 947 q 454 1018 431 996 l 590 1149 z "},"Ô":{"ha":963,"x_min":68,"x_max":893,"o":"m 893 422 q 862 231 893 314 q 775 93 831 149 q 644 9 719 38 q 481 -19 569 -19 q 316 9 392 -19 q 185 93 240 38 q 99 231 131 149 q 68 422 68 314 q 100 613 68 531 q 188 751 132 694 q 319 835 243 807 q 481 864 394 864 q 643 835 568 864 q 774 751 718 807 q 861 613 829 694 q 893 422 893 531 m 742 422 q 671 659 742 578 q 481 740 600 740 q 292 658 364 740 q 221 422 221 576 q 292 185 221 267 q 481 103 363 103 q 671 185 600 103 q 742 422 742 267 m 481 1036 q 422 977 454 1010 q 353 911 389 944 q 304 929 324 914 q 285 968 285 944 q 296 1003 285 989 q 329 1038 307 1018 l 400 1106 q 482 1143 442 1143 q 528 1133 508 1143 q 568 1101 547 1122 l 681 976 q 665 931 681 947 q 621 915 649 915 q 585 926 601 915 q 546 963 569 936 l 481 1036 z "},"Õ":{"ha":963,"x_min":68,"x_max":893,"o":"m 893 422 q 862 231 893 314 q 775 93 831 149 q 644 9 719 38 q 481 -19 569 -19 q 316 9 392 -19 q 185 93 240 38 q 99 231 131 149 q 68 422 68 314 q 100 613 68 531 q 188 751 132 694 q 319 835 243 807 q 481 864 394 864 q 643 835 568 864 q 774 751 718 807 q 861 613 829 694 q 893 422 893 531 m 742 422 q 671 659 742 578 q 481 740 600 740 q 292 658 364 740 q 221 422 221 576 q 292 185 221 267 q 481 103 363 103 q 671 185 600 103 q 742 422 742 267 m 375 1114 q 429 1107 404 1114 q 477 1091 454 1100 q 520 1075 500 1082 q 558 1068 540 1068 q 598 1084 585 1068 q 617 1119 611 1100 l 625 1119 q 678 1103 656 1119 q 700 1051 700 1086 q 669 981 700 1006 q 590 956 639 956 q 533 963 560 956 q 483 978 506 969 q 440 994 460 988 q 403 1001 419 1001 q 364 985 376 1001 q 346 949 351 969 l 338 949 q 284 966 307 949 q 261 1018 261 983 q 296 1089 261 1064 q 375 1114 331 1114 z "},"Ö":{"ha":963,"x_min":68,"x_max":893,"o":"m 893 422 q 862 231 893 314 q 775 93 831 149 q 644 9 719 38 q 481 -19 569 -19 q 316 9 392 -19 q 185 93 240 38 q 99 231 131 149 q 68 422 68 314 q 100 613 68 531 q 188 751 132 694 q 319 835 243 807 q 481 864 394 864 q 643 835 568 864 q 774 751 718 807 q 861 613 829 694 q 893 422 893 531 m 742 422 q 671 659 742 578 q 481 740 600 740 q 292 658 364 740 q 221 422 221 576 q 292 185 221 267 q 481 103 363 103 q 671 185 600 103 q 742 422 742 267 m 432 1021 q 409 964 432 988 q 350 940 386 940 q 292 964 314 940 q 269 1021 269 988 q 292 1076 269 1053 q 350 1100 314 1100 q 409 1076 386 1100 q 432 1021 432 1053 m 689 1021 q 666 964 689 988 q 607 940 643 940 q 548 964 571 940 q 525 1021 525 988 q 548 1076 525 1053 q 607 1100 571 1100 q 666 1076 643 1100 q 689 1021 689 1053 z "},"×":{"ha":690,"x_min":74,"x_max":621,"o":"m 435 400 l 621 197 q 593 151 613 169 q 546 132 574 132 q 518 140 532 132 q 494 158 504 147 l 346 325 l 150 125 q 98 152 122 133 q 74 197 74 171 q 103 249 74 222 l 263 407 l 74 607 q 100 653 81 631 q 146 675 119 675 q 174 667 161 675 q 194 650 186 660 l 351 479 l 539 675 q 584 649 563 668 q 606 603 606 631 q 578 551 606 576 l 435 400 z "},"Ø":{"ha":963,"x_min":63,"x_max":893,"o":"m 893 422 q 862 231 893 314 q 775 93 831 149 q 644 9 719 38 q 481 -19 569 -19 q 221 64 329 -19 l 139 -24 q 81 3 100 -15 q 63 44 63 22 q 73 79 63 64 q 106 117 83 94 l 140 153 q 87 273 106 206 q 68 422 68 340 q 100 613 68 531 q 188 751 132 694 q 319 835 243 807 q 481 864 394 864 q 615 844 551 864 q 732 783 679 824 l 810 869 q 865 843 843 861 q 886 803 886 825 q 876 771 886 788 q 844 731 865 754 l 814 699 q 872 576 851 644 q 893 422 893 507 m 744 422 q 735 513 744 471 q 711 592 726 556 l 315 161 q 481 103 379 103 q 672 185 600 103 q 744 422 744 267 m 218 422 q 247 257 218 325 l 640 686 q 481 740 574 740 q 291 658 364 740 q 218 422 218 576 z "},"Ù":{"ha":907,"x_min":113,"x_max":794,"o":"m 794 296 q 772 167 794 225 q 705 67 749 108 q 598 3 661 25 q 453 -19 535 -19 q 309 3 372 -19 q 202 67 246 25 q 135 167 158 108 q 113 296 113 225 l 113 843 q 142 849 122 846 q 182 853 161 853 q 242 838 222 853 q 261 783 261 822 l 261 304 q 316 154 261 206 q 453 103 371 103 q 529 116 494 103 q 590 154 564 129 q 631 217 617 179 q 646 304 646 254 l 646 843 q 675 849 656 846 q 715 853 694 853 q 775 838 756 853 q 794 783 794 822 l 794 296 m 258 1056 q 257 1067 257 1061 q 257 1076 257 1072 q 274 1125 257 1107 q 319 1143 292 1143 q 383 1111 356 1143 l 501 976 q 482 932 499 947 q 442 917 465 917 q 410 924 422 917 q 382 943 397 931 l 258 1056 z "},"Ú":{"ha":907,"x_min":113,"x_max":794,"o":"m 794 296 q 772 167 794 225 q 705 67 749 108 q 598 3 661 25 q 453 -19 535 -19 q 309 3 372 -19 q 202 67 246 25 q 135 167 158 108 q 113 296 113 225 l 113 843 q 142 849 122 846 q 182 853 161 853 q 242 838 222 853 q 261 783 261 822 l 261 304 q 316 154 261 206 q 453 103 371 103 q 529 116 494 103 q 590 154 564 129 q 631 217 617 179 q 646 304 646 254 l 646 843 q 675 849 656 846 q 715 853 694 853 q 775 838 756 853 q 794 783 794 822 l 794 296 m 560 1149 q 618 1129 597 1147 q 639 1086 639 1111 q 629 1049 639 1064 q 596 1015 619 1035 l 472 917 q 419 933 438 918 q 400 969 400 947 q 424 1018 400 996 l 560 1149 z "},"Û":{"ha":907,"x_min":113,"x_max":794,"o":"m 794 296 q 772 167 794 225 q 705 67 749 108 q 598 3 661 25 q 453 -19 535 -19 q 309 3 372 -19 q 202 67 246 25 q 135 167 158 108 q 113 296 113 225 l 113 843 q 142 849 122 846 q 182 853 161 853 q 242 838 222 853 q 261 783 261 822 l 261 304 q 316 154 261 206 q 453 103 371 103 q 529 116 494 103 q 590 154 564 129 q 631 217 617 179 q 646 304 646 254 l 646 843 q 675 849 656 846 q 715 853 694 853 q 775 838 756 853 q 794 783 794 822 l 794 296 m 460 1036 q 401 977 433 1010 q 332 911 368 944 q 283 929 303 914 q 264 968 264 944 q 275 1003 264 989 q 308 1038 286 1018 l 379 1106 q 461 1143 421 1143 q 507 1133 488 1143 q 547 1101 526 1122 l 660 976 q 644 931 660 947 q 600 915 628 915 q 565 926 581 915 q 525 963 549 936 l 460 1036 z "},"Ü":{"ha":907,"x_min":113,"x_max":794,"o":"m 794 296 q 772 167 794 225 q 705 67 749 108 q 598 3 661 25 q 453 -19 535 -19 q 309 3 372 -19 q 202 67 246 25 q 135 167 158 108 q 113 296 113 225 l 113 843 q 142 849 122 846 q 182 853 161 853 q 242 838 222 853 q 261 783 261 822 l 261 304 q 316 154 261 206 q 453 103 371 103 q 529 116 494 103 q 590 154 564 129 q 631 217 617 179 q 646 304 646 254 l 646 843 q 675 849 656 846 q 715 853 694 853 q 775 838 756 853 q 794 783 794 822 l 794 296 m 404 1021 q 381 964 404 988 q 322 940 358 940 q 264 964 286 940 q 242 1021 242 988 q 264 1076 242 1053 q 322 1100 286 1100 q 381 1076 358 1100 q 404 1021 404 1053 m 661 1021 q 638 964 661 988 q 579 940 615 940 q 520 964 543 940 q 497 1021 497 988 q 520 1076 497 1053 q 579 1100 543 1100 q 638 1076 615 1100 q 661 1021 661 1053 z "},"Ý":{"ha":774,"x_min":24,"x_max":742,"o":"m 742 789 q 672 634 742 758 q 468 304 603 510 l 468 3 q 438 -5 457 -1 q 400 -8 419 -8 q 339 8 357 -8 q 321 60 321 24 l 321 303 q 242 423 283 358 q 160 553 200 488 q 84 683 119 619 q 24 800 49 746 q 51 835 32 819 q 103 851 71 851 q 156 835 136 851 q 196 782 175 819 q 239 704 213 753 q 294 603 265 656 q 350 505 324 551 q 392 433 376 458 l 397 433 q 456 540 428 489 q 508 639 483 590 q 558 736 533 688 q 608 836 583 785 q 638 847 621 843 q 671 851 656 851 q 722 835 703 851 q 742 789 742 818 m 482 1149 q 540 1129 519 1147 q 561 1086 561 1111 q 551 1049 561 1064 q 518 1015 542 1035 l 394 917 q 341 933 360 918 q 322 969 322 947 q 346 1018 322 996 l 482 1149 z "},"Þ":{"ha":800,"x_min":113,"x_max":736,"o":"m 113 843 q 142 849 122 846 q 181 853 161 853 q 241 837 221 853 q 261 785 261 821 l 261 700 l 417 700 q 657 626 578 700 q 736 425 736 551 q 656 224 736 300 q 417 149 576 149 l 261 149 l 261 1 q 232 -5 251 -1 q 193 -8 213 -8 q 131 8 150 -8 q 113 60 113 24 l 113 843 m 261 271 l 390 271 q 535 308 483 271 q 588 425 588 346 q 535 541 588 504 q 390 578 483 578 l 261 578 l 261 271 z "},"ß":{"ha":819,"x_min":101,"x_max":765,"o":"m 247 -1 q 219 -8 238 -4 q 182 -11 201 -11 q 122 5 142 -11 q 101 57 101 21 l 101 651 q 124 774 101 721 q 185 862 146 826 q 278 915 225 897 q 393 933 332 933 q 511 915 457 933 q 605 859 565 896 q 667 768 644 822 q 689 642 689 714 q 640 568 689 588 l 583 543 q 538 513 551 528 q 525 472 525 497 q 540 430 525 449 q 592 390 554 411 q 667 344 635 367 q 721 297 699 322 q 754 242 743 272 q 765 174 765 213 q 699 26 765 75 q 528 -24 632 -24 q 399 1 446 -24 q 353 68 353 26 q 363 107 353 89 q 392 133 372 125 q 446 103 415 115 q 517 92 476 92 q 590 115 563 92 q 618 174 618 138 q 597 232 618 208 q 518 288 575 256 q 412 367 447 324 q 376 474 376 410 q 408 570 376 532 q 497 632 439 608 l 543 651 q 501 767 543 722 q 393 813 460 813 q 290 774 333 813 q 247 650 247 735 l 247 -1 z "},"à":{"ha":710,"x_min":54,"x_max":619,"o":"m 340 93 q 425 103 389 93 q 476 124 461 113 l 476 300 l 325 285 q 229 256 261 278 q 197 190 197 235 q 232 119 197 144 q 340 93 267 93 m 338 669 q 543 613 467 669 q 619 436 619 557 l 619 113 q 605 63 619 81 q 565 31 590 46 q 472 -6 529 10 q 340 -21 415 -21 q 130 32 206 -21 q 54 188 54 85 q 113 328 54 279 q 283 388 172 376 l 476 407 l 476 438 q 437 526 476 499 q 326 554 397 554 q 219 539 271 554 q 128 504 168 524 q 104 531 114 515 q 94 567 94 547 q 106 606 94 590 q 143 632 118 621 q 232 660 182 651 q 338 669 282 669 m 163 885 q 160 907 160 899 q 178 956 160 938 q 225 974 197 974 q 289 942 263 974 l 414 786 q 394 740 411 756 q 353 724 376 724 q 321 731 333 724 q 294 750 308 738 l 163 885 z "},"á":{"ha":710,"x_min":54,"x_max":619,"o":"m 340 93 q 425 103 389 93 q 476 124 461 113 l 476 300 l 325 285 q 229 256 261 278 q 197 190 197 235 q 232 119 197 144 q 340 93 267 93 m 338 669 q 543 613 467 669 q 619 436 619 557 l 619 113 q 605 63 619 81 q 565 31 590 46 q 472 -6 529 10 q 340 -21 415 -21 q 130 32 206 -21 q 54 188 54 85 q 113 328 54 279 q 283 388 172 376 l 476 407 l 476 438 q 437 526 476 499 q 326 554 397 554 q 219 539 271 554 q 128 504 168 524 q 104 531 114 515 q 94 567 94 547 q 106 606 94 590 q 143 632 118 621 q 232 660 182 651 q 338 669 282 669 m 439 979 q 504 958 481 978 q 528 914 528 938 q 518 876 528 890 q 485 840 508 861 l 357 721 q 300 740 321 721 q 279 781 279 758 q 285 806 279 794 q 303 828 292 817 l 439 979 z "},"â":{"ha":710,"x_min":54,"x_max":619,"o":"m 340 93 q 425 103 389 93 q 476 124 461 113 l 476 300 l 325 285 q 229 256 261 278 q 197 190 197 235 q 232 119 197 144 q 340 93 267 93 m 338 669 q 543 613 467 669 q 619 436 619 557 l 619 113 q 605 63 619 81 q 565 31 590 46 q 472 -6 529 10 q 340 -21 415 -21 q 130 32 206 -21 q 54 188 54 85 q 113 328 54 279 q 283 388 172 376 l 476 407 l 476 438 q 437 526 476 499 q 326 554 397 554 q 219 539 271 554 q 128 504 168 524 q 104 531 114 515 q 94 567 94 547 q 106 606 94 590 q 143 632 118 621 q 232 660 182 651 q 338 669 282 669 m 349 861 q 286 792 315 822 q 229 728 257 761 q 175 745 196 729 q 154 785 154 761 q 165 817 154 803 q 193 850 175 831 l 267 931 q 306 959 288 949 q 349 969 325 969 q 394 960 375 969 q 435 924 413 950 l 546 790 q 532 749 546 767 q 489 731 518 731 q 456 740 469 731 q 429 765 443 750 l 349 861 z "},"ã":{"ha":710,"x_min":54,"x_max":619,"o":"m 340 93 q 425 103 389 93 q 476 124 461 113 l 476 300 l 325 285 q 229 256 261 278 q 197 190 197 235 q 232 119 197 144 q 340 93 267 93 m 338 669 q 543 613 467 669 q 619 436 619 557 l 619 113 q 605 63 619 81 q 565 31 590 46 q 472 -6 529 10 q 340 -21 415 -21 q 130 32 206 -21 q 54 188 54 85 q 113 328 54 279 q 283 388 172 376 l 476 407 l 476 438 q 437 526 476 499 q 326 554 397 554 q 219 539 271 554 q 128 504 168 524 q 104 531 114 515 q 94 567 94 547 q 106 606 94 590 q 143 632 118 621 q 232 660 182 651 q 338 669 282 669 m 239 929 q 293 922 268 929 q 341 906 318 915 q 384 890 364 897 q 422 883 404 883 q 462 899 449 883 q 481 935 475 915 l 489 935 q 542 918 519 935 q 564 867 564 901 q 533 796 564 821 q 454 771 503 771 q 397 778 424 771 q 347 794 369 785 q 303 810 324 803 q 267 817 283 817 q 228 801 240 817 q 210 764 215 785 l 201 764 q 148 781 171 764 q 125 833 125 799 q 160 904 125 879 q 239 929 194 929 z "},"ä":{"ha":710,"x_min":54,"x_max":619,"o":"m 340 93 q 425 103 389 93 q 476 124 461 113 l 476 300 l 325 285 q 229 256 261 278 q 197 190 197 235 q 232 119 197 144 q 340 93 267 93 m 338 669 q 543 613 467 669 q 619 436 619 557 l 619 113 q 605 63 619 81 q 565 31 590 46 q 472 -6 529 10 q 340 -21 415 -21 q 130 32 206 -21 q 54 188 54 85 q 113 328 54 279 q 283 388 172 376 l 476 407 l 476 438 q 437 526 476 499 q 326 554 397 554 q 219 539 271 554 q 128 504 168 524 q 104 531 114 515 q 94 567 94 547 q 106 606 94 590 q 143 632 118 621 q 232 660 182 651 q 338 669 282 669 m 308 846 q 285 789 308 813 q 226 765 263 765 q 168 789 190 765 q 146 846 146 813 q 168 901 146 878 q 226 925 190 925 q 285 901 263 925 q 308 846 308 878 m 565 846 q 542 789 565 813 q 483 765 519 765 q 424 789 447 765 q 401 846 401 813 q 424 901 401 878 q 483 925 447 925 q 542 901 519 925 q 565 846 565 878 z "},"å":{"ha":710,"x_min":54,"x_max":619,"o":"m 340 93 q 425 103 389 93 q 476 124 461 113 l 476 300 l 325 285 q 229 256 261 278 q 197 190 197 235 q 232 119 197 144 q 340 93 267 93 m 338 669 q 543 613 467 669 q 619 436 619 557 l 619 113 q 605 63 619 81 q 565 31 590 46 q 472 -6 529 10 q 340 -21 415 -21 q 130 32 206 -21 q 54 188 54 85 q 113 328 54 279 q 283 388 172 376 l 476 407 l 476 438 q 437 526 476 499 q 326 554 397 554 q 219 539 271 554 q 128 504 168 524 q 104 531 114 515 q 94 567 94 547 q 106 606 94 590 q 143 632 118 621 q 232 660 182 651 q 338 669 282 669 m 200 861 q 241 958 200 919 q 356 997 282 997 q 472 958 431 997 q 513 861 513 919 q 472 764 513 803 q 356 725 431 725 q 241 764 282 725 q 200 861 200 803 m 297 861 q 314 817 297 833 q 356 801 331 801 q 399 817 382 801 q 417 861 417 833 q 399 905 417 889 q 356 921 382 921 q 314 905 331 921 q 297 861 297 889 z "},"æ":{"ha":1133,"x_min":54,"x_max":1082,"o":"m 338 669 q 473 644 417 669 q 558 569 529 619 q 782 669 642 669 q 903 648 849 669 q 998 588 958 626 q 1060 497 1038 550 q 1082 382 1082 444 q 1065 331 1082 347 q 1015 310 1047 314 l 610 251 q 685 134 629 172 q 829 96 742 96 q 936 114 888 96 q 1014 153 985 132 q 1053 90 1053 131 q 1035 47 1053 67 q 985 12 1017 26 q 912 -11 954 -3 q 821 -19 869 -19 q 582 67 668 -19 q 564 40 575 51 q 539 22 553 29 q 459 -8 504 4 q 340 -21 414 -21 q 130 32 206 -21 q 54 188 54 85 q 113 328 54 279 q 283 388 172 376 l 476 407 l 476 438 q 437 526 476 499 q 326 554 397 554 q 219 539 271 554 q 128 504 168 524 q 104 531 114 515 q 94 567 94 547 q 106 606 94 590 q 143 632 118 621 q 232 660 182 651 q 338 669 282 669 m 340 93 q 425 103 389 93 q 476 124 461 113 l 476 300 l 325 285 q 229 256 261 278 q 197 190 197 235 q 232 119 197 144 q 340 93 267 93 m 782 557 q 655 506 704 557 q 601 358 606 454 l 943 407 q 897 513 938 469 q 782 557 857 557 z "},"ç":{"ha":668,"x_min":61,"x_max":611,"o":"m 415 551 q 333 537 371 551 q 269 493 296 522 q 226 422 242 464 q 210 324 210 379 q 267 156 210 214 q 415 99 324 99 q 506 113 468 99 q 571 146 543 126 q 600 119 589 135 q 611 82 611 104 q 573 21 611 47 q 471 -15 535 -6 q 501 -118 501 -58 q 459 -227 501 -186 q 346 -268 417 -268 q 282 -251 306 -268 q 258 -201 258 -233 q 260 -183 258 -193 q 265 -165 261 -174 l 285 -165 q 355 -144 333 -165 q 376 -87 376 -124 q 371 -53 376 -72 q 354 -17 365 -35 q 235 15 289 -10 q 142 81 181 39 q 82 184 103 124 q 61 324 61 244 q 88 475 61 410 q 162 583 115 540 q 271 648 208 626 q 403 669 333 669 q 485 661 449 669 q 549 638 522 653 q 590 605 575 624 q 604 565 604 586 q 594 530 604 546 q 568 506 583 514 q 503 538 539 524 q 415 551 468 551 z "},"è":{"ha":732,"x_min":61,"x_max":679,"o":"m 208 251 q 284 134 228 172 q 428 96 340 96 q 535 114 486 96 q 613 153 583 132 q 651 90 651 131 q 633 47 651 67 q 584 12 615 26 q 510 -11 553 -3 q 419 -19 468 -19 q 273 3 339 -19 q 160 69 207 25 q 87 179 113 114 q 61 331 61 244 q 86 477 61 414 q 154 583 111 540 q 256 647 197 625 q 381 669 314 669 q 502 648 447 669 q 597 588 557 626 q 658 497 636 550 q 679 382 679 444 q 663 331 679 347 q 614 310 646 315 l 208 251 m 381 557 q 253 506 304 557 q 200 358 203 454 l 542 407 q 496 513 536 469 q 381 557 456 557 m 186 885 q 183 907 183 899 q 202 956 183 938 q 249 974 221 974 q 313 942 286 974 l 438 786 q 417 740 435 756 q 376 724 400 724 q 344 731 357 724 q 318 750 332 738 l 186 885 z "},"é":{"ha":732,"x_min":61,"x_max":679,"o":"m 208 251 q 284 134 228 172 q 428 96 340 96 q 535 114 486 96 q 613 153 583 132 q 651 90 651 131 q 633 47 651 67 q 584 12 615 26 q 510 -11 553 -3 q 419 -19 468 -19 q 273 3 339 -19 q 160 69 207 25 q 87 179 113 114 q 61 331 61 244 q 86 477 61 414 q 154 583 111 540 q 256 647 197 625 q 381 669 314 669 q 502 648 447 669 q 597 588 557 626 q 658 497 636 550 q 679 382 679 444 q 663 331 679 347 q 614 310 646 315 l 208 251 m 381 557 q 253 506 304 557 q 200 358 203 454 l 542 407 q 496 513 536 469 q 381 557 456 557 m 483 979 q 549 958 525 978 q 572 914 572 938 q 563 876 572 890 q 529 840 553 861 l 401 721 q 344 740 365 721 q 324 781 324 758 q 330 806 324 794 q 347 828 336 817 l 483 979 z "},"ê":{"ha":732,"x_min":61,"x_max":679,"o":"m 208 251 q 284 134 228 172 q 428 96 340 96 q 535 114 486 96 q 613 153 583 132 q 651 90 651 131 q 633 47 651 67 q 584 12 615 26 q 510 -11 553 -3 q 419 -19 468 -19 q 273 3 339 -19 q 160 69 207 25 q 87 179 113 114 q 61 331 61 244 q 86 477 61 414 q 154 583 111 540 q 256 647 197 625 q 381 669 314 669 q 502 648 447 669 q 597 588 557 626 q 658 497 636 550 q 679 382 679 444 q 663 331 679 347 q 614 310 646 315 l 208 251 m 381 557 q 253 506 304 557 q 200 358 203 454 l 542 407 q 496 513 536 469 q 381 557 456 557 m 382 861 q 319 792 349 822 q 263 728 290 761 q 208 745 229 729 q 188 785 188 761 q 198 817 188 803 q 226 850 208 831 l 300 931 q 340 959 321 949 q 382 969 358 969 q 427 960 408 969 q 468 924 446 950 l 579 790 q 565 749 579 767 q 522 731 551 731 q 490 740 503 731 q 463 765 476 750 l 382 861 z "},"ë":{"ha":732,"x_min":61,"x_max":679,"o":"m 208 251 q 284 134 228 172 q 428 96 340 96 q 535 114 486 96 q 613 153 583 132 q 651 90 651 131 q 633 47 651 67 q 584 12 615 26 q 510 -11 553 -3 q 419 -19 468 -19 q 273 3 339 -19 q 160 69 207 25 q 87 179 113 114 q 61 331 61 244 q 86 477 61 414 q 154 583 111 540 q 256 647 197 625 q 381 669 314 669 q 502 648 447 669 q 597 588 557 626 q 658 497 636 550 q 679 382 679 444 q 663 331 679 347 q 614 310 646 315 l 208 251 m 381 557 q 253 506 304 557 q 200 358 203 454 l 542 407 q 496 513 536 469 q 381 557 456 557 m 328 846 q 305 789 328 813 q 246 765 282 765 q 188 789 210 765 q 165 846 165 813 q 188 901 165 878 q 246 925 210 925 q 305 901 282 925 q 328 846 328 878 m 585 846 q 562 789 585 813 q 503 765 539 765 q 444 789 467 765 q 421 846 421 813 q 444 901 421 878 q 503 925 467 925 q 562 901 539 925 q 585 846 585 878 z "},"ì":{"ha":350,"x_min":-21,"x_max":247,"o":"m 247 -1 q 222 -8 239 -4 q 183 -11 204 -11 q 122 5 143 -11 q 101 57 101 21 l 101 644 q 129 651 111 647 q 167 654 147 654 q 228 638 208 654 q 247 586 247 622 l 247 -1 m -18 885 q -21 907 -21 899 q -2 956 -21 938 q 44 974 17 974 q 108 942 82 974 l 233 786 q 213 740 231 756 q 172 724 196 724 q 140 731 153 724 q 114 750 128 738 l -18 885 z "},"í":{"ha":350,"x_min":101,"x_max":365,"o":"m 247 -1 q 222 -8 239 -4 q 183 -11 204 -11 q 122 5 143 -11 q 101 57 101 21 l 101 644 q 129 651 111 647 q 167 654 147 654 q 228 638 208 654 q 247 586 247 622 l 247 -1 m 276 979 q 342 958 318 978 q 365 914 365 938 q 356 876 365 890 q 322 840 346 861 l 194 721 q 138 740 158 721 q 117 781 117 758 q 123 806 117 794 q 140 828 129 817 l 276 979 z "},"î":{"ha":350,"x_min":-17,"x_max":375,"o":"m 247 -1 q 222 -8 239 -4 q 183 -11 204 -11 q 122 5 143 -11 q 101 57 101 21 l 101 644 q 129 651 111 647 q 167 654 147 654 q 228 638 208 654 q 247 586 247 622 l 247 -1 m 178 861 q 115 792 144 822 q 58 728 86 761 q 4 745 25 729 q -17 785 -17 761 q -6 817 -17 803 q 22 850 4 831 l 96 931 q 135 959 117 949 q 178 969 154 969 q 223 960 204 969 q 264 924 242 950 l 375 790 q 361 749 375 767 q 318 731 347 731 q 285 740 299 731 q 258 765 272 750 l 178 861 z "},"ï":{"ha":350,"x_min":-35,"x_max":385,"o":"m 247 -1 q 222 -8 239 -4 q 183 -11 204 -11 q 122 5 143 -11 q 101 57 101 21 l 101 644 q 129 651 111 647 q 167 654 147 654 q 228 638 208 654 q 247 586 247 622 l 247 -1 m 128 846 q 105 789 128 813 q 46 765 82 765 q -12 789 10 765 q -35 846 -35 813 q -12 901 -35 878 q 46 925 10 925 q 105 901 82 925 q 128 846 128 878 m 385 846 q 362 789 385 813 q 303 765 339 765 q 244 789 267 765 q 221 846 221 813 q 244 901 221 878 q 303 925 267 925 q 362 901 339 925 q 385 846 385 878 z "},"ð":{"ha":764,"x_min":61,"x_max":701,"o":"m 542 768 q 604 680 575 728 q 655 578 633 632 q 689 463 676 524 q 701 340 701 403 q 621 74 701 168 q 385 -19 540 -19 q 251 3 311 -19 q 149 67 192 25 q 84 167 107 108 q 61 301 61 226 q 87 440 61 382 q 154 538 113 499 q 250 595 196 576 q 363 614 304 614 q 443 603 407 614 q 510 574 479 593 q 465 651 489 615 q 410 718 442 686 l 236 656 q 210 684 221 667 q 199 722 199 701 q 236 769 199 754 l 313 799 q 250 829 282 817 q 185 853 218 842 q 205 912 186 889 q 258 935 224 935 q 353 913 303 935 q 454 851 404 890 l 597 908 q 624 881 613 897 q 636 842 636 865 q 626 808 636 818 q 597 790 617 797 l 542 768 m 553 308 q 551 366 553 339 q 546 418 549 393 q 476 477 517 456 q 389 499 436 499 q 254 446 299 499 q 210 301 210 393 q 256 153 210 208 q 386 99 303 99 q 511 156 469 99 q 553 308 553 213 z "},"ñ":{"ha":786,"x_min":106,"x_max":690,"o":"m 544 421 q 506 521 544 489 q 403 553 468 553 q 316 540 354 553 q 250 513 278 528 l 250 3 q 223 -5 240 -1 q 185 -8 206 -8 q 125 7 144 -8 q 106 58 106 22 l 106 517 q 118 568 106 549 q 160 607 131 588 q 261 650 199 631 q 403 669 324 669 q 614 609 538 669 q 690 426 690 549 l 690 3 q 663 -5 681 -1 q 624 -8 644 -8 q 564 7 583 -8 q 544 58 544 22 l 544 421 m 283 929 q 338 922 313 929 q 385 906 363 915 q 428 890 408 897 q 467 883 449 883 q 506 899 493 883 q 525 935 519 915 l 533 935 q 586 918 564 935 q 608 867 608 901 q 578 796 608 821 q 499 771 547 771 q 441 778 468 771 q 391 794 414 785 q 348 810 368 803 q 311 817 328 817 q 272 801 285 817 q 254 764 260 785 l 246 764 q 192 781 215 764 q 169 833 169 799 q 204 904 169 879 q 283 929 239 929 z "},"ò":{"ha":781,"x_min":61,"x_max":719,"o":"m 719 325 q 696 182 719 246 q 630 74 672 118 q 526 5 588 29 q 390 -19 465 -19 q 254 5 315 -19 q 151 74 193 29 q 85 182 108 118 q 61 325 61 246 q 85 468 61 404 q 151 576 108 532 q 256 645 194 621 q 390 669 317 669 q 525 645 464 669 q 629 576 586 621 q 696 467 672 531 q 719 325 719 404 m 390 553 q 258 493 307 553 q 210 325 210 433 q 257 158 210 217 q 390 99 304 99 q 524 158 476 99 q 571 325 571 217 q 523 492 571 432 q 390 553 475 553 m 211 885 q 208 907 208 899 q 227 956 208 938 q 274 974 246 974 q 338 942 311 974 l 463 786 q 442 740 460 756 q 401 724 425 724 q 369 731 382 724 q 343 750 357 738 l 211 885 z "},"ó":{"ha":781,"x_min":61,"x_max":719,"o":"m 719 325 q 696 182 719 246 q 630 74 672 118 q 526 5 588 29 q 390 -19 465 -19 q 254 5 315 -19 q 151 74 193 29 q 85 182 108 118 q 61 325 61 246 q 85 468 61 404 q 151 576 108 532 q 256 645 194 621 q 390 669 317 669 q 525 645 464 669 q 629 576 586 621 q 696 467 672 531 q 719 325 719 404 m 390 553 q 258 493 307 553 q 210 325 210 433 q 257 158 210 217 q 390 99 304 99 q 524 158 476 99 q 571 325 571 217 q 523 492 571 432 q 390 553 475 553 m 494 979 q 560 958 536 978 q 583 914 583 938 q 574 876 583 890 q 540 840 564 861 l 413 721 q 356 740 376 721 q 335 781 335 758 q 341 806 335 794 q 358 828 347 817 l 494 979 z "},"ô":{"ha":781,"x_min":61,"x_max":719,"o":"m 719 325 q 696 182 719 246 q 630 74 672 118 q 526 5 588 29 q 390 -19 465 -19 q 254 5 315 -19 q 151 74 193 29 q 85 182 108 118 q 61 325 61 246 q 85 468 61 404 q 151 576 108 532 q 256 645 194 621 q 390 669 317 669 q 525 645 464 669 q 629 576 586 621 q 696 467 672 531 q 719 325 719 404 m 390 553 q 258 493 307 553 q 210 325 210 433 q 257 158 210 217 q 390 99 304 99 q 524 158 476 99 q 571 325 571 217 q 523 492 571 432 q 390 553 475 553 m 390 861 q 328 792 357 822 q 271 728 299 761 q 217 745 238 729 q 196 785 196 761 q 206 817 196 803 q 235 850 217 831 l 308 931 q 348 959 329 949 q 390 969 367 969 q 435 960 417 969 q 476 924 454 950 l 588 790 q 574 749 588 767 q 531 731 560 731 q 498 740 511 731 q 471 765 485 750 l 390 861 z "},"õ":{"ha":781,"x_min":61,"x_max":719,"o":"m 719 325 q 696 182 719 246 q 630 74 672 118 q 526 5 588 29 q 390 -19 465 -19 q 254 5 315 -19 q 151 74 193 29 q 85 182 108 118 q 61 325 61 246 q 85 468 61 404 q 151 576 108 532 q 256 645 194 621 q 390 669 317 669 q 525 645 464 669 q 629 576 586 621 q 696 467 672 531 q 719 325 719 404 m 390 553 q 258 493 307 553 q 210 325 210 433 q 257 158 210 217 q 390 99 304 99 q 524 158 476 99 q 571 325 571 217 q 523 492 571 432 q 390 553 475 553 m 288 929 q 342 922 317 929 q 390 906 367 915 q 433 890 413 897 q 471 883 453 883 q 510 899 497 883 q 529 935 524 915 l 538 935 q 590 918 568 935 q 613 867 613 901 q 582 796 613 821 q 503 771 551 771 q 445 778 472 771 q 395 794 418 785 q 352 810 372 803 q 315 817 332 817 q 276 801 289 817 q 258 764 264 785 l 250 764 q 197 781 219 764 q 174 833 174 799 q 208 904 174 879 q 288 929 243 929 z "},"ö":{"ha":781,"x_min":61,"x_max":719,"o":"m 719 325 q 696 182 719 246 q 630 74 672 118 q 526 5 588 29 q 390 -19 465 -19 q 254 5 315 -19 q 151 74 193 29 q 85 182 108 118 q 61 325 61 246 q 85 468 61 404 q 151 576 108 532 q 256 645 194 621 q 390 669 317 669 q 525 645 464 669 q 629 576 586 621 q 696 467 672 531 q 719 325 719 404 m 390 553 q 258 493 307 553 q 210 325 210 433 q 257 158 210 217 q 390 99 304 99 q 524 158 476 99 q 571 325 571 217 q 523 492 571 432 q 390 553 475 553 m 343 846 q 320 789 343 813 q 261 765 297 765 q 203 789 225 765 q 181 846 181 813 q 203 901 181 878 q 261 925 225 925 q 320 901 297 925 q 343 846 343 878 m 600 846 q 577 789 600 813 q 518 765 554 765 q 459 789 482 765 q 436 846 436 813 q 459 901 436 878 q 518 925 482 925 q 577 901 554 925 q 600 846 600 878 z "},"÷":{"ha":726,"x_min":63,"x_max":664,"o":"m 76 353 q 67 378 71 364 q 63 410 63 392 q 78 456 63 440 q 121 471 94 471 l 650 471 q 660 445 656 460 q 664 414 664 431 q 648 367 664 382 q 604 353 632 353 l 76 353 m 282 182 q 305 242 282 218 q 367 265 328 265 q 426 242 404 265 q 449 182 449 218 q 426 122 449 146 q 367 99 404 99 q 305 122 328 99 q 282 182 282 146 m 282 638 q 305 697 282 674 q 367 721 328 721 q 426 697 404 721 q 449 638 449 674 q 426 578 449 601 q 367 554 404 554 q 305 578 328 554 q 282 638 282 601 z "},"ø":{"ha":781,"x_min":61,"x_max":719,"o":"m 719 325 q 696 182 719 246 q 630 74 672 118 q 526 5 588 29 q 390 -19 465 -19 q 240 11 308 -19 l 175 -85 q 122 -69 144 -85 q 100 -31 100 -54 q 110 -4 100 -18 l 158 65 q 86 176 111 110 q 61 325 61 242 q 85 468 61 404 q 151 576 108 532 q 256 645 194 621 q 390 669 317 669 q 539 639 471 669 l 604 736 q 655 721 632 736 q 678 681 678 706 q 669 657 678 669 l 619 585 q 694 474 668 539 q 719 325 719 408 m 576 325 q 567 406 576 369 q 540 471 557 443 l 310 114 q 390 97 344 97 q 526 156 476 97 q 576 325 576 215 m 390 553 q 256 493 307 553 q 204 325 204 433 q 239 179 204 238 l 471 535 q 390 553 432 553 z "},"ù":{"ha":776,"x_min":96,"x_max":681,"o":"m 96 649 q 124 655 106 651 q 163 658 142 658 q 222 643 203 658 q 240 590 240 628 l 240 247 q 283 133 240 167 q 400 99 325 99 q 482 108 449 99 q 535 129 515 118 l 535 649 q 563 655 546 651 q 601 658 581 658 q 661 643 642 658 q 681 590 681 628 l 681 122 q 671 72 681 92 q 632 35 661 53 q 537 -3 596 14 q 399 -19 478 -19 q 176 44 256 -19 q 96 244 96 107 l 96 649 m 190 885 q 188 907 188 899 q 206 956 188 938 q 253 974 225 974 q 317 942 290 974 l 442 786 q 422 740 439 756 q 381 724 404 724 q 349 731 361 724 q 322 750 336 738 l 190 885 z "},"ú":{"ha":776,"x_min":96,"x_max":681,"o":"m 96 649 q 124 655 106 651 q 163 658 142 658 q 222 643 203 658 q 240 590 240 628 l 240 247 q 283 133 240 167 q 400 99 325 99 q 482 108 449 99 q 535 129 515 118 l 535 649 q 563 655 546 651 q 601 658 581 658 q 661 643 642 658 q 681 590 681 628 l 681 122 q 671 72 681 92 q 632 35 661 53 q 537 -3 596 14 q 399 -19 478 -19 q 176 44 256 -19 q 96 244 96 107 l 96 649 m 493 979 q 558 958 535 978 q 582 914 582 938 q 572 876 582 890 q 539 840 563 861 l 411 721 q 354 740 375 721 q 333 781 333 758 q 340 806 333 794 q 357 828 346 817 l 493 979 z "},"û":{"ha":776,"x_min":96,"x_max":681,"o":"m 96 649 q 124 655 106 651 q 163 658 142 658 q 222 643 203 658 q 240 590 240 628 l 240 247 q 283 133 240 167 q 400 99 325 99 q 482 108 449 99 q 535 129 515 118 l 535 649 q 563 655 546 651 q 601 658 581 658 q 661 643 642 658 q 681 590 681 628 l 681 122 q 671 72 681 92 q 632 35 661 53 q 537 -3 596 14 q 399 -19 478 -19 q 176 44 256 -19 q 96 244 96 107 l 96 649 m 390 861 q 328 792 357 822 q 271 728 299 761 q 217 745 238 729 q 196 785 196 761 q 206 817 196 803 q 235 850 217 831 l 308 931 q 348 959 329 949 q 390 969 367 969 q 435 960 417 969 q 476 924 454 950 l 588 790 q 574 749 588 767 q 531 731 560 731 q 498 740 511 731 q 471 765 485 750 l 390 861 z "},"ü":{"ha":776,"x_min":96,"x_max":681,"o":"m 96 649 q 124 655 106 651 q 163 658 142 658 q 222 643 203 658 q 240 590 240 628 l 240 247 q 283 133 240 167 q 400 99 325 99 q 482 108 449 99 q 535 129 515 118 l 535 649 q 563 655 546 651 q 601 658 581 658 q 661 643 642 658 q 681 590 681 628 l 681 122 q 671 72 681 92 q 632 35 661 53 q 537 -3 596 14 q 399 -19 478 -19 q 176 44 256 -19 q 96 244 96 107 l 96 649 m 338 846 q 315 789 338 813 q 256 765 292 765 q 197 789 219 765 q 175 846 175 813 q 197 901 175 878 q 256 925 219 925 q 315 901 292 925 q 338 846 338 878 m 594 846 q 572 789 594 813 q 513 765 549 765 q 453 789 476 765 q 431 846 431 813 q 453 901 431 878 q 513 925 476 925 q 572 901 549 925 q 594 846 594 878 z "},"ý":{"ha":703,"x_min":38,"x_max":660,"o":"m 219 151 q 135 344 185 219 q 38 628 85 469 q 71 653 50 643 q 115 664 92 664 q 165 649 146 664 q 197 599 185 635 q 275 377 235 486 q 364 151 315 268 l 369 151 q 412 256 390 196 q 454 382 433 315 q 493 517 475 449 q 525 649 511 586 q 553 660 539 656 q 588 664 568 664 q 639 649 618 664 q 660 604 660 635 q 641 494 660 568 q 592 330 622 419 q 522 149 561 240 q 444 -14 483 57 q 319 -200 375 -136 q 213 -264 263 -264 q 151 -242 174 -264 q 122 -189 128 -221 q 171 -142 144 -169 q 224 -82 197 -114 q 274 -16 250 -50 q 314 50 297 18 q 268 77 290 57 q 219 151 246 97 m 447 979 q 513 958 489 978 q 536 914 536 938 q 526 876 536 890 q 493 840 517 861 l 365 721 q 308 740 329 721 q 288 781 288 758 q 294 806 288 794 q 311 828 300 817 l 447 979 z "},"þ":{"ha":781,"x_min":99,"x_max":715,"o":"m 393 -19 q 310 -10 349 -19 q 243 13 271 -1 l 243 -244 q 216 -252 233 -249 q 178 -256 199 -256 q 118 -240 138 -256 q 99 -187 99 -224 l 99 903 q 126 909 107 906 q 164 913 144 913 q 224 897 206 913 q 243 846 243 881 l 243 640 q 308 660 271 651 q 390 669 346 669 q 516 649 457 669 q 619 588 575 629 q 690 481 664 546 q 715 328 715 417 q 691 176 715 240 q 624 67 667 111 q 523 2 582 24 q 393 -19 464 -19 m 371 99 q 514 153 461 99 q 567 328 567 208 q 551 432 567 389 q 510 502 536 475 q 448 541 483 529 q 374 553 413 553 q 303 544 335 553 q 243 518 271 535 l 243 136 q 299 109 267 119 q 371 99 331 99 z "},"ÿ":{"ha":703,"x_min":38,"x_max":660,"o":"m 219 151 q 135 344 185 219 q 38 628 85 469 q 71 653 50 643 q 115 664 92 664 q 165 649 146 664 q 197 599 185 635 q 275 377 235 486 q 364 151 315 268 l 369 151 q 412 256 390 196 q 454 382 433 315 q 493 517 475 449 q 525 649 511 586 q 553 660 539 656 q 588 664 568 664 q 639 649 618 664 q 660 604 660 635 q 641 494 660 568 q 592 330 622 419 q 522 149 561 240 q 444 -14 483 57 q 319 -200 375 -136 q 213 -264 263 -264 q 151 -242 174 -264 q 122 -189 128 -221 q 171 -142 144 -169 q 224 -82 197 -114 q 274 -16 250 -50 q 314 50 297 18 q 268 77 290 57 q 219 151 246 97 m 304 846 q 281 789 304 813 q 222 765 258 765 q 164 789 186 765 q 142 846 142 813 q 164 901 142 878 q 222 925 186 925 q 281 901 258 925 q 304 846 304 878 m 561 846 q 538 789 561 813 q 479 765 515 765 q 420 789 443 765 q 397 846 397 813 q 420 901 397 878 q 479 925 443 925 q 538 901 515 925 q 561 846 561 878 z "},"Ā":{"ha":836,"x_min":39,"x_max":800,"o":"m 226 960 q 215 984 221 969 q 210 1015 210 999 q 224 1060 210 1047 q 263 1074 239 1074 l 593 1074 q 610 1018 610 1050 q 596 973 610 986 q 557 960 582 960 l 226 960 m 585 211 l 246 211 l 178 -1 q 151 -10 165 -7 q 118 -12 138 -12 q 61 3 83 -12 q 39 49 39 18 q 43 78 39 64 q 54 111 47 93 q 105 262 72 169 q 174 457 138 354 q 249 659 211 560 q 314 829 286 758 q 357 845 328 838 q 417 853 386 853 q 489 842 457 853 q 532 803 521 831 q 599 623 563 724 q 671 415 635 522 q 740 206 707 308 q 800 19 774 103 q 767 -3 788 6 q 719 -12 747 -12 q 665 2 682 -12 q 638 51 649 17 l 585 211 m 415 724 q 385 639 401 686 q 350 540 368 592 q 314 434 332 488 q 279 331 296 381 l 553 331 q 516 442 535 386 q 480 550 497 499 q 447 647 463 601 q 422 724 432 692 l 415 724 z "},"ā":{"ha":710,"x_min":54,"x_max":619,"o":"m 340 93 q 425 103 389 93 q 476 124 461 113 l 476 300 l 325 285 q 229 256 261 278 q 197 190 197 235 q 232 119 197 144 q 340 93 267 93 m 338 669 q 543 613 467 669 q 619 436 619 557 l 619 113 q 605 63 619 81 q 565 31 590 46 q 472 -6 529 10 q 340 -21 415 -21 q 130 32 206 -21 q 54 188 54 85 q 113 328 54 279 q 283 388 172 376 l 476 407 l 476 438 q 437 526 476 499 q 326 554 397 554 q 219 539 271 554 q 128 504 168 524 q 104 531 114 515 q 94 567 94 547 q 106 606 94 590 q 143 632 118 621 q 232 660 182 651 q 338 669 282 669 m 175 789 q 164 815 169 800 q 158 846 158 829 q 173 891 158 878 q 211 904 188 904 l 542 904 q 558 847 558 881 q 544 802 558 815 q 506 789 531 789 l 175 789 z "},"Ă":{"ha":836,"x_min":39,"x_max":800,"o":"m 585 211 l 246 211 l 178 -1 q 151 -10 165 -7 q 118 -12 138 -12 q 61 3 83 -12 q 39 49 39 18 q 43 78 39 64 q 54 111 47 93 q 105 262 72 169 q 174 457 138 354 q 249 659 211 560 q 314 829 286 758 q 357 845 328 838 q 417 853 386 853 q 489 842 457 853 q 532 803 521 831 q 599 623 563 724 q 671 415 635 522 q 740 206 707 308 q 800 19 774 103 q 767 -3 788 6 q 719 -12 747 -12 q 665 2 682 -12 q 638 51 649 17 l 585 211 m 415 724 q 385 639 401 686 q 350 540 368 592 q 314 434 332 488 q 279 331 296 381 l 553 331 q 516 442 535 386 q 480 550 497 499 q 447 647 463 601 q 422 724 432 692 l 415 724 m 418 1031 q 490 1053 463 1031 q 524 1117 517 1076 q 536 1119 531 1118 q 549 1119 542 1119 q 597 1101 581 1119 q 614 1053 614 1083 q 601 1005 614 1028 q 564 964 589 982 q 502 935 539 946 q 418 924 465 924 q 333 935 369 924 q 272 964 296 946 q 235 1006 247 982 q 224 1053 224 1029 q 240 1101 224 1083 q 289 1119 257 1119 q 301 1119 296 1119 q 313 1117 307 1118 q 347 1053 319 1076 q 418 1031 375 1031 z "},"ă":{"ha":710,"x_min":54,"x_max":619,"o":"m 340 93 q 425 103 389 93 q 476 124 461 113 l 476 300 l 325 285 q 229 256 261 278 q 197 190 197 235 q 232 119 197 144 q 340 93 267 93 m 338 669 q 543 613 467 669 q 619 436 619 557 l 619 113 q 605 63 619 81 q 565 31 590 46 q 472 -6 529 10 q 340 -21 415 -21 q 130 32 206 -21 q 54 188 54 85 q 113 328 54 279 q 283 388 172 376 l 476 407 l 476 438 q 437 526 476 499 q 326 554 397 554 q 219 539 271 554 q 128 504 168 524 q 104 531 114 515 q 94 567 94 547 q 106 606 94 590 q 143 632 118 621 q 232 660 182 651 q 338 669 282 669 m 358 863 q 430 885 403 863 q 464 949 457 908 q 476 951 471 950 q 489 951 482 951 q 538 933 521 951 q 554 885 554 915 q 542 837 554 860 q 504 796 529 814 q 442 767 479 778 q 358 756 406 756 q 273 767 310 756 q 212 796 236 778 q 176 838 188 814 q 164 885 164 861 q 181 933 164 915 q 229 951 197 951 q 242 951 236 951 q 253 949 247 950 q 288 885 260 908 q 358 863 315 863 z "},"Ą":{"ha":836,"x_min":39,"x_max":829,"o":"m 585 211 l 246 211 l 178 -1 q 151 -10 165 -7 q 118 -12 138 -12 q 61 3 83 -12 q 39 49 39 18 q 43 78 39 64 q 54 111 47 93 q 105 262 72 169 q 174 457 138 354 q 249 659 211 560 q 314 829 286 758 q 357 845 328 838 q 417 853 386 853 q 489 842 457 853 q 532 803 521 831 q 599 623 563 724 q 671 415 635 522 q 740 206 707 308 q 800 19 774 103 q 768 -3 789 7 q 733 -40 747 -18 q 719 -89 719 -61 q 742 -142 719 -125 q 804 -160 764 -160 l 821 -160 q 829 -199 829 -179 q 810 -245 829 -226 q 744 -264 792 -264 q 633 -228 678 -264 q 588 -126 588 -192 q 610 -44 588 -78 q 660 7 633 -10 q 638 51 646 21 l 585 211 m 415 724 q 385 639 401 686 q 350 540 368 592 q 314 434 332 488 q 279 331 296 381 l 553 331 q 516 442 535 386 q 480 550 497 499 q 447 647 463 601 q 422 724 432 692 l 415 724 z "},"ą":{"ha":710,"x_min":54,"x_max":619,"o":"m 338 669 q 543 613 467 669 q 619 436 619 557 l 619 113 q 607 65 619 82 q 574 35 594 49 q 519 -20 539 7 q 499 -89 499 -47 q 520 -142 499 -125 q 582 -160 542 -160 l 600 -160 q 608 -199 608 -179 q 590 -245 608 -226 q 522 -264 571 -264 q 412 -228 457 -264 q 367 -126 367 -192 q 380 -62 367 -89 q 413 -17 393 -36 q 340 -21 379 -21 q 130 32 206 -21 q 54 188 54 85 q 113 328 54 279 q 283 388 172 376 l 476 407 l 476 438 q 437 526 476 499 q 326 554 397 554 q 219 539 271 554 q 128 504 168 524 q 104 531 114 515 q 94 567 94 547 q 106 606 94 590 q 143 632 118 621 q 232 660 182 651 q 338 669 282 669 m 340 93 q 425 103 389 93 q 476 124 461 113 l 476 300 l 325 285 q 229 256 261 278 q 197 190 197 235 q 232 119 197 144 q 340 93 267 93 z "},"Ć":{"ha":810,"x_min":68,"x_max":750,"o":"m 743 743 q 730 701 743 719 q 699 675 717 683 q 616 719 663 699 q 499 740 569 740 q 387 719 438 740 q 299 658 336 699 q 242 558 263 618 q 221 421 221 499 q 299 183 221 264 q 504 103 376 103 q 622 122 572 103 q 708 167 672 142 q 737 139 724 157 q 750 97 750 121 q 740 61 750 78 q 706 31 729 44 q 622 -4 675 11 q 489 -19 569 -19 q 324 8 400 -19 q 190 90 247 35 q 101 227 133 144 q 68 421 68 310 q 101 613 68 529 q 191 751 135 696 q 322 835 247 807 q 482 864 397 864 q 590 853 542 864 q 672 826 638 843 q 724 788 706 810 q 743 743 743 765 m 561 1149 q 619 1129 599 1147 q 640 1086 640 1111 q 631 1049 640 1064 q 597 1015 621 1035 l 474 917 q 420 933 439 918 q 401 969 401 947 q 425 1018 401 996 l 561 1149 z "},"ć":{"ha":668,"x_min":61,"x_max":611,"o":"m 415 551 q 333 537 371 551 q 269 493 296 522 q 226 422 242 464 q 210 324 210 379 q 267 156 210 214 q 415 99 324 99 q 506 113 468 99 q 571 146 543 126 q 600 119 589 135 q 611 82 611 104 q 555 10 611 39 q 407 -19 499 -19 q 267 1 331 -19 q 158 65 204 22 q 87 173 113 108 q 61 324 61 238 q 88 475 61 410 q 162 583 115 540 q 271 648 208 626 q 403 669 333 669 q 485 661 449 669 q 549 638 522 653 q 590 605 575 624 q 604 565 604 586 q 594 530 604 546 q 568 506 583 514 q 503 538 539 524 q 415 551 468 551 m 483 979 q 549 958 525 978 q 572 914 572 938 q 563 876 572 890 q 529 840 553 861 l 401 721 q 344 740 365 721 q 324 781 324 758 q 330 806 324 794 q 347 828 336 817 l 483 979 z "},"Ĉ":{"ha":810,"x_min":68,"x_max":750,"o":"m 743 743 q 730 701 743 719 q 699 675 717 683 q 616 719 663 699 q 499 740 569 740 q 387 719 438 740 q 299 658 336 699 q 242 558 263 618 q 221 421 221 499 q 299 183 221 264 q 504 103 376 103 q 622 122 572 103 q 708 167 672 142 q 737 139 724 157 q 750 97 750 121 q 740 61 750 78 q 706 31 729 44 q 622 -4 675 11 q 489 -19 569 -19 q 324 8 400 -19 q 190 90 247 35 q 101 227 133 144 q 68 421 68 310 q 101 613 68 529 q 191 751 135 696 q 322 835 247 807 q 482 864 397 864 q 590 853 542 864 q 672 826 638 843 q 724 788 706 810 q 743 743 743 765 m 472 1036 q 413 977 446 1010 q 344 911 381 944 q 296 929 315 914 q 276 968 276 944 q 288 1003 276 989 q 321 1038 299 1018 l 392 1106 q 474 1143 433 1143 q 519 1133 500 1143 q 560 1101 539 1122 l 672 976 q 656 931 672 947 q 613 915 640 915 q 577 926 593 915 q 538 963 561 936 l 472 1036 z "},"ĉ":{"ha":668,"x_min":61,"x_max":611,"o":"m 415 551 q 333 537 371 551 q 269 493 296 522 q 226 422 242 464 q 210 324 210 379 q 267 156 210 214 q 415 99 324 99 q 506 113 468 99 q 571 146 543 126 q 600 119 589 135 q 611 82 611 104 q 555 10 611 39 q 407 -19 499 -19 q 267 1 331 -19 q 158 65 204 22 q 87 173 113 108 q 61 324 61 238 q 88 475 61 410 q 162 583 115 540 q 271 648 208 626 q 403 669 333 669 q 485 661 449 669 q 549 638 522 653 q 590 605 575 624 q 604 565 604 586 q 594 530 604 546 q 568 506 583 514 q 503 538 539 524 q 415 551 468 551 m 385 861 q 322 792 351 822 q 265 728 293 761 q 211 745 232 729 q 190 785 190 761 q 201 817 190 803 q 229 850 211 831 l 303 931 q 342 959 324 949 q 385 969 361 969 q 430 960 411 969 q 471 924 449 950 l 582 790 q 568 749 582 767 q 525 731 554 731 q 492 740 506 731 q 465 765 479 750 l 385 861 z "},"Ċ":{"ha":810,"x_min":68,"x_max":750,"o":"m 743 743 q 730 701 743 719 q 699 675 717 683 q 616 719 663 699 q 499 740 569 740 q 387 719 438 740 q 299 658 336 699 q 242 558 263 618 q 221 421 221 499 q 299 183 221 264 q 504 103 376 103 q 622 122 572 103 q 708 167 672 142 q 737 139 724 157 q 750 97 750 121 q 740 61 750 78 q 706 31 729 44 q 622 -4 675 11 q 489 -19 569 -19 q 324 8 400 -19 q 190 90 247 35 q 101 227 133 144 q 68 421 68 310 q 101 613 68 529 q 191 751 135 696 q 322 835 247 807 q 482 864 397 864 q 590 853 542 864 q 672 826 638 843 q 724 788 706 810 q 743 743 743 765 m 553 1025 q 530 965 553 989 q 468 942 507 942 q 406 965 429 942 q 383 1025 383 989 q 406 1085 383 1061 q 468 1108 429 1108 q 530 1085 507 1108 q 553 1025 553 1061 z "},"ċ":{"ha":668,"x_min":61,"x_max":611,"o":"m 415 551 q 333 537 371 551 q 269 493 296 522 q 226 422 242 464 q 210 324 210 379 q 267 156 210 214 q 415 99 324 99 q 506 113 468 99 q 571 146 543 126 q 600 119 589 135 q 611 82 611 104 q 555 10 611 39 q 407 -19 499 -19 q 267 1 331 -19 q 158 65 204 22 q 87 173 113 108 q 61 324 61 238 q 88 475 61 410 q 162 583 115 540 q 271 648 208 626 q 403 669 333 669 q 485 661 449 669 q 549 638 522 653 q 590 605 575 624 q 604 565 604 586 q 594 530 604 546 q 568 506 583 514 q 503 538 539 524 q 415 551 468 551 m 464 853 q 441 793 464 817 q 379 769 418 769 q 317 793 340 769 q 294 853 294 817 q 317 913 294 889 q 379 936 340 936 q 441 913 418 936 q 464 853 464 889 z "},"Č":{"ha":810,"x_min":68,"x_max":750,"o":"m 743 743 q 730 701 743 719 q 699 675 717 683 q 616 719 663 699 q 499 740 569 740 q 387 719 438 740 q 299 658 336 699 q 242 558 263 618 q 221 421 221 499 q 299 183 221 264 q 504 103 376 103 q 622 122 572 103 q 708 167 672 142 q 737 139 724 157 q 750 97 750 121 q 740 61 750 78 q 706 31 729 44 q 622 -4 675 11 q 489 -19 569 -19 q 324 8 400 -19 q 190 90 247 35 q 101 227 133 144 q 68 421 68 310 q 101 613 68 529 q 191 751 135 696 q 322 835 247 807 q 482 864 397 864 q 590 853 542 864 q 672 826 638 843 q 724 788 706 810 q 743 743 743 765 m 606 1143 q 657 1126 636 1142 q 678 1086 678 1110 q 667 1051 678 1065 q 633 1017 656 1036 l 563 947 q 522 920 539 928 q 481 913 504 913 q 435 924 454 913 q 396 954 415 935 l 281 1071 q 296 1122 281 1104 q 339 1140 311 1140 q 375 1130 358 1140 q 415 1092 392 1119 l 481 1017 l 606 1143 z "},"č":{"ha":668,"x_min":61,"x_max":611,"o":"m 415 551 q 333 537 371 551 q 269 493 296 522 q 226 422 242 464 q 210 324 210 379 q 267 156 210 214 q 415 99 324 99 q 506 113 468 99 q 571 146 543 126 q 600 119 589 135 q 611 82 611 104 q 555 10 611 39 q 407 -19 499 -19 q 267 1 331 -19 q 158 65 204 22 q 87 173 113 108 q 61 324 61 238 q 88 475 61 410 q 162 583 115 540 q 271 648 208 626 q 403 669 333 669 q 485 661 449 669 q 549 638 522 653 q 590 605 575 624 q 604 565 604 586 q 594 530 604 546 q 568 506 583 514 q 503 538 539 524 q 415 551 468 551 m 379 838 l 501 967 q 558 949 538 965 q 578 908 578 932 q 566 874 578 889 q 533 839 554 858 l 453 761 q 379 729 421 729 q 335 738 354 729 q 289 775 315 747 l 175 893 l 175 900 q 190 944 175 924 q 232 964 204 964 q 267 955 253 964 q 304 922 282 946 l 379 838 z "},"Ď":{"ha":911,"x_min":114,"x_max":843,"o":"m 690 428 q 667 569 690 510 q 601 665 643 628 q 504 721 560 703 q 385 739 449 739 q 263 729 311 739 l 263 117 q 324 108 290 110 q 393 106 358 106 q 614 187 538 106 q 690 428 690 268 m 843 429 q 811 233 843 317 q 720 93 779 149 q 578 10 661 38 q 393 -17 494 -17 q 289 -12 349 -17 q 178 8 229 -8 q 114 83 114 29 l 114 779 q 127 816 114 803 q 164 836 140 829 q 269 856 213 851 q 381 861 326 861 q 569 835 483 861 q 715 754 654 808 q 810 619 776 700 q 843 429 843 538 m 572 1143 q 624 1126 603 1142 q 644 1086 644 1110 q 633 1051 644 1065 q 600 1017 622 1036 l 529 947 q 488 920 506 928 q 447 913 471 913 q 401 924 421 913 q 363 954 382 935 l 247 1071 q 263 1122 247 1104 q 306 1140 278 1140 q 342 1130 325 1140 q 382 1092 358 1119 l 447 1017 l 572 1143 z "},"ď":{"ha":924,"x_min":61,"x_max":933,"o":"m 388 669 q 466 660 429 669 q 531 638 503 651 l 531 901 q 558 908 540 904 q 597 913 576 913 q 657 897 638 913 q 676 846 676 882 l 676 118 q 664 70 676 89 q 625 35 651 51 q 538 -3 593 14 q 413 -19 483 -19 q 268 1 333 -19 q 157 63 203 21 q 86 170 111 106 q 61 322 61 235 q 87 478 61 413 q 157 587 113 544 q 260 649 201 629 q 388 669 319 669 m 532 515 q 476 542 508 531 q 406 553 444 553 q 328 540 364 553 q 267 499 293 528 q 225 427 240 471 q 210 321 210 383 q 265 151 210 204 q 411 99 319 99 q 481 108 453 99 q 532 129 510 117 l 532 515 m 865 708 q 797 678 839 678 q 742 699 760 678 q 780 802 764 750 q 801 899 796 854 q 868 913 833 913 q 915 901 896 913 q 933 863 933 889 q 927 824 933 846 q 911 781 921 803 q 889 740 901 760 q 865 708 876 721 z "},"Đ":{"ha":963,"x_min":11,"x_max":896,"o":"m 896 429 q 864 233 896 317 q 773 93 832 149 q 631 10 714 38 q 446 -17 547 -17 q 342 -12 401 -17 q 231 8 282 -8 q 167 83 167 29 l 167 363 l 28 363 q 16 387 21 372 q 11 421 11 401 q 26 467 11 451 q 65 483 40 483 l 167 483 l 167 779 q 180 816 167 803 q 217 836 193 829 q 322 856 265 851 q 433 861 379 861 q 622 835 536 861 q 768 754 707 808 q 863 619 829 700 q 896 429 896 538 m 743 428 q 719 569 743 510 q 654 665 696 628 q 557 721 613 703 q 438 739 501 739 q 315 729 364 739 l 315 483 l 496 483 q 507 459 501 474 q 513 426 513 444 q 457 363 513 363 l 315 363 l 315 117 q 377 108 343 110 q 446 106 411 106 q 667 187 590 106 q 743 428 743 268 z "},"đ":{"ha":781,"x_min":61,"x_max":775,"o":"m 676 733 l 676 118 q 664 70 676 89 q 625 35 651 51 q 538 -3 593 14 q 413 -19 483 -19 q 268 1 333 -19 q 157 63 203 21 q 86 170 111 106 q 61 322 61 235 q 87 478 61 413 q 157 587 113 544 q 260 649 201 629 q 388 669 319 669 q 466 660 429 669 q 531 638 503 651 l 531 733 l 400 733 q 392 753 396 742 q 388 781 388 765 q 431 829 388 829 l 531 829 l 531 914 q 558 921 540 917 q 597 925 576 925 q 657 910 638 925 q 676 858 676 894 l 676 829 l 763 829 q 771 810 767 822 q 775 783 775 799 q 764 744 775 756 q 732 733 753 733 l 676 733 m 532 515 q 476 542 508 531 q 406 553 444 553 q 328 540 364 553 q 267 499 293 528 q 225 427 240 471 q 210 321 210 383 q 265 151 210 204 q 411 99 319 99 q 481 108 453 99 q 532 129 510 117 l 532 515 z "},"Ē":{"ha":756,"x_min":126,"x_max":690,"o":"m 207 -1 q 149 21 171 -1 q 126 79 126 43 l 126 764 q 149 822 126 800 q 207 843 171 843 l 667 843 q 678 819 674 835 q 683 786 683 804 q 669 739 683 756 q 629 722 654 722 l 274 722 l 274 492 l 625 492 q 637 468 632 483 q 642 435 642 453 q 627 388 642 403 q 588 372 613 372 l 274 372 l 274 119 l 674 119 q 685 96 679 111 q 690 63 690 81 q 676 15 690 31 q 636 -1 661 -1 l 207 -1 m 219 958 q 208 984 214 969 q 203 1015 203 999 q 217 1060 203 1047 q 256 1074 232 1074 l 586 1074 q 603 1017 603 1050 q 589 972 603 985 q 550 958 575 958 l 219 958 z "},"ē":{"ha":732,"x_min":61,"x_max":679,"o":"m 208 251 q 284 134 228 172 q 428 96 340 96 q 535 114 486 96 q 613 153 583 132 q 651 90 651 131 q 633 47 651 67 q 584 12 615 26 q 510 -11 553 -3 q 419 -19 468 -19 q 273 3 339 -19 q 160 69 207 25 q 87 179 113 114 q 61 331 61 244 q 86 477 61 414 q 154 583 111 540 q 256 647 197 625 q 381 669 314 669 q 502 648 447 669 q 597 588 557 626 q 658 497 636 550 q 679 382 679 444 q 663 331 679 347 q 614 310 646 315 l 208 251 m 381 557 q 253 506 304 557 q 200 358 203 454 l 542 407 q 496 513 536 469 q 381 557 456 557 m 196 789 q 185 815 190 800 q 179 846 179 829 q 194 891 179 878 q 232 904 208 904 l 563 904 q 579 847 579 881 q 565 802 579 815 q 526 789 551 789 l 196 789 z "},"Ĕ":{"ha":756,"x_min":126,"x_max":690,"o":"m 207 -1 q 149 21 171 -1 q 126 79 126 43 l 126 764 q 149 822 126 800 q 207 843 171 843 l 667 843 q 678 819 674 835 q 683 786 683 804 q 669 739 683 756 q 629 722 654 722 l 274 722 l 274 492 l 625 492 q 637 468 632 483 q 642 435 642 453 q 627 388 642 403 q 588 372 613 372 l 274 372 l 274 119 l 674 119 q 685 96 679 111 q 690 63 690 81 q 676 15 690 31 q 636 -1 661 -1 l 207 -1 m 417 1036 q 488 1059 461 1036 q 522 1122 515 1082 q 535 1124 529 1124 q 547 1125 540 1125 q 596 1107 579 1125 q 613 1058 613 1089 q 600 1010 613 1033 q 563 969 588 988 q 501 940 538 951 q 417 929 464 929 q 331 940 368 929 q 270 969 294 951 q 234 1011 246 988 q 222 1058 222 1035 q 239 1107 222 1089 q 288 1125 256 1125 q 300 1124 294 1125 q 311 1122 306 1124 q 346 1059 318 1082 q 417 1036 374 1036 z "},"ĕ":{"ha":732,"x_min":61,"x_max":679,"o":"m 208 251 q 284 134 228 172 q 428 96 340 96 q 535 114 486 96 q 613 153 583 132 q 651 90 651 131 q 633 47 651 67 q 584 12 615 26 q 510 -11 553 -3 q 419 -19 468 -19 q 273 3 339 -19 q 160 69 207 25 q 87 179 113 114 q 61 331 61 244 q 86 477 61 414 q 154 583 111 540 q 256 647 197 625 q 381 669 314 669 q 502 648 447 669 q 597 588 557 626 q 658 497 636 550 q 679 382 679 444 q 663 331 679 347 q 614 310 646 315 l 208 251 m 381 557 q 253 506 304 557 q 200 358 203 454 l 542 407 q 496 513 536 469 q 381 557 456 557 m 383 863 q 455 885 428 863 q 489 949 482 908 q 501 951 496 950 q 514 951 507 951 q 563 933 546 951 q 579 885 579 915 q 567 837 579 860 q 529 796 554 814 q 467 767 504 778 q 383 756 431 756 q 298 767 335 756 q 237 796 261 778 q 201 838 213 814 q 189 885 189 861 q 206 933 189 915 q 254 951 222 951 q 267 951 261 951 q 278 949 272 950 q 313 885 285 908 q 383 863 340 863 z "},"Ė":{"ha":756,"x_min":126,"x_max":690,"o":"m 207 -1 q 149 21 171 -1 q 126 79 126 43 l 126 764 q 149 822 126 800 q 207 843 171 843 l 667 843 q 678 819 674 835 q 683 786 683 804 q 669 739 683 756 q 629 722 654 722 l 274 722 l 274 492 l 625 492 q 637 468 632 483 q 642 435 642 453 q 627 388 642 403 q 588 372 613 372 l 274 372 l 274 119 l 674 119 q 685 96 679 111 q 690 63 690 81 q 676 15 690 31 q 636 -1 661 -1 l 207 -1 m 513 1025 q 490 965 513 989 q 428 942 467 942 q 366 965 389 942 q 343 1025 343 989 q 366 1085 343 1061 q 428 1108 389 1108 q 490 1085 467 1108 q 513 1025 513 1061 z "},"ė":{"ha":732,"x_min":61,"x_max":679,"o":"m 208 251 q 284 134 228 172 q 428 96 340 96 q 535 114 486 96 q 613 153 583 132 q 651 90 651 131 q 633 47 651 67 q 584 12 615 26 q 510 -11 553 -3 q 419 -19 468 -19 q 273 3 339 -19 q 160 69 207 25 q 87 179 113 114 q 61 331 61 244 q 86 477 61 414 q 154 583 111 540 q 256 647 197 625 q 381 669 314 669 q 502 648 447 669 q 597 588 557 626 q 658 497 636 550 q 679 382 679 444 q 663 331 679 347 q 614 310 646 315 l 208 251 m 381 557 q 253 506 304 557 q 200 358 203 454 l 542 407 q 496 513 536 469 q 381 557 456 557 m 465 853 q 442 793 465 817 q 381 769 419 769 q 319 793 342 769 q 296 853 296 817 q 319 913 296 889 q 381 936 342 936 q 442 913 419 936 q 465 853 465 889 z "},"Ę":{"ha":756,"x_min":126,"x_max":694,"o":"m 207 -1 q 149 21 171 -1 q 126 79 126 43 l 126 764 q 149 822 126 800 q 207 843 171 843 l 667 843 q 678 819 674 835 q 683 786 683 804 q 669 739 683 756 q 629 722 654 722 l 274 722 l 274 492 l 625 492 q 637 468 632 483 q 642 435 642 453 q 627 388 642 403 q 588 372 613 372 l 274 372 l 274 119 l 674 119 q 685 96 679 111 q 690 63 690 81 q 676 15 690 31 q 636 -1 661 -1 l 635 -1 q 599 -38 614 -17 q 585 -89 585 -60 q 607 -142 585 -125 q 669 -160 629 -160 l 686 -160 q 694 -199 694 -179 q 676 -245 694 -226 q 610 -264 658 -264 q 499 -228 544 -264 q 454 -126 454 -192 q 474 -51 454 -82 q 517 -1 493 -21 l 207 -1 l 207 -1 z "},"ę":{"ha":732,"x_min":61,"x_max":679,"o":"m 208 251 q 284 134 228 172 q 428 96 340 96 q 535 114 486 96 q 613 153 583 132 q 651 90 651 131 q 626 38 651 61 q 557 0 601 15 q 519 -37 535 -15 q 504 -89 504 -58 q 526 -142 504 -125 q 589 -160 549 -160 l 606 -160 q 614 -199 614 -179 q 596 -245 614 -226 q 529 -264 578 -264 q 419 -228 464 -264 q 374 -126 374 -192 q 385 -65 374 -90 q 415 -19 397 -39 q 271 3 336 -19 q 159 71 206 26 q 87 180 113 115 q 61 331 61 244 q 86 477 61 414 q 154 583 111 540 q 256 647 197 625 q 381 669 314 669 q 502 648 447 669 q 597 588 557 626 q 658 497 636 550 q 679 382 679 444 q 663 331 679 347 q 614 310 646 315 l 208 251 m 381 557 q 253 506 304 557 q 200 358 203 454 l 542 407 q 496 513 536 469 q 381 557 456 557 z "},"Ě":{"ha":756,"x_min":126,"x_max":690,"o":"m 207 -1 q 149 21 171 -1 q 126 79 126 43 l 126 764 q 149 822 126 800 q 207 843 171 843 l 667 843 q 678 819 674 835 q 683 786 683 804 q 669 739 683 756 q 629 722 654 722 l 274 722 l 274 492 l 625 492 q 637 468 632 483 q 642 435 642 453 q 627 388 642 403 q 588 372 613 372 l 274 372 l 274 119 l 674 119 q 685 96 679 111 q 690 63 690 81 q 676 15 690 31 q 636 -1 661 -1 l 207 -1 m 546 1143 q 597 1126 576 1142 q 618 1086 618 1110 q 607 1051 618 1065 q 574 1017 596 1036 l 503 947 q 462 920 479 928 q 421 913 444 913 q 375 924 394 913 q 336 954 356 935 l 221 1071 q 236 1122 221 1104 q 279 1140 251 1140 q 315 1130 299 1140 q 356 1092 332 1119 l 421 1017 l 546 1143 z "},"ě":{"ha":732,"x_min":61,"x_max":679,"o":"m 208 251 q 284 134 228 172 q 428 96 340 96 q 535 114 486 96 q 613 153 583 132 q 651 90 651 131 q 633 47 651 67 q 584 12 615 26 q 510 -11 553 -3 q 419 -19 468 -19 q 273 3 339 -19 q 160 69 207 25 q 87 179 113 114 q 61 331 61 244 q 86 477 61 414 q 154 583 111 540 q 256 647 197 625 q 381 669 314 669 q 502 648 447 669 q 597 588 557 626 q 658 497 636 550 q 679 382 679 444 q 663 331 679 347 q 614 310 646 315 l 208 251 m 381 557 q 253 506 304 557 q 200 358 203 454 l 542 407 q 496 513 536 469 q 381 557 456 557 m 386 838 l 508 967 q 565 949 544 965 q 585 908 585 932 q 573 874 585 889 q 540 839 561 858 l 460 761 q 386 729 428 729 q 342 738 361 729 q 296 775 322 747 l 182 893 l 182 900 q 197 944 182 924 q 239 964 211 964 q 274 955 260 964 q 311 922 289 946 l 386 838 z "},"Ĝ":{"ha":897,"x_min":68,"x_max":808,"o":"m 808 107 q 794 59 808 78 q 749 25 779 40 q 649 -7 713 6 q 518 -19 585 -19 q 337 6 419 -19 q 194 86 254 32 q 101 224 135 140 q 68 421 68 307 q 103 615 68 532 q 197 753 138 699 q 335 836 256 808 q 506 864 415 864 q 615 853 565 864 q 701 826 665 843 q 757 788 738 810 q 776 743 776 767 q 764 702 776 719 q 733 675 751 685 q 644 719 696 699 q 515 740 593 740 q 399 719 453 740 q 305 658 344 699 q 243 558 265 618 q 221 421 221 499 q 244 278 221 339 q 306 179 267 218 q 401 122 346 140 q 519 103 456 103 q 603 110 564 103 q 663 129 642 118 l 663 351 l 471 351 q 459 376 464 360 q 454 408 454 392 q 469 456 454 440 q 508 471 483 471 l 742 471 q 790 453 771 471 q 808 404 808 436 l 808 107 m 483 1036 q 424 977 457 1010 q 356 911 392 944 q 307 929 326 914 q 288 968 288 944 q 299 1003 288 989 q 332 1038 310 1018 l 403 1106 q 485 1143 444 1143 q 531 1133 511 1143 q 571 1101 550 1122 l 683 976 q 667 931 683 947 q 624 915 651 915 q 588 926 604 915 q 549 963 572 936 l 483 1036 z "},"ĝ":{"ha":757,"x_min":64,"x_max":664,"o":"m 522 61 q 458 33 496 44 q 367 22 419 22 q 251 40 306 22 q 154 95 196 57 q 88 194 113 133 q 64 344 64 256 q 88 485 64 425 q 156 587 113 546 q 260 649 200 628 q 394 669 321 669 q 520 652 463 669 q 614 611 578 635 q 651 576 638 596 q 664 529 664 557 l 664 -18 q 640 -137 664 -87 q 573 -219 615 -187 q 472 -265 531 -250 q 347 -279 414 -279 q 225 -265 276 -279 q 150 -237 174 -251 q 107 -168 107 -211 q 117 -128 107 -144 q 142 -103 126 -112 q 226 -143 174 -125 q 339 -161 279 -161 q 474 -126 426 -161 q 522 -11 522 -90 l 522 61 m 388 136 q 467 150 435 136 q 521 183 499 164 l 521 519 q 469 542 500 532 q 397 553 439 553 q 261 501 313 553 q 210 346 210 450 q 224 249 210 289 q 261 183 238 208 q 317 147 285 158 q 388 136 350 136 m 390 861 q 328 792 357 822 q 271 728 299 761 q 217 745 238 729 q 196 785 196 761 q 206 817 196 803 q 235 850 217 831 l 308 931 q 348 959 329 949 q 390 969 367 969 q 435 960 417 969 q 476 924 454 950 l 588 790 q 574 749 588 767 q 531 731 560 731 q 498 740 511 731 q 471 765 485 750 l 390 861 z "},"Ğ":{"ha":897,"x_min":68,"x_max":808,"o":"m 808 107 q 794 59 808 78 q 749 25 779 40 q 649 -7 713 6 q 518 -19 585 -19 q 337 6 419 -19 q 194 86 254 32 q 101 224 135 140 q 68 421 68 307 q 103 615 68 532 q 197 753 138 699 q 335 836 256 808 q 506 864 415 864 q 615 853 565 864 q 701 826 665 843 q 757 788 738 810 q 776 743 776 767 q 764 702 776 719 q 733 675 751 685 q 644 719 696 699 q 515 740 593 740 q 399 719 453 740 q 305 658 344 699 q 243 558 265 618 q 221 421 221 499 q 244 278 221 339 q 306 179 267 218 q 401 122 346 140 q 519 103 456 103 q 603 110 564 103 q 663 129 642 118 l 663 351 l 471 351 q 459 376 464 360 q 454 408 454 392 q 469 456 454 440 q 508 471 483 471 l 742 471 q 790 453 771 471 q 808 404 808 436 l 808 107 m 475 1036 q 547 1059 519 1036 q 581 1122 574 1082 q 593 1124 588 1124 q 606 1125 599 1125 q 654 1107 638 1125 q 671 1058 671 1089 q 658 1010 671 1033 q 621 969 646 988 q 559 940 596 951 q 475 929 522 929 q 390 940 426 929 q 328 969 353 951 q 292 1011 304 988 q 281 1058 281 1035 q 297 1107 281 1089 q 346 1125 314 1125 q 358 1124 353 1125 q 369 1122 364 1124 q 404 1059 376 1082 q 475 1036 432 1036 z "},"ğ":{"ha":757,"x_min":64,"x_max":664,"o":"m 522 61 q 458 33 496 44 q 367 22 419 22 q 251 40 306 22 q 154 95 196 57 q 88 194 113 133 q 64 344 64 256 q 88 485 64 425 q 156 587 113 546 q 260 649 200 628 q 394 669 321 669 q 520 652 463 669 q 614 611 578 635 q 651 576 638 596 q 664 529 664 557 l 664 -18 q 640 -137 664 -87 q 573 -219 615 -187 q 472 -265 531 -250 q 347 -279 414 -279 q 225 -265 276 -279 q 150 -237 174 -251 q 107 -168 107 -211 q 117 -128 107 -144 q 142 -103 126 -112 q 226 -143 174 -125 q 339 -161 279 -161 q 474 -126 426 -161 q 522 -11 522 -90 l 522 61 m 388 136 q 467 150 435 136 q 521 183 499 164 l 521 519 q 469 542 500 532 q 397 553 439 553 q 261 501 313 553 q 210 346 210 450 q 224 249 210 289 q 261 183 238 208 q 317 147 285 158 q 388 136 350 136 m 385 863 q 456 885 429 863 q 490 949 483 908 q 503 951 497 950 q 515 951 508 951 q 564 933 547 951 q 581 885 581 915 q 568 837 581 860 q 531 796 556 814 q 469 767 506 778 q 385 756 432 756 q 299 767 336 756 q 238 796 263 778 q 202 838 214 814 q 190 885 190 861 q 207 933 190 915 q 256 951 224 951 q 268 951 263 951 q 279 949 274 950 q 314 885 286 908 q 385 863 342 863 z "},"Ġ":{"ha":897,"x_min":68,"x_max":808,"o":"m 808 107 q 794 59 808 78 q 749 25 779 40 q 649 -7 713 6 q 518 -19 585 -19 q 337 6 419 -19 q 194 86 254 32 q 101 224 135 140 q 68 421 68 307 q 103 615 68 532 q 197 753 138 699 q 335 836 256 808 q 506 864 415 864 q 615 853 565 864 q 701 826 665 843 q 757 788 738 810 q 776 743 776 767 q 764 702 776 719 q 733 675 751 685 q 644 719 696 699 q 515 740 593 740 q 399 719 453 740 q 305 658 344 699 q 243 558 265 618 q 221 421 221 499 q 244 278 221 339 q 306 179 267 218 q 401 122 346 140 q 519 103 456 103 q 603 110 564 103 q 663 129 642 118 l 663 351 l 471 351 q 459 376 464 360 q 454 408 454 392 q 469 456 454 440 q 508 471 483 471 l 742 471 q 790 453 771 471 q 808 404 808 436 l 808 107 m 585 1025 q 562 965 585 989 q 500 942 539 942 q 438 965 461 942 q 415 1025 415 989 q 438 1085 415 1061 q 500 1108 461 1108 q 562 1085 539 1108 q 585 1025 585 1061 z "},"ġ":{"ha":757,"x_min":64,"x_max":664,"o":"m 522 61 q 458 33 496 44 q 367 22 419 22 q 251 40 306 22 q 154 95 196 57 q 88 194 113 133 q 64 344 64 256 q 88 485 64 425 q 156 587 113 546 q 260 649 200 628 q 394 669 321 669 q 520 652 463 669 q 614 611 578 635 q 651 576 638 596 q 664 529 664 557 l 664 -18 q 640 -137 664 -87 q 573 -219 615 -187 q 472 -265 531 -250 q 347 -279 414 -279 q 225 -265 276 -279 q 150 -237 174 -251 q 107 -168 107 -211 q 117 -128 107 -144 q 142 -103 126 -112 q 226 -143 174 -125 q 339 -161 279 -161 q 474 -126 426 -161 q 522 -11 522 -90 l 522 61 m 388 136 q 467 150 435 136 q 521 183 499 164 l 521 519 q 469 542 500 532 q 397 553 439 553 q 261 501 313 553 q 210 346 210 450 q 224 249 210 289 q 261 183 238 208 q 317 147 285 158 q 388 136 350 136 m 474 853 q 451 793 474 817 q 389 769 428 769 q 327 793 350 769 q 304 853 304 817 q 327 913 304 889 q 389 936 350 936 q 451 913 428 936 q 474 853 474 889 z "},"Ģ":{"ha":897,"x_min":68,"x_max":808,"o":"m 808 107 q 794 59 808 78 q 749 25 779 40 q 649 -7 713 6 q 518 -19 585 -19 q 337 6 419 -19 q 194 86 254 32 q 101 224 135 140 q 68 421 68 307 q 103 615 68 532 q 197 753 138 699 q 335 836 256 808 q 506 864 415 864 q 615 853 565 864 q 701 826 665 843 q 757 788 738 810 q 776 743 776 767 q 764 702 776 719 q 733 675 751 685 q 644 719 696 699 q 515 740 593 740 q 399 719 453 740 q 305 658 344 699 q 243 558 265 618 q 221 421 221 499 q 244 278 221 339 q 306 179 267 218 q 401 122 346 140 q 519 103 456 103 q 603 110 564 103 q 663 129 642 118 l 663 351 l 471 351 q 459 376 464 360 q 454 408 454 392 q 469 456 454 440 q 508 471 483 471 l 742 471 q 790 453 771 471 q 808 404 808 436 l 808 107 m 493 -287 q 425 -318 467 -318 q 369 -296 389 -318 q 408 -194 392 -246 q 428 -97 424 -142 q 496 -82 461 -82 q 542 -94 524 -82 q 560 -132 560 -107 q 553 -171 560 -149 q 538 -215 547 -193 q 516 -256 528 -236 q 493 -287 504 -275 z "},"ģ":{"ha":757,"x_min":64,"x_max":664,"o":"m 383 943 q 414 967 399 960 q 449 974 429 974 q 481 967 465 974 q 508 951 497 961 q 449 753 460 849 q 419 742 435 746 q 385 738 403 738 q 336 748 354 738 q 318 781 318 758 q 324 822 318 799 q 339 867 329 844 q 360 910 349 890 q 383 943 371 931 m 522 61 q 458 33 496 44 q 367 22 419 22 q 251 40 306 22 q 154 95 196 57 q 88 194 113 133 q 64 344 64 256 q 88 485 64 425 q 156 587 113 546 q 260 649 200 628 q 394 669 321 669 q 520 652 463 669 q 614 611 578 635 q 651 576 638 596 q 664 529 664 557 l 664 -18 q 640 -137 664 -87 q 573 -219 615 -187 q 472 -265 531 -250 q 347 -279 414 -279 q 225 -265 276 -279 q 150 -237 174 -251 q 107 -168 107 -211 q 117 -128 107 -144 q 142 -103 126 -112 q 226 -143 174 -125 q 339 -161 279 -161 q 474 -126 426 -161 q 522 -11 522 -90 l 522 61 m 388 136 q 467 150 435 136 q 521 183 499 164 l 521 519 q 469 542 500 532 q 397 553 439 553 q 261 501 313 553 q 210 346 210 450 q 224 249 210 289 q 261 183 238 208 q 317 147 285 158 q 388 136 350 136 z "},"Ĥ":{"ha":906,"x_min":121,"x_max":808,"o":"m 658 843 q 688 849 668 846 q 728 853 707 853 q 788 838 768 853 q 808 783 808 822 l 808 3 q 778 -5 797 -1 q 739 -8 760 -8 q 677 8 696 -8 q 658 61 658 24 l 658 365 l 271 365 l 271 3 q 242 -5 260 -1 q 201 -8 224 -8 q 140 8 158 -8 q 121 61 121 24 l 121 843 q 151 849 132 846 q 190 853 169 853 q 251 838 231 853 q 271 783 271 822 l 271 486 l 658 486 l 658 843 m 457 1036 q 398 977 431 1010 q 329 911 365 944 q 281 929 300 914 q 261 968 261 944 q 272 1003 261 989 q 306 1038 283 1018 l 376 1106 q 458 1143 418 1143 q 504 1133 485 1143 q 544 1101 524 1122 l 657 976 q 641 931 657 947 q 597 915 625 915 q 562 926 578 915 q 522 963 546 936 l 457 1036 z "},"ĥ":{"ha":785,"x_min":-44,"x_max":669,"o":"m 525 406 q 484 517 525 482 q 376 553 443 553 q 295 538 332 553 q 231 503 258 524 l 231 3 q 203 -5 221 -1 q 165 -8 186 -8 q 106 7 125 -8 q 86 58 86 22 l 86 901 q 114 908 96 904 q 153 913 132 913 q 212 897 193 913 q 231 846 231 882 l 231 626 q 305 656 263 643 q 400 669 347 669 q 595 606 521 669 q 669 411 669 542 l 669 3 q 642 -5 660 -1 q 604 -8 624 -8 q 544 7 563 -8 q 525 58 525 22 l 525 406 m 151 1044 q 92 985 125 1018 q 24 919 60 953 q -25 938 -6 922 q -44 976 -44 953 q -33 1012 -44 997 q 0 1046 -22 1026 l 71 1114 q 153 1151 113 1151 q 199 1141 179 1151 q 239 1110 218 1131 l 351 985 q 335 940 351 956 q 292 924 319 924 q 256 934 272 924 q 217 971 240 944 l 151 1044 z "},"Ħ":{"ha":926,"x_min":32,"x_max":894,"o":"m 661 843 q 690 849 671 846 q 731 853 710 853 q 791 838 771 853 q 811 783 811 822 l 811 701 l 882 701 q 890 682 885 694 q 894 654 894 669 q 883 615 894 626 q 849 603 871 603 l 811 603 l 811 3 q 781 -5 800 -1 q 742 -8 763 -8 q 680 8 699 -8 q 661 61 661 24 l 661 365 l 274 365 l 274 3 q 244 -5 263 -1 q 204 -8 226 -8 q 142 8 161 -8 q 124 61 124 24 l 124 603 l 46 603 q 36 623 40 610 q 32 651 32 636 q 76 701 32 701 l 124 701 l 124 843 q 153 849 135 846 q 193 853 172 853 q 253 838 233 853 q 274 783 274 822 l 274 701 l 661 701 l 661 843 m 661 486 l 661 603 l 274 603 l 274 486 l 661 486 z "},"ħ":{"ha":788,"x_min":6,"x_max":682,"o":"m 18 733 q 10 752 14 740 q 6 779 6 764 q 49 829 6 829 l 99 829 l 99 914 q 126 921 108 917 q 165 925 144 925 q 224 910 206 925 q 243 858 243 894 l 243 829 l 379 829 q 393 782 393 811 q 350 733 393 733 l 243 733 l 243 626 q 317 656 275 643 q 413 669 360 669 q 608 606 533 669 q 682 411 682 542 l 682 3 q 654 -5 672 -1 q 617 -8 636 -8 q 556 7 575 -8 q 538 58 538 22 l 538 406 q 497 517 538 482 q 389 553 456 553 q 308 538 344 553 q 243 503 271 524 l 243 3 q 216 -5 233 -1 q 178 -8 199 -8 q 118 7 138 -8 q 99 58 99 22 l 99 733 l 18 733 z "},"Ĩ":{"ha":381,"x_min":-33,"x_max":406,"o":"m 264 3 q 235 -5 254 -1 q 196 -8 217 -8 q 134 8 153 -8 q 115 61 115 24 l 115 843 q 145 849 126 846 q 185 853 164 853 q 244 838 225 853 q 264 783 264 822 l 264 3 m 81 1114 q 135 1107 110 1114 q 183 1091 160 1100 q 226 1075 206 1082 q 264 1068 246 1068 q 303 1084 290 1068 q 322 1119 317 1100 l 331 1119 q 383 1103 361 1119 q 406 1051 406 1086 q 375 981 406 1006 q 296 956 344 956 q 238 963 265 956 q 188 978 211 969 q 145 994 165 988 q 108 1001 125 1001 q 69 985 82 1001 q 51 949 57 969 l 43 949 q -10 966 13 949 q -33 1018 -33 983 q 1 1089 -33 1064 q 81 1114 36 1114 z "},"ĩ":{"ha":350,"x_min":-44,"x_max":394,"o":"m 247 -1 q 222 -8 239 -4 q 183 -11 204 -11 q 122 5 143 -11 q 101 57 101 21 l 101 644 q 129 651 111 647 q 167 654 147 654 q 228 638 208 654 q 247 586 247 622 l 247 -1 m 69 929 q 124 922 99 929 q 172 906 149 915 q 215 890 194 897 q 253 883 235 883 q 292 899 279 883 q 311 935 306 915 l 319 935 q 372 918 350 935 q 394 867 394 901 q 364 796 394 821 q 285 771 333 771 q 227 778 254 771 q 177 794 200 785 q 134 810 154 803 q 97 817 114 817 q 58 801 71 817 q 40 764 46 785 l 32 764 q -22 781 1 764 q -44 833 -44 799 q -10 904 -44 879 q 69 929 25 929 z "},"Ī":{"ha":381,"x_min":-15,"x_max":385,"o":"m 264 3 q 235 -5 254 -1 q 196 -8 217 -8 q 134 8 153 -8 q 115 61 115 24 l 115 843 q 145 849 126 846 q 185 853 164 853 q 244 838 225 853 q 264 783 264 822 l 264 3 m 1 958 q -10 984 -4 969 q -15 1015 -15 999 q -1 1060 -15 1047 q 38 1074 14 1074 l 368 1074 q 385 1017 385 1050 q 371 972 385 985 q 332 958 357 958 l 1 958 z "},"ī":{"ha":350,"x_min":-29,"x_max":371,"o":"m 247 -1 q 222 -8 239 -4 q 183 -11 204 -11 q 122 5 143 -11 q 101 57 101 21 l 101 644 q 129 651 111 647 q 167 654 147 654 q 228 638 208 654 q 247 586 247 622 l 247 -1 m -12 789 q -24 815 -18 800 q -29 846 -29 829 q -15 891 -29 878 q 24 904 0 904 l 354 904 q 371 847 371 881 q 357 802 371 815 q 318 789 343 789 l -12 789 z "},"Į":{"ha":381,"x_min":88,"x_max":340,"o":"m 264 3 q 221 -85 221 -32 q 243 -142 221 -122 q 301 -162 265 -162 l 332 -162 q 340 -203 340 -182 q 318 -253 340 -235 q 250 -272 296 -272 q 132 -229 176 -272 q 88 -119 88 -186 q 146 0 88 -43 q 115 61 115 14 l 115 843 q 145 849 126 846 q 185 853 164 853 q 244 838 225 853 q 264 783 264 822 l 264 3 l 264 3 z "},"į":{"ha":350,"x_min":58,"x_max":300,"o":"m 247 3 q 246 1 246 3 q 207 -35 224 -14 q 190 -89 190 -57 q 213 -142 190 -125 q 275 -160 235 -160 l 292 -160 q 300 -199 300 -179 q 282 -245 300 -226 q 215 -264 264 -264 q 104 -228 150 -264 q 58 -126 58 -192 q 79 -48 58 -79 q 126 3 100 -17 q 101 58 101 17 l 101 646 q 130 653 113 649 q 169 657 147 657 q 228 642 210 657 q 247 589 247 626 l 247 3 m 86 850 q 111 910 86 886 q 175 935 136 935 q 238 910 214 935 q 261 850 261 886 q 238 790 261 814 q 175 765 214 765 q 111 790 136 765 q 86 850 86 814 z "},"İ":{"ha":381,"x_min":101,"x_max":271,"o":"m 264 3 q 235 -5 254 -1 q 196 -8 217 -8 q 134 8 153 -8 q 115 61 115 24 l 115 843 q 145 849 126 846 q 185 853 164 853 q 244 838 225 853 q 264 783 264 822 l 264 3 m 271 1025 q 248 965 271 989 q 186 942 225 942 q 124 965 147 942 q 101 1025 101 989 q 124 1085 101 1061 q 186 1108 147 1108 q 248 1085 225 1108 q 271 1025 271 1061 z "},"ı":{"ha":350,"x_min":101,"x_max":247,"o":"m 247 1 q 222 -5 239 -1 q 183 -8 204 -8 q 101 58 101 -8 l 101 649 q 129 655 111 651 q 167 658 147 658 q 228 642 208 658 q 247 590 247 626 l 247 1 l 247 1 z "},"Ĵ":{"ha":532,"x_min":24,"x_max":542,"o":"m 151 107 q 243 135 213 107 q 274 231 274 164 l 274 843 q 303 849 283 846 q 342 853 322 853 q 402 838 382 853 q 422 783 422 822 l 422 218 q 403 111 422 156 q 353 38 385 67 q 277 -3 321 10 q 182 -17 233 -17 q 64 4 104 -17 q 24 67 24 25 q 32 103 24 88 q 47 128 40 119 q 97 113 71 119 q 151 107 124 107 m 342 1036 q 283 977 315 1010 q 214 911 250 944 q 165 929 185 914 q 146 968 146 944 q 157 1003 146 989 q 190 1038 168 1018 l 261 1106 q 343 1143 303 1143 q 389 1133 369 1143 q 429 1101 408 1122 l 542 976 q 526 931 542 947 q 482 915 510 915 q 447 926 463 915 q 407 963 431 936 l 342 1036 z "},"ĵ":{"ha":349,"x_min":-26,"x_max":365,"o":"m 250 -50 q 211 -197 250 -146 q 158 -244 188 -229 q 96 -260 128 -260 q 34 -237 57 -260 q 10 -174 11 -215 l 40 -158 q 90 -112 76 -140 q 103 -35 103 -83 l 103 644 q 130 651 113 647 q 168 654 147 654 q 229 638 208 654 q 250 586 250 622 l 250 -50 m 168 861 q 106 792 135 822 q 49 728 76 761 q -6 745 15 729 q -26 785 -26 761 q -16 817 -26 803 q 13 850 -6 831 l 86 931 q 126 959 107 949 q 168 969 144 969 q 213 960 194 969 q 254 924 232 950 l 365 790 q 351 749 365 767 q 308 731 338 731 q 276 740 289 731 q 249 765 263 750 l 168 861 z "},"Ķ":{"ha":796,"x_min":104,"x_max":750,"o":"m 254 381 l 254 1 q 225 -6 243 -1 q 185 -10 207 -10 q 123 6 142 -10 q 104 60 104 22 l 104 843 q 134 849 115 846 q 174 853 153 853 q 234 838 214 853 q 254 783 254 822 l 254 469 l 611 850 q 688 827 664 849 q 711 776 711 806 q 663 689 711 733 l 399 428 q 601 219 514 310 q 750 71 688 128 q 724 10 747 32 q 669 -11 701 -11 q 613 7 636 -11 q 567 49 590 25 l 254 381 m 413 -287 q 344 -318 386 -318 q 289 -296 308 -318 q 327 -194 311 -246 q 347 -97 343 -142 q 415 -82 381 -82 q 461 -94 443 -82 q 479 -132 479 -107 q 473 -171 479 -149 q 457 -215 467 -193 q 435 -256 447 -236 q 413 -287 424 -275 z "},"ķ":{"ha":703,"x_min":99,"x_max":661,"o":"m 243 3 q 216 -5 233 -1 q 178 -8 199 -8 q 118 7 138 -8 q 99 58 99 22 l 99 901 q 126 908 108 904 q 165 913 144 913 q 224 897 206 913 q 243 846 243 882 l 243 381 l 529 663 q 599 642 574 661 q 625 592 625 622 q 608 547 625 567 q 560 500 592 528 l 375 338 l 661 76 q 637 13 657 36 q 581 -10 617 -10 q 531 4 553 -10 q 485 46 510 18 l 243 301 l 243 3 m 386 -287 q 318 -318 360 -318 q 263 -296 282 -318 q 301 -194 285 -246 q 321 -97 317 -142 q 389 -82 354 -82 q 435 -94 417 -82 q 453 -132 453 -107 q 447 -171 453 -149 q 431 -215 440 -193 q 409 -256 421 -236 q 386 -287 397 -275 z "},"ĸ":{"ha":703,"x_min":99,"x_max":661,"o":"m 243 379 l 540 663 q 610 641 585 661 q 636 592 636 621 q 618 547 636 567 q 568 500 600 528 l 376 336 l 661 76 q 637 13 657 36 q 581 -10 617 -10 q 531 4 553 -10 q 485 46 508 18 l 243 299 l 243 3 q 216 -5 233 -1 q 178 -8 199 -8 q 118 7 138 -8 q 99 58 99 22 l 99 649 q 125 655 107 651 q 164 658 143 658 q 224 642 204 658 q 243 590 243 626 l 243 379 z "},"Ĺ":{"ha":700,"x_min":114,"x_max":658,"o":"m 194 -1 q 136 21 158 -1 q 114 79 114 43 l 114 843 q 144 849 125 846 q 183 853 163 853 q 244 838 224 853 q 264 783 264 822 l 264 124 l 640 124 q 653 99 647 114 q 658 64 658 83 q 643 15 658 32 q 603 -1 628 -1 l 194 -1 m 296 1149 q 354 1129 333 1147 q 375 1086 375 1111 q 365 1049 375 1064 q 332 1015 356 1035 l 208 917 q 155 933 174 918 q 136 969 136 947 q 160 1018 136 996 l 296 1149 z "},"ĺ":{"ha":356,"x_min":104,"x_max":363,"o":"m 283 1199 q 342 1179 321 1197 q 363 1136 363 1161 q 353 1099 363 1114 q 319 1065 343 1085 l 196 967 q 142 983 161 968 q 124 1019 124 997 q 147 1068 124 1046 l 283 1199 m 183 -8 q 124 7 143 -8 q 104 58 104 22 l 104 901 q 132 908 114 904 q 171 913 150 913 q 231 897 211 913 q 250 846 250 882 l 250 3 q 222 -5 239 -1 q 183 -8 204 -8 z "},"Ļ":{"ha":700,"x_min":114,"x_max":658,"o":"m 194 -1 q 136 21 158 -1 q 114 79 114 43 l 114 843 q 144 849 125 846 q 183 853 163 853 q 244 838 224 853 q 264 783 264 822 l 264 124 l 640 124 q 653 99 647 114 q 658 64 658 83 q 643 15 658 32 q 603 -1 628 -1 l 194 -1 m 388 -287 q 319 -318 361 -318 q 264 -296 283 -318 q 302 -194 286 -246 q 322 -97 318 -142 q 390 -82 356 -82 q 436 -94 418 -82 q 454 -132 454 -107 q 448 -171 454 -149 q 432 -215 442 -193 q 410 -256 422 -236 q 388 -287 399 -275 z "},"ļ":{"ha":356,"x_min":57,"x_max":251,"o":"m 185 -8 q 125 7 144 -8 q 106 58 106 22 l 106 901 q 133 908 115 904 q 172 913 151 913 q 232 897 213 913 q 251 846 251 882 l 251 3 q 223 -5 240 -1 q 185 -8 206 -8 m 181 -287 q 149 -311 165 -304 q 113 -318 132 -318 q 57 -296 76 -318 q 95 -194 79 -246 q 115 -97 111 -142 q 183 -82 149 -82 q 229 -94 211 -82 q 247 -132 247 -107 q 241 -171 247 -149 q 225 -215 235 -193 q 203 -256 215 -236 q 181 -287 192 -275 z "},"Ľ":{"ha":700,"x_min":114,"x_max":658,"o":"m 194 -1 q 136 21 158 -1 q 114 79 114 43 l 114 843 q 144 849 125 846 q 183 853 163 853 q 244 838 224 853 q 264 783 264 822 l 264 124 l 640 124 q 653 99 647 114 q 658 64 658 83 q 643 15 658 32 q 603 -1 628 -1 l 194 -1 m 511 647 q 443 617 485 617 q 388 638 406 617 q 426 741 410 689 q 447 838 442 793 q 514 851 479 851 q 560 840 542 851 q 579 801 579 828 q 573 763 579 785 q 557 720 567 742 q 535 679 547 699 q 511 647 522 660 z "},"ľ":{"ha":497,"x_min":106,"x_max":508,"o":"m 185 -8 q 125 7 144 -8 q 106 58 106 22 l 106 901 q 133 908 115 904 q 172 913 151 913 q 232 897 213 913 q 251 846 251 882 l 251 3 q 223 -5 240 -1 q 185 -8 206 -8 m 440 708 q 372 678 414 678 q 317 699 335 678 q 355 802 339 750 q 376 899 371 854 q 443 913 408 913 q 490 901 471 913 q 508 863 508 889 q 502 824 508 846 q 486 781 496 803 q 464 740 476 760 q 440 708 451 721 z "},"Ŀ":{"ha":700,"x_min":114,"x_max":658,"o":"m 194 -1 q 136 21 158 -1 q 114 79 114 43 l 114 843 q 144 849 125 846 q 183 853 163 853 q 244 838 224 853 q 264 783 264 822 l 264 124 l 640 124 q 653 99 647 114 q 658 64 658 83 q 643 15 658 32 q 603 -1 628 -1 l 194 -1 m 439 457 q 463 524 439 497 q 531 550 488 550 q 599 524 575 550 q 622 457 622 497 q 599 390 622 417 q 531 364 575 364 q 463 390 488 364 q 439 457 439 417 z "},"ŀ":{"ha":493,"x_min":106,"x_max":517,"o":"m 185 -8 q 125 7 144 -8 q 106 58 106 22 l 106 901 q 133 908 115 904 q 172 913 151 913 q 232 897 213 913 q 251 846 251 882 l 251 3 q 223 -5 240 -1 q 185 -8 206 -8 m 333 419 q 358 486 333 460 q 425 513 382 513 q 493 486 469 513 q 517 419 517 460 q 493 353 517 379 q 425 326 469 326 q 358 353 382 326 q 333 419 333 379 z "},"Ł":{"ha":736,"x_min":14,"x_max":704,"o":"m 240 -1 q 182 21 204 -1 q 160 79 160 43 l 160 344 l 58 303 q 29 334 44 314 q 14 381 14 354 q 49 428 14 413 l 160 472 l 160 843 q 190 849 171 846 q 229 853 208 853 q 290 838 269 853 q 310 783 310 822 l 310 533 l 494 610 q 525 578 510 599 q 540 533 540 558 q 506 486 540 500 l 310 406 l 310 124 l 686 124 q 699 99 693 114 q 704 64 704 83 q 689 15 704 32 q 649 -1 674 -1 l 240 -1 l 240 -1 z "},"ł":{"ha":476,"x_min":14,"x_max":463,"o":"m 244 -8 q 185 7 204 -8 q 165 58 165 22 l 165 367 l 58 324 q 29 354 44 335 q 14 400 14 374 q 49 447 14 435 l 165 494 l 165 901 q 193 908 175 904 q 232 913 211 913 q 292 897 272 913 q 311 846 311 882 l 311 554 l 418 599 q 447 567 432 588 q 463 521 463 547 q 428 475 463 488 l 311 426 l 311 3 q 283 -5 300 -1 q 244 -8 265 -8 z "},"Ń":{"ha":915,"x_min":113,"x_max":808,"o":"m 808 19 q 769 -1 793 7 q 714 -10 746 -10 q 647 5 675 -10 q 594 60 618 19 l 365 458 q 334 514 350 485 q 303 572 318 543 q 276 628 289 601 q 253 676 263 656 l 246 675 q 256 520 253 603 q 258 364 258 438 l 258 1 q 230 -5 249 -1 q 192 -8 211 -8 q 131 7 150 -8 q 113 58 113 22 l 113 819 q 152 844 126 835 q 207 853 178 853 q 275 839 246 853 q 328 785 304 825 l 558 385 q 589 329 574 358 q 619 271 604 300 q 647 215 633 242 q 669 167 660 188 l 675 168 q 663 377 664 274 q 661 579 661 481 l 661 843 q 690 849 672 846 q 729 853 708 853 q 790 838 771 853 q 808 786 808 822 l 808 19 m 576 1149 q 635 1129 614 1147 q 656 1086 656 1111 q 646 1049 656 1064 q 613 1015 636 1035 l 489 917 q 435 933 454 918 q 417 969 417 947 q 440 1018 417 996 l 576 1149 z "},"ń":{"ha":776,"x_min":96,"x_max":681,"o":"m 535 421 q 497 521 535 489 q 393 553 458 553 q 306 540 344 553 q 240 513 268 528 l 240 3 q 213 -5 231 -1 q 175 -8 196 -8 q 115 7 135 -8 q 96 58 96 22 l 96 517 q 108 568 96 549 q 150 607 121 588 q 251 650 189 631 q 393 669 314 669 q 604 609 528 669 q 681 426 681 549 l 681 3 q 653 -5 671 -1 q 614 -8 635 -8 q 554 7 574 -8 q 535 58 535 22 l 535 421 m 496 979 q 561 958 538 978 q 585 914 585 938 q 575 876 585 890 q 542 840 565 861 l 414 721 q 357 740 378 721 q 336 781 336 758 q 342 806 336 794 q 360 828 349 817 l 496 979 z "},"Ņ":{"ha":915,"x_min":113,"x_max":808,"o":"m 808 19 q 769 -1 793 7 q 714 -10 746 -10 q 647 5 675 -10 q 594 60 618 19 l 365 458 q 334 514 350 485 q 303 572 318 543 q 276 628 289 601 q 253 676 263 656 l 246 675 q 256 520 253 603 q 258 364 258 438 l 258 1 q 230 -5 249 -1 q 192 -8 211 -8 q 131 7 150 -8 q 113 58 113 22 l 113 819 q 152 844 126 835 q 207 853 178 853 q 275 839 246 853 q 328 785 304 825 l 558 385 q 589 329 574 358 q 619 271 604 300 q 647 215 633 242 q 669 167 660 188 l 675 168 q 663 377 664 274 q 661 579 661 481 l 661 843 q 690 849 672 846 q 729 853 708 853 q 790 838 771 853 q 808 786 808 822 l 808 19 m 475 -287 q 407 -318 449 -318 q 351 -296 371 -318 q 390 -194 374 -246 q 410 -97 406 -142 q 478 -82 443 -82 q 524 -94 506 -82 q 542 -132 542 -107 q 535 -171 542 -149 q 519 -215 529 -193 q 498 -256 510 -236 q 475 -287 486 -275 z "},"ņ":{"ha":776,"x_min":96,"x_max":681,"o":"m 535 421 q 497 521 535 489 q 393 553 458 553 q 306 540 344 553 q 240 513 268 528 l 240 3 q 213 -5 231 -1 q 175 -8 196 -8 q 115 7 135 -8 q 96 58 96 22 l 96 517 q 108 568 96 549 q 150 607 121 588 q 251 650 189 631 q 393 669 314 669 q 604 609 528 669 q 681 426 681 549 l 681 3 q 653 -5 671 -1 q 614 -8 635 -8 q 554 7 574 -8 q 535 58 535 22 l 535 421 m 394 -287 q 326 -318 368 -318 q 271 -296 290 -318 q 309 -194 293 -246 q 329 -97 325 -142 q 397 -82 363 -82 q 443 -94 425 -82 q 461 -132 461 -107 q 455 -171 461 -149 q 439 -215 449 -193 q 417 -256 429 -236 q 394 -287 406 -275 z "},"Ň":{"ha":915,"x_min":113,"x_max":808,"o":"m 808 19 q 769 -1 793 7 q 714 -10 746 -10 q 647 5 675 -10 q 594 60 618 19 l 365 458 q 334 514 350 485 q 303 572 318 543 q 276 628 289 601 q 253 676 263 656 l 246 675 q 256 520 253 603 q 258 364 258 438 l 258 1 q 230 -5 249 -1 q 192 -8 211 -8 q 131 7 150 -8 q 113 58 113 22 l 113 819 q 152 844 126 835 q 207 853 178 853 q 275 839 246 853 q 328 785 304 825 l 558 385 q 589 329 574 358 q 619 271 604 300 q 647 215 633 242 q 669 167 660 188 l 675 168 q 663 377 664 274 q 661 579 661 481 l 661 843 q 690 849 672 846 q 729 853 708 853 q 790 838 771 853 q 808 786 808 822 l 808 19 m 594 1143 q 646 1126 625 1142 q 667 1086 667 1110 q 656 1051 667 1065 q 622 1017 644 1036 l 551 947 q 510 920 528 928 q 469 913 493 913 q 424 924 443 913 q 385 954 404 935 l 269 1071 q 285 1122 269 1104 q 328 1140 300 1140 q 364 1130 347 1140 q 404 1092 381 1119 l 469 1017 l 594 1143 z "},"ň":{"ha":776,"x_min":96,"x_max":681,"o":"m 535 421 q 497 521 535 489 q 393 553 458 553 q 306 540 344 553 q 240 513 268 528 l 240 3 q 213 -5 231 -1 q 175 -8 196 -8 q 115 7 135 -8 q 96 58 96 22 l 96 517 q 108 568 96 549 q 150 607 121 588 q 251 650 189 631 q 393 669 314 669 q 604 609 528 669 q 681 426 681 549 l 681 3 q 653 -5 671 -1 q 614 -8 635 -8 q 554 7 574 -8 q 535 58 535 22 l 535 421 m 381 838 l 503 967 q 559 949 539 965 q 579 908 579 932 q 567 874 579 889 q 535 839 556 858 l 454 761 q 381 729 422 729 q 336 738 356 729 q 290 775 317 747 l 176 893 l 176 900 q 191 944 176 924 q 233 964 206 964 q 269 955 254 964 q 306 922 283 946 l 381 838 z "},"ŉ":{"ha":915,"x_min":18,"x_max":819,"o":"m 674 421 q 635 521 674 489 q 532 553 597 553 q 445 540 483 553 q 379 513 407 528 l 379 3 q 352 -5 369 -1 q 314 -8 335 -8 q 254 7 274 -8 q 235 58 235 22 l 235 517 q 247 568 235 549 q 289 607 260 588 q 390 650 328 631 q 532 669 453 669 q 743 609 667 669 q 819 426 819 549 l 819 3 q 792 -5 810 -1 q 753 -8 774 -8 q 693 7 713 -8 q 674 58 674 22 l 674 421 m 138 589 q 113 558 126 568 q 76 549 99 549 q 45 554 60 549 q 18 567 31 560 q 27 634 22 597 q 38 710 32 671 q 47 787 43 749 q 53 858 50 825 q 84 868 67 864 q 121 872 101 872 q 172 858 151 872 q 192 808 192 843 q 186 756 192 786 q 173 694 181 725 q 156 634 165 663 q 138 589 146 606 z "},"Ō":{"ha":963,"x_min":68,"x_max":893,"o":"m 893 422 q 862 231 893 314 q 775 93 831 149 q 644 9 719 38 q 481 -19 569 -19 q 316 9 392 -19 q 185 93 240 38 q 99 231 131 149 q 68 422 68 314 q 100 613 68 531 q 188 751 132 694 q 319 835 243 807 q 481 864 394 864 q 643 835 568 864 q 774 751 718 807 q 861 613 829 694 q 893 422 893 531 m 742 422 q 671 659 742 578 q 481 740 600 740 q 292 658 364 740 q 221 422 221 576 q 292 185 221 267 q 481 103 363 103 q 671 185 600 103 q 742 422 742 267 m 292 958 q 281 984 286 969 q 275 1015 275 999 q 290 1060 275 1047 q 328 1074 304 1074 l 658 1074 q 675 1017 675 1050 q 661 972 675 985 q 622 958 647 958 l 292 958 z "},"ō":{"ha":781,"x_min":61,"x_max":719,"o":"m 719 325 q 696 182 719 246 q 630 74 672 118 q 526 5 588 29 q 390 -19 465 -19 q 254 5 315 -19 q 151 74 193 29 q 85 182 108 118 q 61 325 61 246 q 85 468 61 404 q 151 576 108 532 q 256 645 194 621 q 390 669 317 669 q 525 645 464 669 q 629 576 586 621 q 696 467 672 531 q 719 325 719 404 m 390 553 q 258 493 307 553 q 210 325 210 433 q 257 158 210 217 q 390 99 304 99 q 524 158 476 99 q 571 325 571 217 q 523 492 571 432 q 390 553 475 553 m 208 789 q 197 815 203 800 q 192 846 192 829 q 206 891 192 878 q 244 904 221 904 l 575 904 q 592 847 592 881 q 578 802 592 815 q 539 789 564 789 l 208 789 z "},"Ő":{"ha":963,"x_min":68,"x_max":893,"o":"m 893 422 q 862 231 893 314 q 775 93 831 149 q 644 9 719 38 q 481 -19 569 -19 q 316 9 392 -19 q 185 93 240 38 q 99 231 131 149 q 68 422 68 314 q 100 613 68 531 q 188 751 132 694 q 319 835 243 807 q 481 864 394 864 q 643 835 568 864 q 774 751 718 807 q 861 613 829 694 q 893 422 893 531 m 742 422 q 671 659 742 578 q 481 740 600 740 q 292 658 364 740 q 221 422 221 576 q 292 185 221 267 q 481 103 363 103 q 671 185 600 103 q 742 422 742 267 m 404 1147 q 468 1127 446 1146 q 490 1085 490 1108 q 479 1047 490 1061 q 449 1008 468 1032 l 369 917 q 312 933 332 917 q 292 972 292 950 q 297 998 292 986 q 313 1022 303 1010 l 404 1147 m 657 1147 q 721 1127 699 1146 q 743 1085 743 1108 q 732 1048 743 1064 q 701 1008 721 1032 l 622 917 q 565 933 586 917 q 544 972 544 950 q 550 998 544 986 q 565 1022 556 1010 l 657 1147 z "},"ő":{"ha":781,"x_min":61,"x_max":719,"o":"m 719 325 q 696 182 719 246 q 630 74 672 118 q 526 5 588 29 q 390 -19 465 -19 q 254 5 315 -19 q 151 74 193 29 q 85 182 108 118 q 61 325 61 246 q 85 468 61 404 q 151 576 108 532 q 256 645 194 621 q 390 669 317 669 q 525 645 464 669 q 629 576 586 621 q 696 467 672 531 q 719 325 719 404 m 390 553 q 258 493 307 553 q 210 325 210 433 q 257 158 210 217 q 390 99 304 99 q 524 158 476 99 q 571 325 571 217 q 523 492 571 432 q 390 553 475 553 m 329 979 q 394 960 371 978 q 418 917 418 942 q 406 879 418 894 q 375 840 394 864 l 275 721 q 218 739 239 721 q 197 779 197 757 q 202 803 197 793 q 218 828 207 814 l 329 979 m 585 979 q 650 960 626 978 q 674 917 674 942 q 663 880 674 896 q 632 840 651 864 l 531 721 q 474 739 494 721 q 454 779 454 757 q 474 828 454 803 l 585 979 z "},"Œ":{"ha":1322,"x_min":67,"x_max":1256,"o":"m 1240 119 q 1251 96 1246 111 q 1256 63 1256 81 q 1201 -1 1256 -1 l 778 -1 q 724 16 744 -1 q 699 64 703 33 q 468 -19 611 -19 q 309 9 382 -19 q 182 93 236 38 q 97 231 128 149 q 67 422 67 314 q 98 613 67 531 q 184 751 129 694 q 313 835 239 807 q 469 864 386 864 q 596 844 538 864 q 700 782 654 824 q 724 826 704 810 q 778 843 744 843 l 1233 843 q 1244 819 1239 835 q 1250 786 1250 804 q 1235 739 1250 756 q 1196 722 1221 722 l 840 722 l 840 492 l 1192 492 q 1203 468 1197 483 q 1208 435 1208 453 q 1194 388 1208 403 q 1154 372 1179 372 l 840 372 l 840 119 l 1240 119 m 693 611 q 603 708 660 676 q 471 740 546 740 q 369 719 415 740 q 289 658 322 699 q 238 558 256 618 q 219 422 219 499 q 289 185 219 267 q 471 103 358 103 q 693 226 628 103 l 693 611 z "},"œ":{"ha":1235,"x_min":61,"x_max":1183,"o":"m 386 669 q 533 637 469 669 q 638 544 597 604 q 742 638 678 607 q 885 669 806 669 q 1005 648 950 669 q 1099 588 1060 626 q 1161 497 1139 550 q 1183 382 1183 444 q 1166 331 1183 347 q 1117 310 1149 314 l 711 251 q 787 134 731 172 q 931 96 843 96 q 1038 114 989 96 q 1115 153 1086 132 q 1144 126 1133 142 q 1156 90 1156 110 q 1138 47 1156 67 q 1088 12 1119 26 q 1013 -11 1056 -3 q 922 -19 971 -19 q 756 12 828 -19 q 640 108 685 43 q 536 14 600 47 q 386 -19 472 -19 q 251 5 311 -19 q 149 74 190 29 q 84 182 107 118 q 61 325 61 246 q 84 468 61 404 q 149 576 107 532 q 252 645 192 621 q 386 669 313 669 m 390 553 q 258 493 307 553 q 210 325 210 433 q 257 158 210 217 q 390 99 304 99 q 524 158 476 99 q 571 325 571 217 q 523 492 571 432 q 390 553 475 553 m 883 557 q 756 506 806 557 q 703 358 706 454 l 1046 407 q 999 513 1039 469 q 883 557 958 557 z "},"Ŕ":{"ha":825,"x_min":114,"x_max":772,"o":"m 264 3 q 235 -5 253 -1 q 194 -8 217 -8 q 133 8 151 -8 q 114 61 114 24 l 114 778 q 127 815 114 801 q 164 835 140 828 q 267 856 207 850 q 386 861 326 861 q 655 788 567 861 q 743 583 743 715 q 695 427 743 492 q 558 331 647 363 q 624 248 592 289 q 684 170 656 207 q 735 103 713 133 q 772 54 758 74 q 742 6 765 22 q 690 -11 718 -11 q 638 5 657 -11 q 599 49 618 21 l 419 307 l 264 307 l 264 3 m 397 426 q 540 465 488 426 q 593 583 593 504 q 540 700 593 661 q 382 739 486 739 q 319 736 350 739 q 263 729 288 733 l 263 426 l 397 426 m 507 1149 q 565 1129 544 1147 q 586 1086 586 1111 q 576 1049 586 1064 q 543 1015 567 1035 l 419 917 q 366 933 385 918 q 347 969 347 947 q 371 1018 347 996 l 507 1149 z "},"ŕ":{"ha":542,"x_min":96,"x_max":517,"o":"m 240 3 q 213 -5 231 -1 q 175 -8 196 -8 q 115 7 135 -8 q 96 58 96 22 l 96 514 q 110 570 96 549 q 154 611 124 592 q 257 653 194 636 q 394 669 319 669 q 517 600 517 669 q 511 569 517 583 q 499 543 506 554 q 464 549 485 546 q 419 551 443 551 q 318 540 364 551 q 240 510 272 528 l 240 3 m 392 979 q 457 958 433 978 q 481 914 481 938 q 471 876 481 890 q 438 840 461 861 l 310 721 q 253 740 274 721 q 232 781 232 758 q 238 806 232 794 q 256 828 244 817 l 392 979 z "},"Ŗ":{"ha":825,"x_min":114,"x_max":772,"o":"m 264 3 q 235 -5 253 -1 q 194 -8 217 -8 q 133 8 151 -8 q 114 61 114 24 l 114 778 q 127 815 114 801 q 164 835 140 828 q 267 856 207 850 q 386 861 326 861 q 655 788 567 861 q 743 583 743 715 q 695 427 743 492 q 558 331 647 363 q 624 248 592 289 q 684 170 656 207 q 735 103 713 133 q 772 54 758 74 q 742 6 765 22 q 690 -11 718 -11 q 638 5 657 -11 q 599 49 618 21 l 419 307 l 264 307 l 264 3 m 397 426 q 540 465 488 426 q 593 583 593 504 q 540 700 593 661 q 382 739 486 739 q 319 736 350 739 q 263 729 288 733 l 263 426 l 397 426 m 438 -287 q 369 -318 411 -318 q 314 -296 333 -318 q 352 -194 336 -246 q 372 -97 368 -142 q 440 -82 406 -82 q 486 -94 468 -82 q 504 -132 504 -107 q 498 -171 504 -149 q 482 -215 492 -193 q 460 -256 472 -236 q 438 -287 449 -275 z "},"ŗ":{"ha":542,"x_min":49,"x_max":517,"o":"m 240 3 q 213 -5 231 -1 q 175 -8 196 -8 q 115 7 135 -8 q 96 58 96 22 l 96 514 q 110 570 96 549 q 154 611 124 592 q 257 653 194 636 q 394 669 319 669 q 517 600 517 669 q 511 569 517 583 q 499 543 506 554 q 464 549 485 546 q 419 551 443 551 q 318 540 364 551 q 240 510 272 528 l 240 3 m 172 -287 q 140 -311 157 -304 q 104 -318 124 -318 q 49 -296 68 -318 q 87 -194 71 -246 q 107 -97 103 -142 q 175 -82 140 -82 q 221 -94 203 -82 q 239 -132 239 -107 q 233 -171 239 -149 q 217 -215 226 -193 q 195 -256 207 -236 q 172 -287 183 -275 z "},"Ř":{"ha":825,"x_min":114,"x_max":772,"o":"m 264 3 q 235 -5 253 -1 q 194 -8 217 -8 q 133 8 151 -8 q 114 61 114 24 l 114 778 q 127 815 114 801 q 164 835 140 828 q 267 856 207 850 q 386 861 326 861 q 655 788 567 861 q 743 583 743 715 q 695 427 743 492 q 558 331 647 363 q 624 248 592 289 q 684 170 656 207 q 735 103 713 133 q 772 54 758 74 q 742 6 765 22 q 690 -11 718 -11 q 638 5 657 -11 q 599 49 618 21 l 419 307 l 264 307 l 264 3 m 397 426 q 540 465 488 426 q 593 583 593 504 q 540 700 593 661 q 382 739 486 739 q 319 736 350 739 q 263 729 288 733 l 263 426 l 397 426 m 542 1143 q 593 1126 572 1142 q 614 1086 614 1110 q 603 1051 614 1065 q 569 1017 592 1036 l 499 947 q 458 920 475 928 q 417 913 440 913 q 371 924 390 913 q 332 954 351 935 l 217 1071 q 232 1122 217 1104 q 275 1140 247 1140 q 311 1130 294 1140 q 351 1092 328 1119 l 417 1017 l 542 1143 z "},"ř":{"ha":542,"x_min":96,"x_max":517,"o":"m 240 3 q 213 -5 231 -1 q 175 -8 196 -8 q 115 7 135 -8 q 96 58 96 22 l 96 514 q 110 570 96 549 q 154 611 124 592 q 257 653 194 636 q 394 669 319 669 q 517 600 517 669 q 511 569 517 583 q 499 543 506 554 q 464 549 485 546 q 419 551 443 551 q 318 540 364 551 q 240 510 272 528 l 240 3 m 310 838 l 432 967 q 488 949 468 965 q 508 908 508 932 q 497 874 508 889 q 464 839 485 858 l 383 761 q 310 729 351 729 q 265 738 285 729 q 219 775 246 747 l 106 893 l 106 900 q 120 944 106 924 q 163 964 135 964 q 198 955 183 964 q 235 922 213 946 l 310 838 z "},"Ś":{"ha":738,"x_min":69,"x_max":678,"o":"m 354 103 q 483 139 442 103 q 525 232 525 175 q 493 313 525 282 q 392 364 461 343 l 288 396 q 199 431 239 411 q 132 478 160 451 q 90 542 104 506 q 75 628 75 579 q 156 801 75 738 q 376 864 238 864 q 482 855 433 864 q 566 830 531 846 q 622 792 601 814 q 642 746 642 771 q 630 705 642 722 q 601 676 618 688 q 510 722 567 703 q 386 740 454 740 q 268 710 310 740 q 226 628 226 679 q 256 560 226 586 q 351 515 285 535 l 432 492 q 613 397 549 457 q 678 232 678 336 q 656 130 678 176 q 594 50 635 83 q 494 -1 554 17 q 357 -19 433 -19 q 240 -8 293 -19 q 149 21 188 3 q 90 63 111 39 q 69 113 69 86 q 86 160 69 140 q 125 189 103 179 q 216 131 158 158 q 354 103 274 103 m 458 1149 q 517 1129 496 1147 q 538 1086 538 1111 q 528 1049 538 1064 q 494 1015 518 1035 l 371 917 q 317 933 336 918 q 299 969 299 947 q 322 1018 299 996 l 458 1149 z "},"ś":{"ha":638,"x_min":63,"x_max":581,"o":"m 581 179 q 511 33 581 86 q 310 -19 442 -19 q 210 -11 256 -19 q 131 13 164 -3 q 81 49 99 28 q 63 94 63 69 q 73 133 63 115 q 101 163 83 151 q 190 117 140 138 q 307 96 240 96 q 403 117 369 96 q 436 179 436 139 q 413 235 436 214 q 346 267 390 256 l 251 292 q 113 360 157 317 q 68 478 68 403 q 85 553 68 518 q 134 615 101 589 q 215 655 167 640 q 326 669 264 669 q 417 662 376 669 q 488 641 458 654 q 535 608 518 628 q 551 567 551 589 q 542 528 551 544 q 517 503 532 513 q 442 536 492 518 q 336 554 393 554 q 244 534 278 554 q 211 478 211 514 q 230 432 211 450 q 294 403 249 414 l 375 382 q 531 307 481 354 q 581 179 581 260 m 414 979 q 479 958 456 978 q 503 914 503 938 q 493 876 503 890 q 460 840 483 861 l 332 721 q 275 740 296 721 q 254 781 254 758 q 260 806 254 794 q 278 828 267 817 l 414 979 z "},"Ŝ":{"ha":738,"x_min":69,"x_max":678,"o":"m 354 103 q 483 139 442 103 q 525 232 525 175 q 493 313 525 282 q 392 364 461 343 l 288 396 q 199 431 239 411 q 132 478 160 451 q 90 542 104 506 q 75 628 75 579 q 156 801 75 738 q 376 864 238 864 q 482 855 433 864 q 566 830 531 846 q 622 792 601 814 q 642 746 642 771 q 630 705 642 722 q 601 676 618 688 q 510 722 567 703 q 386 740 454 740 q 268 710 310 740 q 226 628 226 679 q 256 560 226 586 q 351 515 285 535 l 432 492 q 613 397 549 457 q 678 232 678 336 q 656 130 678 176 q 594 50 635 83 q 494 -1 554 17 q 357 -19 433 -19 q 240 -8 293 -19 q 149 21 188 3 q 90 63 111 39 q 69 113 69 86 q 86 160 69 140 q 125 189 103 179 q 216 131 158 158 q 354 103 274 103 m 379 1036 q 320 977 353 1010 q 251 911 288 944 q 203 929 222 914 q 183 968 183 944 q 194 1003 183 989 q 228 1038 206 1018 l 299 1106 q 381 1143 340 1143 q 426 1133 407 1143 q 467 1101 446 1122 l 579 976 q 563 931 579 947 q 519 915 547 915 q 484 926 500 915 q 444 963 468 936 l 379 1036 z "},"ŝ":{"ha":638,"x_min":63,"x_max":581,"o":"m 581 179 q 511 33 581 86 q 310 -19 442 -19 q 210 -11 256 -19 q 131 13 164 -3 q 81 49 99 28 q 63 94 63 69 q 73 133 63 115 q 101 163 83 151 q 190 117 140 138 q 307 96 240 96 q 403 117 369 96 q 436 179 436 139 q 413 235 436 214 q 346 267 390 256 l 251 292 q 113 360 157 317 q 68 478 68 403 q 85 553 68 518 q 134 615 101 589 q 215 655 167 640 q 326 669 264 669 q 417 662 376 669 q 488 641 458 654 q 535 608 518 628 q 551 567 551 589 q 542 528 551 544 q 517 503 532 513 q 442 536 492 518 q 336 554 393 554 q 244 534 278 554 q 211 478 211 514 q 230 432 211 450 q 294 403 249 414 l 375 382 q 531 307 481 354 q 581 179 581 260 m 318 861 q 256 792 285 822 q 199 728 226 761 q 144 745 165 729 q 124 785 124 761 q 134 817 124 803 q 163 850 144 831 l 236 931 q 276 959 257 949 q 318 969 294 969 q 363 960 344 969 q 404 924 382 950 l 515 790 q 501 749 515 767 q 458 731 488 731 q 426 740 439 731 q 399 765 413 750 l 318 861 z "},"Ş":{"ha":738,"x_min":69,"x_max":678,"o":"m 354 103 q 483 139 442 103 q 525 232 525 175 q 493 313 525 282 q 392 364 461 343 l 288 396 q 199 431 239 411 q 132 478 160 451 q 90 542 104 506 q 75 628 75 579 q 156 801 75 738 q 376 864 238 864 q 482 855 433 864 q 566 830 531 846 q 622 792 601 814 q 642 746 642 771 q 630 705 642 722 q 601 676 618 688 q 510 722 567 703 q 386 740 454 740 q 268 710 310 740 q 226 628 226 679 q 256 560 226 586 q 351 515 285 535 l 432 492 q 613 397 549 457 q 678 232 678 336 q 616 70 678 136 q 436 -12 554 4 q 468 -118 468 -57 q 426 -227 468 -186 q 313 -268 383 -268 q 249 -251 272 -268 q 225 -201 225 -233 q 226 -183 225 -193 q 232 -165 228 -174 l 251 -165 q 322 -144 300 -165 q 343 -87 343 -124 q 338 -54 343 -72 q 322 -18 333 -36 q 219 -4 265 -15 q 139 25 172 7 q 88 65 106 43 q 69 113 69 88 q 86 160 69 140 q 125 189 103 179 q 216 131 158 158 q 354 103 274 103 z "},"ş":{"ha":638,"x_min":63,"x_max":581,"o":"m 581 179 q 535 55 581 104 q 403 -11 490 6 q 436 -118 436 -54 q 394 -227 436 -186 q 281 -268 351 -268 q 217 -251 240 -268 q 193 -201 193 -233 q 194 -183 193 -193 q 200 -165 196 -174 l 219 -165 q 290 -144 268 -165 q 311 -87 311 -124 q 306 -54 311 -72 q 290 -19 301 -36 q 126 15 189 -17 q 63 94 63 47 q 73 133 63 115 q 101 163 83 151 q 190 117 140 138 q 307 96 240 96 q 403 117 369 96 q 436 179 436 139 q 413 235 436 214 q 346 267 390 256 l 251 292 q 113 360 157 317 q 68 478 68 403 q 85 553 68 518 q 134 615 101 589 q 215 655 167 640 q 326 669 264 669 q 417 662 376 669 q 488 641 458 654 q 535 608 518 628 q 551 567 551 589 q 542 528 551 544 q 517 503 532 513 q 442 536 492 518 q 336 554 393 554 q 244 534 278 554 q 211 478 211 514 q 230 432 211 450 q 294 403 249 414 l 375 382 q 531 307 481 354 q 581 179 581 260 z "},"Š":{"ha":738,"x_min":69,"x_max":678,"o":"m 354 103 q 483 139 442 103 q 525 232 525 175 q 493 313 525 282 q 392 364 461 343 l 288 396 q 199 431 239 411 q 132 478 160 451 q 90 542 104 506 q 75 628 75 579 q 156 801 75 738 q 376 864 238 864 q 482 855 433 864 q 566 830 531 846 q 622 792 601 814 q 642 746 642 771 q 630 705 642 722 q 601 676 618 688 q 510 722 567 703 q 386 740 454 740 q 268 710 310 740 q 226 628 226 679 q 256 560 226 586 q 351 515 285 535 l 432 492 q 613 397 549 457 q 678 232 678 336 q 656 130 678 176 q 594 50 635 83 q 494 -1 554 17 q 357 -19 433 -19 q 240 -8 293 -19 q 149 21 188 3 q 90 63 111 39 q 69 113 69 86 q 86 160 69 140 q 125 189 103 179 q 216 131 158 158 q 354 103 274 103 m 499 1143 q 550 1126 529 1142 q 571 1086 571 1110 q 560 1051 571 1065 q 526 1017 549 1036 l 456 947 q 415 920 432 928 q 374 913 397 913 q 328 924 347 913 q 289 954 308 935 l 174 1071 q 189 1122 174 1104 q 232 1140 204 1140 q 268 1130 251 1140 q 308 1092 285 1119 l 374 1017 l 499 1143 z "},"š":{"ha":638,"x_min":63,"x_max":581,"o":"m 581 179 q 511 33 581 86 q 310 -19 442 -19 q 210 -11 256 -19 q 131 13 164 -3 q 81 49 99 28 q 63 94 63 69 q 73 133 63 115 q 101 163 83 151 q 190 117 140 138 q 307 96 240 96 q 403 117 369 96 q 436 179 436 139 q 413 235 436 214 q 346 267 390 256 l 251 292 q 113 360 157 317 q 68 478 68 403 q 85 553 68 518 q 134 615 101 589 q 215 655 167 640 q 326 669 264 669 q 417 662 376 669 q 488 641 458 654 q 535 608 518 628 q 551 567 551 589 q 542 528 551 544 q 517 503 532 513 q 442 536 492 518 q 336 554 393 554 q 244 534 278 554 q 211 478 211 514 q 230 432 211 450 q 294 403 249 414 l 375 382 q 531 307 481 354 q 581 179 581 260 m 318 838 l 440 967 q 497 949 476 965 q 517 908 517 932 q 505 874 517 889 q 472 839 493 858 l 392 761 q 318 729 360 729 q 274 738 293 729 q 228 775 254 747 l 114 893 l 114 900 q 128 944 114 924 q 171 964 143 964 q 206 955 192 964 q 243 922 221 946 l 318 838 z "},"Ț":{"ha":739,"x_min":32,"x_max":706,"o":"m 442 721 l 442 3 q 413 -5 432 -1 q 374 -8 394 -8 q 313 8 331 -8 q 294 61 294 24 l 294 721 l 49 721 q 37 746 42 731 q 32 781 32 761 q 47 827 32 811 q 86 843 61 843 l 690 843 q 701 819 696 835 q 706 786 706 804 q 651 721 706 721 l 442 721 m 372 -287 q 304 -318 346 -318 q 249 -296 268 -318 q 287 -194 271 -246 q 307 -97 303 -142 q 375 -82 340 -82 q 421 -94 403 -82 q 439 -132 439 -107 q 433 -171 439 -149 q 417 -215 426 -193 q 395 -256 407 -236 q 372 -287 383 -275 z "},"ț":{"ha":526,"x_min":97,"x_max":474,"o":"m 242 190 q 271 119 242 140 q 353 99 300 99 q 403 106 376 99 q 449 122 429 113 q 466 97 458 111 q 474 64 474 83 q 437 4 474 28 q 325 -19 400 -19 q 159 27 221 -19 q 97 181 97 74 l 97 829 q 125 836 107 832 q 164 840 143 840 q 223 825 204 840 q 242 774 242 810 l 242 636 l 457 636 q 467 613 463 628 q 472 581 472 597 q 421 521 472 521 l 242 521 l 242 190 m 293 -287 q 225 -318 267 -318 q 169 -296 189 -318 q 208 -194 192 -246 q 228 -97 224 -142 q 296 -82 261 -82 q 342 -94 324 -82 q 360 -132 360 -107 q 353 -171 360 -149 q 338 -215 347 -193 q 316 -256 328 -236 q 293 -287 304 -275 z "},"Ť":{"ha":739,"x_min":32,"x_max":706,"o":"m 442 721 l 442 3 q 413 -5 432 -1 q 374 -8 394 -8 q 313 8 331 -8 q 294 61 294 24 l 294 721 l 49 721 q 37 746 42 731 q 32 781 32 761 q 47 827 32 811 q 86 843 61 843 l 690 843 q 701 819 696 835 q 706 786 706 804 q 651 721 706 721 l 442 721 m 496 1143 q 547 1126 526 1142 q 568 1086 568 1110 q 557 1051 568 1065 q 524 1017 546 1036 l 453 947 q 412 920 429 928 q 371 913 394 913 q 325 924 344 913 q 286 954 306 935 l 171 1071 q 186 1122 171 1104 q 229 1140 201 1140 q 265 1130 249 1140 q 306 1092 282 1119 l 371 1017 l 496 1143 z "},"ť":{"ha":681,"x_min":97,"x_max":704,"o":"m 242 190 q 271 119 242 140 q 353 99 300 99 q 403 106 376 99 q 449 122 429 113 q 466 97 458 111 q 474 64 474 83 q 437 4 474 28 q 325 -19 400 -19 q 159 27 221 -19 q 97 181 97 74 l 97 829 q 125 836 107 832 q 164 840 143 840 q 223 825 204 840 q 242 774 242 810 l 242 636 l 457 636 q 467 613 463 628 q 472 581 472 597 q 421 521 472 521 l 242 521 l 242 190 m 636 708 q 568 678 610 678 q 513 699 531 678 q 551 802 535 750 q 572 899 567 854 q 639 913 604 913 q 685 901 667 913 q 704 863 704 889 q 698 824 704 846 q 682 781 692 803 q 660 740 672 760 q 636 708 647 721 z "},"Ũ":{"ha":907,"x_min":113,"x_max":794,"o":"m 794 296 q 772 167 794 225 q 705 67 749 108 q 598 3 661 25 q 453 -19 535 -19 q 309 3 372 -19 q 202 67 246 25 q 135 167 158 108 q 113 296 113 225 l 113 843 q 142 849 122 846 q 182 853 161 853 q 242 838 222 853 q 261 783 261 822 l 261 304 q 316 154 261 206 q 453 103 371 103 q 529 116 494 103 q 590 154 564 129 q 631 217 617 179 q 646 304 646 254 l 646 843 q 675 849 656 846 q 715 853 694 853 q 775 838 756 853 q 794 783 794 822 l 794 296 m 350 1114 q 404 1107 379 1114 q 452 1091 429 1100 q 495 1075 475 1082 q 533 1068 515 1068 q 573 1084 560 1068 q 592 1119 586 1100 l 600 1119 q 653 1103 631 1119 q 675 1051 675 1086 q 644 981 675 1006 q 565 956 614 956 q 508 963 535 956 q 458 978 481 969 q 415 994 435 988 q 378 1001 394 1001 q 339 985 351 1001 q 321 949 326 969 l 313 949 q 259 966 282 949 q 236 1018 236 983 q 271 1089 236 1064 q 350 1114 306 1114 z "},"ũ":{"ha":778,"x_min":96,"x_max":681,"o":"m 96 649 q 124 655 106 651 q 163 658 142 658 q 222 643 203 658 q 240 590 240 628 l 240 247 q 283 133 240 167 q 400 99 325 99 q 482 108 449 99 q 535 129 515 118 l 535 649 q 563 655 546 651 q 601 658 581 658 q 661 643 642 658 q 681 590 681 628 l 681 122 q 671 72 681 92 q 632 35 661 53 q 537 -3 596 14 q 399 -19 478 -19 q 176 44 256 -19 q 96 244 96 107 l 96 649 m 281 929 q 335 922 310 929 q 383 906 360 915 q 426 890 406 897 q 464 883 446 883 q 503 899 490 883 q 522 935 517 915 l 531 935 q 583 918 561 935 q 606 867 606 901 q 575 796 606 821 q 496 771 544 771 q 438 778 465 771 q 388 794 411 785 q 345 810 365 803 q 308 817 325 817 q 269 801 282 817 q 251 764 257 785 l 243 764 q 190 781 213 764 q 167 833 167 799 q 201 904 167 879 q 281 929 236 929 z "},"Ū":{"ha":907,"x_min":113,"x_max":794,"o":"m 794 296 q 772 167 794 225 q 705 67 749 108 q 598 3 661 25 q 453 -19 535 -19 q 309 3 372 -19 q 202 67 246 25 q 135 167 158 108 q 113 296 113 225 l 113 843 q 142 849 122 846 q 182 853 161 853 q 242 838 222 853 q 261 783 261 822 l 261 304 q 316 154 261 206 q 453 103 371 103 q 529 116 494 103 q 590 154 564 129 q 631 217 617 179 q 646 304 646 254 l 646 843 q 675 849 656 846 q 715 853 694 853 q 775 838 756 853 q 794 783 794 822 l 794 296 m 264 958 q 253 984 258 969 q 247 1015 247 999 q 262 1060 247 1047 q 300 1074 276 1074 l 631 1074 q 647 1017 647 1050 q 633 972 647 985 q 594 958 619 958 l 264 958 z "},"ū":{"ha":776,"x_min":96,"x_max":681,"o":"m 96 649 q 124 655 106 651 q 163 658 142 658 q 222 643 203 658 q 240 590 240 628 l 240 247 q 283 133 240 167 q 400 99 325 99 q 482 108 449 99 q 535 129 515 118 l 535 649 q 563 655 546 651 q 601 658 581 658 q 661 643 642 658 q 681 590 681 628 l 681 122 q 671 72 681 92 q 632 35 661 53 q 537 -3 596 14 q 399 -19 478 -19 q 176 44 256 -19 q 96 244 96 107 l 96 649 m 207 789 q 196 815 201 800 q 190 846 190 829 q 205 891 190 878 q 243 904 219 904 l 574 904 q 590 847 590 881 q 576 802 590 815 q 538 789 563 789 l 207 789 z "},"Ŭ":{"ha":907,"x_min":113,"x_max":794,"o":"m 794 296 q 772 167 794 225 q 705 67 749 108 q 598 3 661 25 q 453 -19 535 -19 q 309 3 372 -19 q 202 67 246 25 q 135 167 158 108 q 113 296 113 225 l 113 843 q 142 849 122 846 q 182 853 161 853 q 242 838 222 853 q 261 783 261 822 l 261 304 q 316 154 261 206 q 453 103 371 103 q 529 116 494 103 q 590 154 564 129 q 631 217 617 179 q 646 304 646 254 l 646 843 q 675 849 656 846 q 715 853 694 853 q 775 838 756 853 q 794 783 794 822 l 794 296 m 451 1022 q 523 1045 496 1022 q 557 1108 550 1068 q 569 1110 564 1110 q 582 1111 575 1111 q 631 1093 614 1111 q 647 1044 647 1075 q 635 997 647 1019 q 597 956 622 974 q 535 926 572 938 q 451 915 499 915 q 366 926 403 915 q 305 956 329 938 q 269 997 281 974 q 257 1044 257 1021 q 274 1093 257 1075 q 322 1111 290 1111 q 335 1110 329 1111 q 346 1108 340 1110 q 381 1045 353 1068 q 451 1022 408 1022 z "},"ŭ":{"ha":778,"x_min":96,"x_max":681,"o":"m 96 649 q 124 655 106 651 q 163 658 142 658 q 222 643 203 658 q 240 590 240 628 l 240 247 q 283 133 240 167 q 400 99 325 99 q 482 108 449 99 q 535 129 515 118 l 535 649 q 563 655 546 651 q 601 658 581 658 q 661 643 642 658 q 681 590 681 628 l 681 122 q 671 72 681 92 q 632 35 661 53 q 537 -3 596 14 q 399 -19 478 -19 q 176 44 256 -19 q 96 244 96 107 l 96 649 m 388 863 q 459 885 432 863 q 493 949 486 908 q 506 951 500 950 q 518 951 511 951 q 567 933 550 951 q 583 885 583 915 q 571 837 583 860 q 533 796 558 814 q 472 767 508 778 q 388 756 435 756 q 302 767 339 756 q 241 796 265 778 q 205 838 217 814 q 193 885 193 861 q 210 933 193 915 q 258 951 226 951 q 271 951 265 951 q 282 949 276 950 q 317 885 289 908 q 388 863 344 863 z "},"Ů":{"ha":907,"x_min":113,"x_max":794,"o":"m 794 296 q 772 167 794 225 q 705 67 749 108 q 598 3 661 25 q 453 -19 535 -19 q 309 3 372 -19 q 202 67 246 25 q 135 167 158 108 q 113 296 113 225 l 113 843 q 142 849 122 846 q 182 853 161 853 q 242 838 222 853 q 261 783 261 822 l 261 304 q 316 154 261 206 q 453 103 371 103 q 529 116 494 103 q 590 154 564 129 q 631 217 617 179 q 646 304 646 254 l 646 843 q 675 849 656 846 q 715 853 694 853 q 775 838 756 853 q 794 783 794 822 l 794 296 m 299 1038 q 340 1133 299 1094 q 456 1171 382 1171 q 572 1133 531 1171 q 614 1038 614 1094 q 572 943 614 981 q 456 906 531 906 q 340 943 382 906 q 299 1038 299 981 m 397 1038 q 414 998 397 1013 q 456 983 431 983 q 499 998 482 983 q 517 1038 517 1013 q 499 1077 517 1063 q 456 1092 482 1092 q 414 1077 431 1092 q 397 1038 397 1063 z "},"ů":{"ha":776,"x_min":96,"x_max":681,"o":"m 96 649 q 124 655 106 651 q 163 658 142 658 q 222 643 203 658 q 240 590 240 628 l 240 247 q 283 133 240 167 q 400 99 325 99 q 482 108 449 99 q 535 129 515 118 l 535 649 q 563 655 546 651 q 601 658 581 658 q 661 643 642 658 q 681 590 681 628 l 681 122 q 671 72 681 92 q 632 35 661 53 q 537 -3 596 14 q 399 -19 478 -19 q 176 44 256 -19 q 96 244 96 107 l 96 649 m 228 861 q 269 958 228 919 q 383 997 310 997 q 499 958 458 997 q 540 861 540 919 q 499 764 540 803 q 383 725 458 725 q 269 764 310 725 q 228 861 228 803 m 325 861 q 342 817 325 833 q 383 801 358 801 q 427 817 410 801 q 444 861 444 833 q 427 905 444 889 q 383 921 410 921 q 342 905 358 921 q 325 861 325 889 z "},"Ű":{"ha":907,"x_min":113,"x_max":794,"o":"m 794 296 q 772 167 794 225 q 705 67 749 108 q 598 3 661 25 q 453 -19 535 -19 q 309 3 372 -19 q 202 67 246 25 q 135 167 158 108 q 113 296 113 225 l 113 843 q 142 849 122 846 q 182 853 161 853 q 242 838 222 853 q 261 783 261 822 l 261 304 q 316 154 261 206 q 453 103 371 103 q 529 116 494 103 q 590 154 564 129 q 631 217 617 179 q 646 304 646 254 l 646 843 q 675 849 656 846 q 715 853 694 853 q 775 838 756 853 q 794 783 794 822 l 794 296 m 360 1147 q 424 1127 401 1146 q 446 1085 446 1108 q 435 1047 446 1061 q 404 1008 424 1032 l 325 917 q 267 933 288 917 q 247 972 247 950 q 253 998 247 986 q 268 1022 258 1010 l 360 1147 m 613 1147 q 676 1127 654 1146 q 699 1085 699 1108 q 688 1048 699 1064 q 657 1008 676 1032 l 578 917 q 521 933 542 917 q 500 972 500 950 q 506 998 500 986 q 521 1022 511 1010 l 613 1147 z "},"ű":{"ha":776,"x_min":96,"x_max":681,"o":"m 96 649 q 124 655 106 651 q 163 658 142 658 q 222 643 203 658 q 240 590 240 628 l 240 247 q 283 133 240 167 q 400 99 325 99 q 482 108 449 99 q 535 129 515 118 l 535 649 q 563 655 546 651 q 601 658 581 658 q 661 643 642 658 q 681 590 681 628 l 681 122 q 671 72 681 92 q 632 35 661 53 q 537 -3 596 14 q 399 -19 478 -19 q 176 44 256 -19 q 96 244 96 107 l 96 649 m 313 979 q 378 960 354 978 q 401 917 401 942 q 390 879 401 894 q 358 840 378 864 l 258 721 q 201 739 222 721 q 181 779 181 757 q 185 803 181 793 q 201 828 190 814 l 313 979 m 568 979 q 633 960 610 978 q 657 917 657 942 q 646 880 657 896 q 615 840 635 864 l 514 721 q 458 739 478 721 q 438 779 438 757 q 457 828 438 803 l 568 979 z "},"Ų":{"ha":907,"x_min":113,"x_max":794,"o":"m 794 296 q 724 85 794 168 q 521 -15 653 3 q 497 -48 506 -31 q 488 -89 488 -65 q 510 -142 488 -125 q 572 -160 532 -160 l 589 -160 q 597 -199 597 -179 q 579 -245 597 -226 q 513 -264 561 -264 q 402 -228 447 -264 q 357 -126 357 -192 q 369 -63 357 -90 q 401 -17 382 -36 q 188 81 263 -3 q 113 296 113 164 l 113 843 q 142 849 122 846 q 182 853 161 853 q 242 838 222 853 q 261 783 261 822 l 261 304 q 316 154 261 206 q 453 103 371 103 q 529 116 494 103 q 590 154 564 129 q 631 217 617 179 q 646 304 646 254 l 646 843 q 675 849 656 846 q 715 853 694 853 q 775 838 756 853 q 794 783 794 822 l 794 296 l 794 296 z "},"ų":{"ha":776,"x_min":96,"x_max":681,"o":"m 240 247 q 283 133 240 167 q 400 99 325 99 q 482 108 449 99 q 535 129 515 118 l 535 649 q 563 655 546 651 q 601 658 581 658 q 661 643 642 658 q 681 590 681 628 l 681 122 q 672 72 681 92 q 635 36 663 53 q 578 -20 600 8 q 557 -89 557 -49 q 580 -142 557 -125 q 643 -160 603 -160 l 660 -160 q 668 -199 668 -179 q 649 -245 668 -226 q 582 -264 631 -264 q 471 -228 517 -264 q 425 -126 425 -192 q 440 -58 425 -86 q 478 -11 456 -31 q 399 -19 440 -19 q 176 44 256 -19 q 96 244 96 107 l 96 649 q 124 655 106 651 q 163 658 142 658 q 222 643 203 658 q 240 590 240 628 l 240 247 l 240 247 z "},"Ŵ":{"ha":1135,"x_min":43,"x_max":1076,"o":"m 488 635 q 520 647 500 642 q 564 651 540 651 q 656 607 640 651 q 698 475 678 536 q 736 356 718 414 q 772 243 754 299 q 806 128 789 188 l 813 128 q 847 306 831 219 q 878 478 863 392 q 908 652 894 564 q 936 836 922 740 q 1000 851 963 851 q 1055 837 1033 851 q 1076 790 1076 822 q 1069 708 1076 763 q 1049 583 1061 653 q 1021 433 1038 513 q 986 278 1004 354 q 949 134 968 201 q 914 21 931 67 q 872 2 899 10 q 813 -6 844 -6 q 744 6 772 -6 q 710 39 717 18 q 680 122 697 72 q 644 228 663 171 q 606 350 625 286 q 569 478 588 414 q 533 349 553 415 q 495 222 514 283 q 459 108 476 161 q 428 19 442 56 q 388 2 414 10 q 331 -6 363 -6 q 262 7 290 -6 q 225 39 233 19 q 197 119 213 67 q 165 240 182 172 q 129 384 147 307 q 95 538 111 461 q 65 688 79 615 q 43 818 51 760 q 77 841 56 831 q 124 851 99 851 q 201 786 189 851 q 236 603 219 688 q 268 440 253 518 q 299 285 283 361 q 332 128 314 208 l 338 128 q 372 242 356 189 q 405 353 388 296 q 442 478 422 411 q 488 635 463 546 m 572 1026 q 510 957 539 988 q 453 893 481 926 q 399 910 419 894 q 378 950 378 926 q 388 982 378 968 q 417 1015 399 996 l 490 1096 q 530 1124 511 1114 q 572 1135 549 1135 q 617 1125 599 1135 q 658 1089 636 1115 l 769 956 q 756 914 769 932 q 713 896 742 896 q 680 906 693 896 q 653 931 667 915 l 572 1026 z "},"ŵ":{"ha":1019,"x_min":39,"x_max":975,"o":"m 511 450 q 476 327 494 389 q 438 207 457 265 q 402 99 419 149 q 371 11 385 49 q 338 -4 357 1 q 289 -10 318 -10 q 232 0 257 -10 q 199 31 207 10 q 160 138 182 64 q 115 299 138 211 q 72 475 93 386 q 39 631 51 564 q 70 653 50 643 q 115 664 90 664 q 190 593 178 664 q 217 450 203 522 q 246 315 232 378 q 272 202 260 251 q 289 128 283 153 l 294 128 q 316 201 301 153 q 349 310 331 249 q 390 444 368 372 q 436 586 413 515 q 513 606 468 606 q 566 594 544 606 q 594 563 588 583 q 638 426 617 493 q 676 300 658 358 q 706 197 693 242 q 726 128 719 153 l 733 128 q 792 381 761 247 q 843 647 822 514 q 874 659 857 654 q 907 664 890 664 q 956 650 938 664 q 975 606 975 636 q 967 544 975 588 q 944 444 958 501 q 912 322 929 386 q 877 197 894 257 q 843 88 860 138 q 815 11 826 38 q 782 -3 804 3 q 732 -10 760 -10 q 646 25 658 -10 q 617 107 633 58 q 582 212 600 156 q 546 329 564 268 q 511 450 528 390 m 513 861 q 450 792 479 822 q 393 728 421 761 q 339 745 360 729 q 318 785 318 761 q 328 817 318 803 q 357 850 339 831 l 431 931 q 470 959 451 949 q 513 969 489 969 q 558 960 539 969 q 599 924 576 950 l 710 790 q 696 749 710 767 q 653 731 682 731 q 620 740 633 731 q 593 765 607 750 l 513 861 z "},"Ŷ":{"ha":774,"x_min":24,"x_max":742,"o":"m 742 789 q 672 634 742 758 q 468 304 603 510 l 468 3 q 438 -5 457 -1 q 400 -8 419 -8 q 339 8 357 -8 q 321 60 321 24 l 321 303 q 242 423 283 358 q 160 553 200 488 q 84 683 119 619 q 24 800 49 746 q 51 835 32 819 q 103 851 71 851 q 156 835 136 851 q 196 782 175 819 q 239 704 213 753 q 294 603 265 656 q 350 505 324 551 q 392 433 376 458 l 397 433 q 456 540 428 489 q 508 639 483 590 q 558 736 533 688 q 608 836 583 785 q 638 847 621 843 q 671 851 656 851 q 722 835 703 851 q 742 789 742 818 m 390 1036 q 331 977 364 1010 q 263 911 299 944 q 214 929 233 914 q 194 968 194 944 q 206 1003 194 989 q 239 1038 217 1018 l 310 1106 q 392 1143 351 1143 q 438 1133 418 1143 q 478 1101 457 1122 l 590 976 q 574 931 590 947 q 531 915 558 915 q 495 926 511 915 q 456 963 479 936 l 390 1036 z "},"ŷ":{"ha":703,"x_min":38,"x_max":660,"o":"m 219 151 q 135 344 185 219 q 38 628 85 469 q 71 653 50 643 q 115 664 92 664 q 165 649 146 664 q 197 599 185 635 q 275 377 235 486 q 364 151 315 268 l 369 151 q 412 256 390 196 q 454 382 433 315 q 493 517 475 449 q 525 649 511 586 q 553 660 539 656 q 588 664 568 664 q 639 649 618 664 q 660 604 660 635 q 641 494 660 568 q 592 330 622 419 q 522 149 561 240 q 444 -14 483 57 q 319 -200 375 -136 q 213 -264 263 -264 q 151 -242 174 -264 q 122 -189 128 -221 q 171 -142 144 -169 q 224 -82 197 -114 q 274 -16 250 -50 q 314 50 297 18 q 268 77 290 57 q 219 151 246 97 m 361 861 q 299 792 328 822 q 242 728 269 761 q 188 745 208 729 q 167 785 167 761 q 177 817 167 803 q 206 850 188 831 l 279 931 q 319 959 300 949 q 361 969 338 969 q 406 960 388 969 q 447 924 425 950 l 558 790 q 544 749 558 767 q 501 731 531 731 q 469 740 482 731 q 442 765 456 750 l 361 861 z "},"Ÿ":{"ha":774,"x_min":24,"x_max":742,"o":"m 742 789 q 672 634 742 758 q 468 304 603 510 l 468 3 q 438 -5 457 -1 q 400 -8 419 -8 q 339 8 357 -8 q 321 60 321 24 l 321 303 q 242 423 283 358 q 160 553 200 488 q 84 683 119 619 q 24 800 49 746 q 51 835 32 819 q 103 851 71 851 q 156 835 136 851 q 196 782 175 819 q 239 704 213 753 q 294 603 265 656 q 350 505 324 551 q 392 433 376 458 l 397 433 q 456 540 428 489 q 508 639 483 590 q 558 736 533 688 q 608 836 583 785 q 638 847 621 843 q 671 851 656 851 q 722 835 703 851 q 742 789 742 818 m 344 1021 q 322 964 344 988 q 263 940 299 940 q 204 964 226 940 q 182 1021 182 988 q 204 1076 182 1053 q 263 1100 226 1100 q 322 1076 299 1100 q 344 1021 344 1053 m 601 1021 q 578 964 601 988 q 519 940 556 940 q 460 964 483 940 q 438 1021 438 988 q 460 1076 438 1053 q 519 1100 483 1100 q 578 1076 556 1100 q 601 1021 601 1053 z "},"Ź":{"ha":775,"x_min":64,"x_max":715,"o":"m 669 844 q 706 769 706 815 q 695 726 706 746 q 668 683 685 706 l 247 124 l 697 124 q 710 99 704 114 q 715 64 715 83 q 700 16 715 32 q 660 0 685 0 l 97 0 q 73 31 82 13 q 64 74 64 50 q 74 119 64 97 q 101 163 85 140 l 524 721 l 92 721 q 79 746 85 731 q 74 781 74 761 q 131 844 74 844 l 669 844 m 492 1149 q 550 1129 529 1147 q 571 1086 571 1111 q 561 1049 571 1064 q 528 1015 551 1035 l 404 917 q 351 933 369 918 q 332 969 332 947 q 356 1018 332 996 l 492 1149 z "},"ź":{"ha":656,"x_min":58,"x_max":603,"o":"m 88 0 q 58 64 58 25 q 67 102 58 83 q 89 136 76 121 l 411 533 l 82 533 q 71 558 76 543 q 65 592 65 574 q 80 636 65 622 q 118 650 94 650 l 560 650 q 590 585 590 626 q 582 548 590 565 q 560 514 574 531 l 239 115 l 588 115 q 598 92 593 107 q 603 58 603 76 q 588 14 603 28 q 550 0 574 0 l 88 0 m 438 979 q 503 958 479 978 q 526 914 526 938 q 517 876 526 890 q 483 840 507 861 l 356 721 q 299 740 319 721 q 278 781 278 758 q 284 806 278 794 q 301 828 290 817 l 438 979 z "},"Ż":{"ha":775,"x_min":64,"x_max":715,"o":"m 669 844 q 706 769 706 815 q 695 726 706 746 q 668 683 685 706 l 247 124 l 697 124 q 710 99 704 114 q 715 64 715 83 q 700 16 715 32 q 660 0 685 0 l 97 0 q 73 31 82 13 q 64 74 64 50 q 74 119 64 97 q 101 163 85 140 l 524 721 l 92 721 q 79 746 85 731 q 74 781 74 761 q 131 844 74 844 l 669 844 m 478 1025 q 455 965 478 989 q 393 942 432 942 q 331 965 354 942 q 308 1025 308 989 q 331 1085 308 1061 q 393 1108 354 1108 q 455 1085 432 1108 q 478 1025 478 1061 z "},"ż":{"ha":656,"x_min":58,"x_max":603,"o":"m 88 0 q 58 64 58 25 q 67 102 58 83 q 89 136 76 121 l 411 533 l 82 533 q 71 558 76 543 q 65 592 65 574 q 80 636 65 622 q 118 650 94 650 l 560 650 q 590 585 590 626 q 582 548 590 565 q 560 514 574 531 l 239 115 l 588 115 q 598 92 593 107 q 603 58 603 76 q 588 14 603 28 q 550 0 574 0 l 88 0 m 413 853 q 390 793 413 817 q 328 769 367 769 q 266 793 289 769 q 243 853 243 817 q 266 913 243 889 q 328 936 289 936 q 390 913 367 936 q 413 853 413 889 z "},"Ž":{"ha":775,"x_min":64,"x_max":715,"o":"m 669 844 q 706 769 706 815 q 695 726 706 746 q 668 683 685 706 l 247 124 l 697 124 q 710 99 704 114 q 715 64 715 83 q 700 16 715 32 q 660 0 685 0 l 97 0 q 73 31 82 13 q 64 74 64 50 q 74 119 64 97 q 101 163 85 140 l 524 721 l 92 721 q 79 746 85 731 q 74 781 74 761 q 131 844 74 844 l 669 844 m 524 1143 q 575 1126 554 1142 q 596 1086 596 1110 q 585 1051 596 1065 q 551 1017 574 1036 l 481 947 q 440 920 457 928 q 399 913 422 913 q 353 924 372 913 q 314 954 333 935 l 199 1071 q 214 1122 199 1104 q 257 1140 229 1140 q 293 1130 276 1140 q 333 1092 310 1119 l 399 1017 l 524 1143 z "},"ž":{"ha":656,"x_min":58,"x_max":603,"o":"m 88 0 q 58 64 58 25 q 67 102 58 83 q 89 136 76 121 l 411 533 l 82 533 q 71 558 76 543 q 65 592 65 574 q 80 636 65 622 q 118 650 94 650 l 560 650 q 590 585 590 626 q 582 548 590 565 q 560 514 574 531 l 239 115 l 588 115 q 598 92 593 107 q 603 58 603 76 q 588 14 603 28 q 550 0 574 0 l 88 0 m 331 838 l 453 967 q 509 949 489 965 q 529 908 529 932 q 517 874 529 889 q 485 839 506 858 l 404 761 q 331 729 372 729 q 286 738 306 729 q 240 775 267 747 l 126 893 l 126 900 q 141 944 126 924 q 183 964 156 964 q 219 955 204 964 q 256 922 233 946 l 331 838 z "},"Ə":{"ha":908,"x_min":61,"x_max":839,"o":"m 61 339 q 84 401 61 382 q 144 428 107 421 l 678 513 q 578 681 651 625 q 404 736 504 736 q 261 707 324 736 q 158 642 199 678 q 121 669 135 653 q 107 713 107 686 q 124 760 107 740 q 161 794 140 781 q 266 840 200 819 q 411 860 332 860 q 573 833 496 860 q 709 751 650 807 q 803 610 768 696 q 839 408 839 525 q 811 226 839 306 q 732 91 783 146 q 608 8 681 36 q 444 -21 535 -21 q 278 8 350 -21 q 159 87 207 38 q 86 201 111 136 q 61 339 61 267 m 210 318 q 231 234 214 274 q 277 165 247 194 q 349 119 307 136 q 443 101 390 101 q 629 174 565 101 q 693 394 693 247 l 210 318 z "},"ƒ":{"ha":714,"x_min":-8,"x_max":704,"o":"m 392 474 l 354 111 q 285 -59 342 -8 q 133 -110 229 -110 q 29 -88 67 -110 q -8 -26 -8 -67 q -1 8 -8 -7 q 17 31 6 22 q 59 16 38 22 q 113 10 81 10 q 181 35 158 10 q 210 119 203 60 l 269 682 q 354 864 282 806 q 536 922 426 922 q 660 900 617 922 q 704 838 704 878 q 697 803 704 818 q 679 779 690 788 q 622 797 653 789 q 551 804 592 804 q 453 772 486 804 q 413 672 419 740 l 403 589 l 631 589 q 642 566 638 581 q 647 532 647 551 q 633 488 647 503 q 594 474 618 474 l 392 474 z "},"Ơ":{"ha":994,"x_min":68,"x_max":982,"o":"m 893 422 q 862 231 893 314 q 775 93 831 149 q 644 9 719 38 q 481 -19 569 -19 q 316 9 392 -19 q 185 93 240 38 q 99 231 131 149 q 68 422 68 314 q 100 613 68 531 q 188 751 132 694 q 319 835 243 807 q 481 864 394 864 q 651 832 572 864 q 788 736 731 800 q 838 774 818 746 q 857 854 857 801 l 857 901 q 884 913 871 908 q 915 917 897 917 q 963 902 943 917 q 982 854 982 888 l 982 840 q 943 709 982 757 q 847 644 904 661 q 881 543 869 599 q 893 422 893 488 m 742 422 q 671 659 742 578 q 481 740 600 740 q 292 658 364 740 q 221 422 221 576 q 292 185 221 267 q 481 103 363 103 q 671 185 600 103 q 742 422 742 267 z "},"ơ":{"ha":835,"x_min":68,"x_max":813,"o":"m 726 325 q 703 182 726 246 q 637 74 679 118 q 533 5 594 29 q 397 -19 472 -19 q 261 5 322 -19 q 158 74 200 29 q 92 182 115 118 q 68 325 68 246 q 92 468 68 404 q 158 576 115 532 q 263 645 201 621 q 397 669 324 669 q 537 643 475 669 q 643 568 599 617 q 675 607 663 582 q 688 674 688 632 l 688 721 q 715 732 701 728 q 746 736 728 736 q 793 722 774 736 q 813 674 813 707 l 813 660 q 781 539 813 585 q 700 472 749 493 q 726 325 726 404 m 397 553 q 265 493 314 553 q 217 325 217 433 q 264 158 217 217 q 397 99 311 99 q 531 158 483 99 q 578 325 578 217 q 530 492 578 432 q 397 553 482 553 z "},"Ư":{"ha":979,"x_min":111,"x_max":1006,"o":"m 793 296 q 770 167 793 225 q 703 67 747 108 q 597 3 660 25 q 451 -19 533 -19 q 308 3 371 -19 q 201 67 244 25 q 134 167 157 108 q 111 296 111 225 l 111 843 q 140 849 121 846 q 181 853 160 853 q 240 838 221 853 q 260 783 260 822 l 260 304 q 315 154 260 206 q 451 103 369 103 q 528 116 493 103 q 589 154 563 129 q 630 217 615 179 q 644 304 644 254 l 644 843 q 674 849 654 846 q 714 853 693 853 q 774 838 754 853 q 793 783 793 822 l 793 732 q 856 766 831 739 q 881 854 881 793 l 881 901 q 908 913 894 908 q 939 917 921 917 q 986 902 967 917 q 1006 854 1006 888 l 1006 840 q 989 749 1006 788 q 944 686 972 711 q 881 649 917 661 q 806 636 844 636 l 793 636 l 793 296 l 793 296 z "},"ư":{"ha":872,"x_min":96,"x_max":878,"o":"m 96 649 q 124 655 106 651 q 163 658 142 658 q 222 643 203 658 q 240 590 240 628 l 240 247 q 283 133 240 167 q 400 99 325 99 q 482 108 449 99 q 535 129 515 118 l 535 649 q 563 655 546 651 q 601 658 581 658 q 661 643 642 658 q 681 590 681 628 l 681 556 q 733 592 713 564 q 753 674 753 619 l 753 721 q 780 732 767 728 q 811 736 793 736 q 858 722 839 736 q 878 674 878 707 l 878 660 q 861 569 878 607 q 817 506 844 531 q 754 468 790 481 q 681 456 718 456 l 681 122 q 671 72 681 92 q 632 35 661 53 q 537 -3 596 14 q 399 -19 478 -19 q 176 44 256 -19 q 96 244 96 107 l 96 649 z "},"Ǧ":{"ha":897,"x_min":68,"x_max":808,"o":"m 808 107 q 794 59 808 78 q 749 25 779 40 q 649 -7 713 6 q 518 -19 585 -19 q 337 6 419 -19 q 194 86 254 32 q 101 224 135 140 q 68 421 68 307 q 103 615 68 532 q 197 753 138 699 q 335 836 256 808 q 506 864 415 864 q 615 853 565 864 q 701 826 665 843 q 757 788 738 810 q 776 743 776 767 q 764 702 776 719 q 733 675 751 685 q 644 719 696 699 q 515 740 593 740 q 399 719 453 740 q 305 658 344 699 q 243 558 265 618 q 221 421 221 499 q 244 278 221 339 q 306 179 267 218 q 401 122 346 140 q 519 103 456 103 q 603 110 564 103 q 663 129 642 118 l 663 351 l 471 351 q 459 376 464 360 q 454 408 454 392 q 469 456 454 440 q 508 471 483 471 l 742 471 q 790 453 771 471 q 808 404 808 436 l 808 107 m 614 1143 q 665 1126 644 1142 q 686 1086 686 1110 q 675 1051 686 1065 q 642 1017 664 1036 l 571 947 q 530 920 547 928 q 489 913 513 913 q 443 924 463 913 q 404 954 424 935 l 289 1071 q 304 1122 289 1104 q 347 1140 319 1140 q 383 1130 367 1140 q 424 1092 400 1119 l 489 1017 l 614 1143 z "},"ǧ":{"ha":757,"x_min":64,"x_max":664,"o":"m 522 61 q 458 33 496 44 q 367 22 419 22 q 251 40 306 22 q 154 95 196 57 q 88 194 113 133 q 64 344 64 256 q 88 485 64 425 q 156 587 113 546 q 260 649 200 628 q 394 669 321 669 q 520 652 463 669 q 614 611 578 635 q 651 576 638 596 q 664 529 664 557 l 664 -18 q 640 -137 664 -87 q 573 -219 615 -187 q 472 -265 531 -250 q 347 -279 414 -279 q 225 -265 276 -279 q 150 -237 174 -251 q 107 -168 107 -211 q 117 -128 107 -144 q 142 -103 126 -112 q 226 -143 174 -125 q 339 -161 279 -161 q 474 -126 426 -161 q 522 -11 522 -90 l 522 61 m 388 136 q 467 150 435 136 q 521 183 499 164 l 521 519 q 469 542 500 532 q 397 553 439 553 q 261 501 313 553 q 210 346 210 450 q 224 249 210 289 q 261 183 238 208 q 317 147 285 158 q 388 136 350 136 m 392 838 l 514 967 q 570 949 550 965 q 590 908 590 932 q 578 874 590 889 q 546 839 567 858 l 465 761 q 392 729 433 729 q 347 738 367 729 q 301 775 328 747 l 188 893 l 188 900 q 202 944 188 924 q 244 964 217 964 q 280 955 265 964 q 317 922 294 946 l 392 838 z "},"Ș":{"ha":738,"x_min":69,"x_max":678,"o":"m 354 103 q 483 139 442 103 q 525 232 525 175 q 493 313 525 282 q 392 364 461 343 l 288 396 q 199 431 239 411 q 132 478 160 451 q 90 542 104 506 q 75 628 75 579 q 156 801 75 738 q 376 864 238 864 q 482 855 433 864 q 566 830 531 846 q 622 792 601 814 q 642 746 642 771 q 630 705 642 722 q 601 676 618 688 q 510 722 567 703 q 386 740 454 740 q 268 710 310 740 q 226 628 226 679 q 256 560 226 586 q 351 515 285 535 l 432 492 q 613 397 549 457 q 678 232 678 336 q 656 130 678 176 q 594 50 635 83 q 494 -1 554 17 q 357 -19 433 -19 q 240 -8 293 -19 q 149 21 188 3 q 90 63 111 39 q 69 113 69 86 q 86 160 69 140 q 125 189 103 179 q 216 131 158 158 q 354 103 274 103 m 375 -287 q 307 -318 349 -318 q 251 -296 271 -318 q 290 -194 274 -246 q 310 -97 306 -142 q 378 -82 343 -82 q 424 -94 406 -82 q 442 -132 442 -107 q 435 -171 442 -149 q 419 -215 429 -193 q 398 -256 410 -236 q 375 -287 386 -275 z "},"ș":{"ha":638,"x_min":63,"x_max":581,"o":"m 581 179 q 511 33 581 86 q 310 -19 442 -19 q 210 -11 256 -19 q 131 13 164 -3 q 81 49 99 28 q 63 94 63 69 q 73 133 63 115 q 101 163 83 151 q 190 117 140 138 q 307 96 240 96 q 403 117 369 96 q 436 179 436 139 q 413 235 436 214 q 346 267 390 256 l 251 292 q 113 360 157 317 q 68 478 68 403 q 85 553 68 518 q 134 615 101 589 q 215 655 167 640 q 326 669 264 669 q 417 662 376 669 q 488 641 458 654 q 535 608 518 628 q 551 567 551 589 q 542 528 551 544 q 517 503 532 513 q 442 536 492 518 q 336 554 393 554 q 244 534 278 554 q 211 478 211 514 q 230 432 211 450 q 294 403 249 414 l 375 382 q 531 307 481 354 q 581 179 581 260 m 339 -287 q 271 -318 313 -318 q 215 -296 235 -318 q 253 -194 238 -246 q 274 -97 269 -142 q 342 -82 307 -82 q 388 -94 369 -82 q 406 -132 406 -107 q 399 -171 406 -149 q 383 -215 393 -193 q 362 -256 374 -236 q 339 -287 350 -275 z "}}}
